<?xml version="1.0" encoding="utf-8"?>
<!-- Generator: Adobe Illustrator 18.1.1, SVG Export Plug-In . SVG Version: 6.00 Build 0)  -->
<!DOCTYPE svg PUBLIC "-//W3C//DTD SVG 1.1//EN" "http://www.w3.org/Graphics/SVG/1.1/DTD/svg11.dtd">
<svg version="1.1" id="Layer_1" xmlns="http://www.w3.org/2000/svg" xmlns:xlink="http://www.w3.org/1999/xlink" x="0px" y="0px"
	 viewBox="-78 91.9 48 48" enable-background="new -78 91.9 48 48" xml:space="preserve">
<path fill="none" d="M-78,91.9h48v48h-48V91.9z"/>
<path fill="#010101" d="M-34,117.9h-16v-4h16V117.9z M-34,105.9h-16v4h16V105.9z M-50,125.9h16v-4h-16V125.9z M-54,109.9v12
	c0,2.2-1.8,4-4,4h-12c-2.2,0-4-1.8-4-4v-12c0-2.2,1.8-4,4-4h12C-55.8,105.9-54,107.7-54,109.9z M-57,121.9l-4.5-6l-3.5,4.5l-2.5-3
	l-3.5,4.5H-57z"/>
</svg>
