<?xml version="1.0" standalone="no"?>
<!DOCTYPE svg PUBLIC "-//W3C//DTD SVG 1.1//EN" "http://www.w3.org/Graphics/SVG/1.1/DTD/svg11.dtd" >
<svg>
<metadata>
Created by FontForge 20120731 at Mon May  2 11:41:41 2016
 By ,,,
Copyright (C) 2010, 2014 Hoefler &#38; Co. http://www.typography.com
</metadata>
<defs>
<font id="GothamSSm-BlackItalic" horiz-adv-x="420" >
  <font-face 
    font-family="Gotham SSm Black"
    font-weight="450"
    font-style="italic"
    font-stretch="normal"
    units-per-em="1000"
    panose-1="0 0 0 0 0 0 0 0 0 0"
    ascent="800"
    descent="-200"
    x-height="562"
    cap-height="728"
    bbox="-333 -323 1355 1079"
    underline-thickness="50"
    underline-position="-50"
    slope="-15"
    unicode-range="U+0020-FB04"
  />
<missing-glyph horiz-adv-x="500" 
d="M0 -200v1000h500v-1000h-500zM250 360l179 390h-358zM450 -76v752l-172 -376zM50 -76l172 376l-172 376v-752zM71 -150h358l-179 390z" />
    <glyph glyph-name=".notdef" horiz-adv-x="500" 
d="M0 -200v1000h500v-1000h-500zM250 360l179 390h-358zM450 -76v752l-172 -376zM50 -76l172 376l-172 376v-752zM71 -150h358l-179 390z" />
    <glyph glyph-name=".null" horiz-adv-x="0" 
 />
    <glyph glyph-name="nonmarkingreturn" horiz-adv-x="333" 
 />
    <glyph glyph-name="space" unicode=" " horiz-adv-x="303" 
 />
    <glyph glyph-name="exclam" unicode="!" horiz-adv-x="346" 
d="M111 239l53 414l21 75h216l-21 -75l-169 -414h-100zM-1 0l46 175h198l-47 -175h-197z" />
    <glyph glyph-name="quotedbl" unicode="&#x22;" horiz-adv-x="569" 
d="M348 363l97 365h204l-1 -5l-200 -360h-100zM81 363l97 365h205l-1 -5l-201 -360h-100z" />
    <glyph glyph-name="numbersign" unicode="#" horiz-adv-x="733" 
d="M295 300h142l46 132h-143zM45 0l50 144h-85l37 160h105l43 124h-98l37 161h117l49 139h148l-49 -139h136l49 139h148l-49 -139h85l-37 -161h-105l-43 -124h98l-37 -160h-118l-50 -144h-148l51 144h-136l-50 -144h-148z" />
    <glyph glyph-name="dollar" unicode="$" horiz-adv-x="688" 
d="M305 515q0 -18 11.5 -29.5t42.5 -24.5l34 115h-1q-43 -1 -65.5 -18.5t-21.5 -42.5zM449 216q0 18 -11.5 30t-40.5 24l-35 -117h1q41 2 64 18.5t22 44.5zM450 788h108l-21 -73q108 -25 180 -91l-111 -129q-54 46 -118 66l-38 -128q95 -32 142 -75.5t47 -120.5
q0 -105 -87 -171t-224 -66h-5l-30 -102h-108l33 112q-144 28 -230 118l120 121q78 -69 160 -87l40 134q-98 32 -146 75.5t-48 121.5q0 100 86.5 167.5t222.5 67.5h9z" />
    <glyph glyph-name="percent" unicode="%" horiz-adv-x="961" 
d="M260 347q-79 0 -125 46.5t-46 120.5q0 99 67 164q60 60 141 60q79 0 125 -47t46 -121q0 -97 -67 -164q-59 -59 -141 -59zM74 0l356 363l357 365h144l-356 -363l-357 -365h-144zM265 452q30 0 51 21q36 38 36 92q0 31 -16 49.5t-44 18.5q-29 0 -51 -22q-35 -35 -35 -92
q0 -30 16 -48.5t43 -18.5zM707 -10q-79 0 -125 47t-46 121q0 96 68 164q59 59 141 59q79 0 125 -46.5t46 -120.5q0 -97 -67 -164q-60 -60 -142 -60zM713 95q27 0 51 22q35 35 35 92q0 30 -16 48.5t-43 18.5q-30 0 -51 -21q-36 -38 -36 -92q0 -31 16 -49.5t44 -18.5z" />
    <glyph glyph-name="ampersand" unicode="&#x26;" horiz-adv-x="737" 
d="M601 368l112 -79q-48 -74 -103 -133l61 -84l-129 -87l-52 74q-107 -70 -223 -70q-113 0 -179.5 53.5t-66.5 145.5q0 79 54.5 138t153.5 92q-34 63 -34 122q0 84 64 142.5t167 58.5q94 0 153.5 -51.5t59.5 -130.5q0 -132 -183 -201l66 -91q37 40 79 101zM354 534
q0 -34 25 -76q54 20 78.5 41.5t24.5 52.5q0 23 -15.5 39t-41.5 16q-31 0 -51 -21.5t-20 -51.5zM291 135q52 0 112 36l-101 143q-99 -43 -99 -111q0 -30 23 -49t65 -19z" />
    <glyph glyph-name="quotesingle" unicode="'" horiz-adv-x="305" 
d="M81 363l97 365h207l-1 -5l-201 -360h-102z" />
    <glyph glyph-name="parenleft" unicode="(" horiz-adv-x="481" 
d="M256 -149q-201 154 -201 373q0 204 149 353q105 105 275 165l59 -131q-107 -47 -182 -122q-117 -116 -117 -260q0 -129 127 -266z" />
    <glyph glyph-name="parenright" unicode=")" horiz-adv-x="481" 
d="M234 745q201 -154 201 -372q0 -203 -149 -354q-106 -106 -275 -164l-59 130q107 47 182 122q117 116 117 260q0 129 -127 266z" />
    <glyph glyph-name="asterisk" unicode="*" horiz-adv-x="462" 
d="M300 350l-101 27l58 124l-125 -58l-28 103l137 11l-113 80l76 75l79 -113l12 136l100 -27l-57 -124l125 58l28 -102l-138 -12l113 -80l-76 -74l-78 113z" />
    <glyph glyph-name="plus" unicode="+" horiz-adv-x="676" 
d="M202 99l49 183h-184l45 168h184l49 183h174l-48 -183h184l-46 -168h-184l-48 -183h-175z" />
    <glyph glyph-name="comma" unicode="," horiz-adv-x="328" 
d="M-60 -171l-9 74q118 11 136 99h-77l53 195h197l-44 -168q-27 -101 -86.5 -148.5t-169.5 -51.5z" />
    <glyph glyph-name="hyphen" unicode="-" horiz-adv-x="443" 
d="M42 240l45 169h337l-45 -169h-337z" />
    <glyph glyph-name="period" unicode="." horiz-adv-x="328" 
d="M-10 0l52 196h198l-53 -196h-197z" />
    <glyph glyph-name="slash" unicode="/" horiz-adv-x="565" 
d="M-143 -133l709 963h167l-709 -963h-167z" />
    <glyph glyph-name="zero" unicode="0" horiz-adv-x="766" 
d="M460 742q132 0 211 -83.5t79 -213.5q0 -98 -36.5 -190.5t-102.5 -158.5q-110 -110 -261 -110q-132 0 -211 83t-79 214q0 98 36.5 190.5t102.5 158.5q110 110 261 110zM366 157q53 0 101 46q40 40 63.5 105.5t23.5 128.5q0 65 -30 99.5t-80 34.5q-55 0 -101 -46
q-40 -40 -63.5 -105.5t-23.5 -128.5q0 -65 30 -99.5t80 -34.5z" />
    <glyph glyph-name="one" unicode="1" horiz-adv-x="458" 
d="M95 0l145 543l-124 -29l-3 157l230 62h139l-197 -733h-190z" />
    <glyph glyph-name="two" unicode="2" horiz-adv-x="659" 
d="M-28 0l40 151l370 244q89 58 89 113q0 29 -19.5 46t-55.5 17q-74 0 -167 -90l-114 119q126 139 297 139q116 0 185 -57t69 -149q0 -71 -41 -129t-146 -123l-187 -122h293l-43 -159h-570z" />
    <glyph glyph-name="three" unicode="3" horiz-adv-x="644" 
d="M268 -14q-195 0 -287 140l134 108q61 -81 155 -81q53 0 89 26.5t36 62.5q0 71 -120 71h-64l-5 103l206 154h-273l43 158h519l-39 -139l-225 -161q150 -39 150 -177q0 -103 -72 -175q-90 -90 -247 -90z" />
    <glyph glyph-name="four" unicode="4" horiz-adv-x="712" 
d="M331 0l38 145h-334l-20 141l496 447h201l-118 -442h94l-40 -146h-93l-39 -145h-185zM234 290h175l57 213z" />
    <glyph glyph-name="five" unicode="5" horiz-adv-x="646" 
d="M274 -13q-85 0 -165.5 37.5t-123.5 91.5l124 114q76 -78 172 -78q59 0 95.5 29.5t36.5 72.5q0 36 -29 59t-85 23q-49 0 -102 -29l-98 70l115 351h472l-43 -161h-314l-35 -105q47 13 89 13q101 0 163 -55.5t62 -148.5q0 -110 -78 -188q-96 -96 -256 -96z" />
    <glyph glyph-name="six" unicode="6" horiz-adv-x="687" 
d="M334 -13q-128 0 -201 71q-75 75 -75 201q0 102 37 200t106 168q114 114 281 114q140 0 233 -80l-99 -136q-67 56 -143 56q-84 0 -142 -58q-42 -42 -64 -106q28 25 72.5 41.5t93.5 16.5q90 0 151 -53.5t61 -144.5q0 -114 -84 -198q-92 -92 -227 -92zM333 136q52 0 87 35
t35 82q0 39 -25.5 62t-67.5 23q-54 0 -89 -35q-34 -33 -34 -82q0 -35 24 -59q26 -26 70 -26z" />
    <glyph glyph-name="seven" unicode="7" horiz-adv-x="647" 
d="M4 0l442 565h-330l44 163h553l-40 -146l-447 -582h-222z" />
    <glyph glyph-name="eight" unicode="8" horiz-adv-x="700" 
d="M321 -10q-121 0 -205 56.5t-84 147.5q0 76 47.5 126t131.5 72q-81 47 -81 138q0 82 77 145t210 63q119 0 193 -56t74 -141q0 -67 -41.5 -113.5t-115.5 -67.5q108 -43 108 -151q0 -93 -86.5 -156t-227.5 -63zM399 433q44 0 74.5 24t31.5 60q0 34 -27.5 55.5t-71.5 21.5
q-43 0 -73.5 -24t-30.5 -60q-1 -34 27 -55.5t70 -21.5zM332 134q50 0 83.5 24.5t34.5 64.5q1 36 -30.5 58t-79.5 22q-50 0 -83.5 -25t-34.5 -63q0 -36 31.5 -58.5t78.5 -22.5z" />
    <glyph glyph-name="nine" unicode="9" horiz-adv-x="687" 
d="M371 384q54 0 88 36q34 34 34 85q0 38 -23 61q-26 26 -71 26q-52 0 -86 -34q-36 -36 -36 -88q0 -39 26 -62.5t68 -23.5zM254 -13q-147 0 -247 90l100 136q75 -65 153 -65q83 0 142 59q40 39 61 98q-67 -59 -165 -59q-90 0 -150.5 53.5t-60.5 148.5q0 118 84 202
q92 92 227 92q130 0 201 -71q76 -76 76 -211q0 -98 -38 -193.5t-107 -165.5q-114 -114 -276 -114z" />
    <glyph glyph-name="colon" unicode=":" horiz-adv-x="332" 
d="M90 366l52 196h198l-53 -196h-197zM-8 0l53 196h197l-53 -196h-197z" />
    <glyph glyph-name="semicolon" unicode=";" horiz-adv-x="332" 
d="M90 366l52 196h198l-53 -196h-197zM-58 -173l-9 74q117 11 135 99h-76l53 196h197l-45 -169q-27 -101 -86 -148.5t-169 -51.5z" />
    <glyph glyph-name="less" unicode="&#x3c;" horiz-adv-x="676" 
d="M529 69l-458 209l47 175l570 209l-50 -184l-375 -120l311 -120z" />
    <glyph glyph-name="equal" unicode="=" horiz-adv-x="676" 
d="M117 421l45 166h518l-45 -166h-518zM44 145l44 166h518l-45 -166h-517z" />
    <glyph glyph-name="greater" unicode="&#x3e;" horiz-adv-x="676" 
d="M31 69l51 185l374 120l-311 120l45 168l459 -209l-48 -175z" />
    <glyph glyph-name="question" unicode="?" horiz-adv-x="573" 
d="M182 239l19 174l9 7q192 17 192 94q0 54 -72 54q-71 0 -143 -57l-81 134q104 93 256 93q107 0 171 -54.5t64 -135.5q0 -90 -66 -151t-197 -81l-31 -77h-121zM79 0l47 175h197l-47 -175h-197z" />
    <glyph glyph-name="at" unicode="@" horiz-adv-x="1017" 
d="M488 -161q-192 0 -312 112.5t-120 291.5q0 133 66.5 248t184 184t258.5 69q191 0 305 -103t114 -254q0 -159 -74.5 -242.5t-177.5 -83.5q-55 0 -95.5 23t-60.5 62q-76 -84 -165 -84q-70 0 -116.5 48.5t-46.5 130.5q0 125 77 211t179 86q89 0 134 -75l22 69l145 -40
l-79 -249q-12 -38 -12 -59q0 -29 18 -45t49 -16q59 0 109 72.5t50 193.5q0 132 -102 222.5t-273 90.5q-130 0 -237.5 -63.5t-168 -168.5t-60.5 -227q0 -162 108 -262.5t281 -100.5q109 0 213 47l17 -38q-109 -50 -230 -50zM484 193q47 0 83 41t36 98q0 33 -21.5 54t-54.5 21
q-47 0 -82.5 -41t-35.5 -97q0 -35 20.5 -55.5t54.5 -20.5z" />
    <glyph glyph-name="A" unicode="A" horiz-adv-x="814" 
d="M334 291h169l-28 215zM-68 0l506 733h189l114 -733h-202l-19 137h-287l-91 -137h-210z" />
    <glyph glyph-name="B" unicode="B" horiz-adv-x="754" 
d="M-2 0l195 728h299q135 0 197 -49t62 -127q0 -69 -43 -117.5t-119 -66.5q109 -41 109 -146q0 -100 -83.5 -161t-243.5 -61h-373zM304 437h141q56 0 85.5 20t29.5 57q0 56 -90 56h-131zM228 158h160q54 0 85 21.5t31 58.5q0 59 -91 59h-147z" />
    <glyph glyph-name="C" unicode="C" horiz-adv-x="765" 
d="M405 -14q-152 0 -248 87t-96 231q0 177 131 308q130 130 322 130q107 0 182.5 -47t111.5 -131l-166 -94q-51 96 -153 96q-85 0 -150 -65q-76 -76 -76 -184q0 -71 42.5 -113.5t110.5 -42.5q80 0 159 74l129 -118q-121 -131 -299 -131z" />
    <glyph glyph-name="D" unicode="D" horiz-adv-x="805" 
d="M-2 0l195 728h231q193 0 285 -94q79 -79 79 -213q0 -167 -120 -287q-134 -134 -381 -134h-289zM552 509q-45 47 -148 47h-63l-104 -384h72q138 0 215 77q65 65 65 158q0 65 -37 102z" />
    <glyph glyph-name="E" unicode="E" horiz-adv-x="705" 
d="M-2 0l195 728h575l-45 -165h-383l-32 -119h345l-41 -155h-346l-33 -124h389l-44 -165h-580z" />
    <glyph glyph-name="F" unicode="F" horiz-adv-x="690" 
d="M-2 0l195 728h577l-46 -171h-383l-35 -130h344l-43 -163h-345l-71 -264h-193z" />
    <glyph glyph-name="G" unicode="G" horiz-adv-x="806" 
d="M410 -14q-67 0 -128 19.5t-111.5 57t-80.5 100.5t-30 143q0 173 126 301q135 135 339 135q103 0 181 -35.5t120 -88.5l-132 -125q-76 76 -183 76t-179 -72q-74 -74 -74 -184q0 -75 48 -116.5t120 -41.5q58 0 104 21l30 102h-145l38 146h330l-103 -367q-125 -71 -270 -71z
" />
    <glyph glyph-name="H" unicode="H" horiz-adv-x="797" 
d="M-2 0l195 728h194l-74 -276h264l74 276h193l-195 -728h-194l75 280h-263l-76 -280h-193z" />
    <glyph glyph-name="I" unicode="I" horiz-adv-x="350" 
d="M3 0l196 728h193l-195 -728h-194z" />
    <glyph glyph-name="J" unicode="J" horiz-adv-x="603" 
d="M208 -12q-76 0 -141 33t-104 93l132 116q53 -71 120 -71q48 0 82 34q31 32 56 130l109 405h194l-119 -443q-22 -82 -46 -131t-61 -87q-81 -79 -222 -79z" />
    <glyph glyph-name="K" unicode="K" horiz-adv-x="762" 
d="M-2 0l195 728h194l-80 -298l313 298h248l-345 -316l163 -412h-209l-108 290l-132 -118l-46 -172h-193z" />
    <glyph glyph-name="L" unicode="L" horiz-adv-x="654" 
d="M-2 0l195 728h194l-149 -557h350l-46 -171h-544z" />
    <glyph glyph-name="M" unicode="M" horiz-adv-x="907" 
d="M-2 0l195 728h195l97 -287l253 287h216l-195 -728h-193l115 430l-266 -291h-4l-109 289l-115 -428h-189z" />
    <glyph glyph-name="N" unicode="N" horiz-adv-x="823" 
d="M-2 0l195 728h180l194 -417l112 417h191l-195 -728h-169l-201 431l-116 -431h-191z" />
    <glyph glyph-name="O" unicode="O" horiz-adv-x="860" 
d="M497 741q153 0 248.5 -92.5t95.5 -232.5q0 -84 -33.5 -163.5t-93.5 -139.5q-126 -126 -307 -126q-153 0 -248.5 92.5t-95.5 232.5q0 84 33.5 163.5t93.5 139.5q126 126 307 126zM425 161q81 0 144 61q35 35 55 83t20 96q0 74 -43.5 120t-121.5 46q-82 0 -145 -61
q-34 -35 -54 -83.5t-20 -95.5q0 -74 43.5 -120t121.5 -46z" />
    <glyph glyph-name="P" unicode="P" horiz-adv-x="710" 
d="M-2 0l195 728h237q169 0 245 -76q57 -57 57 -149q0 -116 -77 -193q-99 -99 -283 -99h-124l-57 -211h-193zM512 536q-27 27 -89 27h-81l-53 -198h83q87 0 132 43q29 31 29 74q0 33 -21 54z" />
    <glyph glyph-name="Q" unicode="Q" horiz-adv-x="860" 
d="M497 741q153 0 248.5 -92.5t95.5 -232.5q0 -171 -121 -295l57 -74l-142 -94l-47 73q-84 -39 -181 -39q-153 0 -248.5 92.5t-95.5 232.5q0 84 33.5 163.5t93.5 139.5q126 126 307 126zM425 158q31 0 60 9l-84 114l142 94l66 -103q35 61 35 127q0 76 -43.5 122t-121.5 46
q-82 0 -145 -61q-75 -77 -75 -181q0 -74 43 -120.5t123 -46.5z" />
    <glyph glyph-name="R" unicode="R" horiz-adv-x="760" 
d="M293 377h121q87 0 129 42q26 26 26 64q0 31 -20 50q-25 27 -92 27h-115zM251 223l-60 -223h-193l195 728h273q171 0 246 -75q57 -57 57 -149q0 -108 -69 -175q-54 -56 -154 -83l115 -246h-214l-100 223h-96z" />
    <glyph glyph-name="S" unicode="S" horiz-adv-x="679" 
d="M318 -12q-215 0 -334 133l128 128q104 -99 220 -99q39 0 63.5 16t24.5 43q0 23 -23.5 39.5t-98.5 45.5q-93 36 -140 80.5t-47 119.5q0 94 67 159q87 87 238 87q182 0 293 -109l-122 -132q-91 79 -188 79q-39 0 -62 -16t-23 -40q0 -23 22 -37t101 -46q92 -35 139 -80.5
t47 -120.5q0 -97 -67 -164q-86 -86 -238 -86z" />
    <glyph glyph-name="T" unicode="T" horiz-adv-x="676" 
d="M164 0l150 557h-219l46 171h631l-46 -171h-219l-149 -557h-194z" />
    <glyph glyph-name="U" unicode="U" horiz-adv-x="801" 
d="M361 -13q-137 0 -213.5 66.5t-76.5 185.5q0 55 17 117l100 372h195l-104 -387q-10 -38 -10 -70q0 -51 30 -80t86 -29q62 0 102 40q41 40 64 123l108 403h195l-116 -432q-40 -144 -113 -217q-92 -92 -264 -92z" />
    <glyph glyph-name="V" unicode="V" horiz-adv-x="775" 
d="M218 -5l-96 733h210l42 -468l295 468h217l-490 -733h-178z" />
    <glyph glyph-name="W" unicode="W" horiz-adv-x="1157" 
d="M178 -5l-48 733h199l15 -436l261 438h166l30 -438l248 436h211l-441 -733h-174l-34 425l-261 -425h-172z" />
    <glyph glyph-name="X" unicode="X" horiz-adv-x="748" 
d="M-68 0l354 380l-152 348h213l82 -211l185 211h236l-338 -363l160 -365h-213l-90 229l-201 -229h-236z" />
    <glyph glyph-name="Y" unicode="Y" horiz-adv-x="708" 
d="M173 0l76 283l-148 445h209l75 -278l225 278h232l-405 -466l-71 -262h-193z" />
    <glyph glyph-name="Z" unicode="Z" horiz-adv-x="720" 
d="M-29 0l38 141l473 423h-348l45 164h613l-38 -141l-474 -423h362l-44 -164h-627z" />
    <glyph glyph-name="bracketleft" unicode="[" horiz-adv-x="496" 
d="M-19 -135l232 863h355l-36 -132h-183l-161 -599h183l-35 -132h-355z" />
    <glyph glyph-name="backslash" unicode="\" horiz-adv-x="565" 
d="M336 -133l-215 963h153l215 -963h-153z" />
    <glyph glyph-name="bracketright" unicode="]" horiz-adv-x="496" 
d="M523 728l-232 -863h-355l36 132h183l161 599h-183l35 132h355z" />
    <glyph glyph-name="asciicircum" unicode="^" horiz-adv-x="530" 
d="M96 513l209 214h128l92 -214h-122l-54 105l-110 -105h-143z" />
    <glyph glyph-name="underscore" unicode="_" horiz-adv-x="634" 
d="M-116 -166l32 120h629l-33 -120h-628z" />
    <glyph glyph-name="grave" unicode="`" horiz-adv-x="530" 
d="M354 613l-112 131l177 59l59 -190h-124z" />
    <glyph glyph-name="a" unicode="a" horiz-adv-x="629" 
d="M252 107q40 0 74.5 30.5t46.5 73.5l5 19q-40 14 -80 14q-56 0 -84 -28q-21 -23 -21 -55q0 -24 16 -39t43 -15zM165 -11q-70 0 -114 41.5t-44 110.5q0 80 52 132q69 67 194 67q70 0 146 -22l2 6q5 18 5 37q0 61 -98 61q-81 0 -151 -28l-27 139q95 36 217 36t184 -46
t62 -131q0 -40 -12 -82l-82 -310h-186l16 62q-75 -73 -164 -73z" />
    <glyph glyph-name="b" unicode="b" horiz-adv-x="710" 
d="M368 -12q-112 0 -171 90l-21 -78h-189l203 759h189l-69 -257q73 71 159 71q88 0 145.5 -62.5t57.5 -169.5q0 -160 -104 -266q-87 -87 -200 -87zM337 146q53 0 93 40q50 52 50 128q0 47 -27.5 74.5t-72.5 27.5q-53 0 -94 -41q-51 -51 -51 -126q0 -46 28.5 -74.5
t73.5 -28.5z" />
    <glyph glyph-name="c" unicode="c" horiz-adv-x="594" 
d="M300 -13q-116 0 -189.5 67.5t-73.5 180.5q0 140 99 239t238 99q91 0 150.5 -40.5t85.5 -107.5l-147 -81q-34 71 -102 71q-48 0 -87 -39q-54 -54 -54 -133q0 -45 26 -72t66 -27q55 0 110 52l112 -104q-94 -105 -234 -105z" />
    <glyph glyph-name="d" unicode="d" horiz-adv-x="710" 
d="M329 145q53 0 94 41q52 50 52 126q0 46 -28.5 75t-73.5 29q-52 0 -93 -41q-51 -49 -51 -127q0 -47 27.5 -75t72.5 -28zM383 0l16 59q-74 -71 -159 -71q-87 0 -145 62.5t-58 169.5q0 162 105 267q88 86 199 86q113 0 172 -89l74 275h189l-204 -759h-189z" />
    <glyph glyph-name="e" unicode="e" horiz-adv-x="637" 
d="M587 226h-376v-1q3 -44 31.5 -70t79.5 -25q58 0 120 45l87 -107q-95 -81 -226 -81q-123 0 -194.5 67t-71.5 181q0 67 26.5 131t74.5 111q96 96 236 96q115 0 175.5 -65.5t60.5 -163.5q0 -60 -23 -118zM266 392q-26 -26 -41 -65h210q5 15 5 31q0 32 -20.5 53t-59.5 21
q-54 0 -94 -40z" />
    <glyph glyph-name="f" unicode="f" horiz-adv-x="443" 
d="M21 0l109 408h-66l42 154h65l4 13q21 86 67 132q60 59 171 59q67 0 123 -17l-37 -137q-36 12 -67 12q-57 0 -72 -54l-3 -11h128l-40 -151h-126l-109 -408h-189z" />
    <glyph glyph-name="g" unicode="g" horiz-adv-x="705" 
d="M326 188q56 0 96 40q44 44 44 102q0 41 -26.5 66.5t-71.5 25.5q-53 0 -93 -40q-44 -44 -44 -105q0 -42 26 -65.5t69 -23.5zM255 -168q-82 0 -161.5 21t-134.5 56l88 120q94 -59 199 -59q75 0 118 43q30 30 47 92l4 14q-77 -70 -172 -70q-82 0 -141.5 52t-59.5 143
q0 145 99 244q83 85 198 85q112 0 170 -93l22 82h189l-120 -448q-20 -76 -42.5 -121t-57.5 -80q-80 -81 -245 -81z" />
    <glyph glyph-name="h" unicode="h" horiz-adv-x="664" 
d="M-13 0l204 759h189l-70 -261q71 75 158 75q76 0 119.5 -44.5t43.5 -122.5q0 -41 -16 -101l-81 -305h-190l80 297q7 26 7 47q0 61 -66 61q-80 0 -108 -104l-81 -301h-189z" />
    <glyph glyph-name="i" unicode="i" horiz-adv-x="324" 
d="M153 615l39 144h198l-40 -144h-197zM-8 0l150 562h190l-151 -562h-189z" />
    <glyph glyph-name="j" unicode="j" horiz-adv-x="324" 
d="M154 615l39 144h197l-38 -144h-198zM-49 -170q-41 0 -84 8l34 129q13 -3 27 -3q30 0 48 18.5t29 61.5l139 518h189l-145 -542q-29 -105 -86 -147.5t-151 -42.5z" />
    <glyph glyph-name="k" unicode="k" horiz-adv-x="631" 
d="M-13 0l204 759h189l-102 -376l196 179h232l-261 -228l113 -334h-205l-64 207l-75 -65l-38 -142h-189z" />
    <glyph glyph-name="l" unicode="l" horiz-adv-x="324" 
d="M-8 0l204 759h189l-204 -759h-189z" />
    <glyph glyph-name="m" unicode="m" horiz-adv-x="1012" 
d="M-13 0l150 562h190l-17 -62q75 73 155 73q112 0 147 -98q85 98 203 98q79 0 122 -44.5t43 -121.5q0 -38 -17 -102l-81 -305h-190l80 297q7 26 7 47q0 61 -64 61q-78 0 -105 -104l-81 -301h-190l80 297q7 26 7 47q0 61 -63 61q-79 0 -106 -104l-81 -301h-189z" />
    <glyph glyph-name="n" unicode="n" horiz-adv-x="664" 
d="M-13 0l150 562h190l-17 -64q71 75 158 75q76 0 119.5 -44.5t43.5 -122.5q0 -41 -16 -101l-81 -305h-190l80 297q7 26 7 47q0 61 -66 61q-80 0 -108 -104l-81 -301h-189z" />
    <glyph glyph-name="o" unicode="o" horiz-adv-x="681" 
d="M368 573q126 0 200.5 -73.5t74.5 -186.5q0 -130 -97 -229q-97 -97 -233 -97q-126 0 -200 73.5t-74 187.5q0 133 97 228q97 97 232 97zM323 145q49 0 87 38q51 51 51 123q0 51 -28 80t-75 29q-49 0 -86 -37q-51 -49 -51 -124q0 -50 28 -79.5t74 -29.5z" />
    <glyph glyph-name="p" unicode="p" horiz-adv-x="710" 
d="M337 146q53 0 93 40q50 52 50 128q0 47 -27.5 74.5t-72.5 27.5q-53 0 -94 -41q-51 -51 -51 -126q0 -46 28.5 -74.5t73.5 -28.5zM368 -12q-112 0 -171 90l-66 -244h-189l195 728h190l-17 -60q73 71 159 71q88 0 145.5 -62.5t57.5 -169.5q0 -160 -104 -266
q-87 -87 -200 -87z" />
    <glyph glyph-name="q" unicode="q" horiz-adv-x="710" 
d="M240 -12q-87 0 -145 62.5t-58 169.5q0 162 105 267q88 86 199 86q113 0 172 -89l21 78h189l-195 -728h-190l61 225q-74 -71 -159 -71zM329 145q53 0 94 41q52 50 52 126q0 46 -28.5 75t-73.5 29q-52 0 -93 -41q-51 -49 -51 -127q0 -47 27.5 -75t72.5 -28z" />
    <glyph glyph-name="r" unicode="r" horiz-adv-x="455" 
d="M-13 0l150 562h190l-31 -114q89 131 212 123l-54 -199h-15q-163 0 -216 -197l-47 -175h-189z" />
    <glyph glyph-name="s" unicode="s" horiz-adv-x="539" 
d="M241 -13q-77 0 -149.5 26t-122.5 72l97 111q39 -36 89 -55.5t95 -19.5q53 0 53 37q0 14 -16 25t-58 28q-79 31 -119.5 66.5t-40.5 96.5q0 87 65 143t176 56q71 0 135 -22.5t104 -56.5l-93 -114q-79 60 -156 60q-52 0 -52 -36q0 -14 16.5 -25t60.5 -29q75 -30 116 -65.5
t41 -97.5q0 -87 -64 -143.5t-177 -56.5z" />
    <glyph glyph-name="t" unicode="t" horiz-adv-x="454" 
d="M223 -11q-82 0 -123.5 33.5t-41.5 94.5q0 32 11 73l58 218h-67l42 154h66l39 142h189l-38 -142h131l-42 -154h-131l-50 -189q-6 -26 -6 -33q0 -34 45 -34q33 0 76 15l-42 -157q-57 -21 -116 -21z" />
    <glyph glyph-name="u" unicode="u" horiz-adv-x="664" 
d="M196 -12q-76 0 -119.5 45t-43.5 122q0 40 16 102l82 305h189l-80 -297q-7 -26 -7 -47q0 -61 67 -61q80 0 107 104l81 301h189l-150 -562h-189l16 63q-73 -75 -158 -75z" />
    <glyph glyph-name="v" unicode="v" horiz-adv-x="650" 
d="M162 -4l-72 566h195l21 -337l200 337h202l-374 -566h-172z" />
    <glyph glyph-name="w" unicode="w" horiz-adv-x="903" 
d="M113 -4l-20 566h185l-2 -295l170 297h157l11 -298l159 296h185l-325 -566h-164l-13 302l-178 -302h-165z" />
    <glyph glyph-name="x" unicode="x" horiz-adv-x="620" 
d="M293 562l52 -141l117 141h215l-262 -285l119 -277h-197l-54 147l-124 -147h-216l270 292l-118 270h198z" />
    <glyph glyph-name="y" unicode="y" horiz-adv-x="651" 
d="M169 5l-72 557h192l24 -347l193 347h200l-347 -562q-60 -93 -118.5 -131.5t-139.5 -38.5q-86 0 -146 41l88 138q37 -27 74 -27q29 0 52 23z" />
    <glyph glyph-name="z" unicode="z" horiz-adv-x="590" 
d="M-33 0l33 126l338 285h-252l40 151h499l-34 -126l-338 -285h264l-41 -151h-509z" />
    <glyph glyph-name="braceleft" unicode="{" horiz-adv-x="525" 
d="M337 -147q-118 15 -167 53.5t-49 100.5q0 35 18 86q16 48 16 78q0 33 -18 48t-72 15h-28l34 129h29q78 0 108 31q30 30 43 114q6 39 10.5 58.5t18.5 51.5t36 54q72 71 253 72l13 -114q-92 -8 -129 -44q-14 -14 -23.5 -36.5t-12 -37.5t-7.5 -49q-13 -92 -48 -127
q-41 -41 -123 -50q89 -16 89 -98q0 -34 -16 -75q-16 -53 -16 -71q0 -32 19.5 -50.5t75.5 -33.5z" />
    <glyph glyph-name="bar" unicode="|" horiz-adv-x="378" 
d="M6 -133l258 963h145l-259 -963h-144z" />
    <glyph glyph-name="braceright" unicode="}" horiz-adv-x="525" 
d="M198 744q118 -15 167 -53.5t49 -100.5q0 -35 -18 -86q-16 -48 -16 -78q0 -33 18 -48t72 -15h28l-34 -129h-29q-78 0 -108 -31q-30 -30 -43 -114q-6 -39 -10.5 -58.5t-18.5 -51.5t-36 -54q-72 -71 -253 -72l-13 114q94 9 129 44q14 14 23.5 36.5t12 37.5t7.5 49
q13 92 48 127q41 41 123 50q-89 16 -89 98q0 34 16 75q16 53 16 71q0 32 -19.5 50.5t-75.5 33.5z" />
    <glyph glyph-name="asciitilde" unicode="~" horiz-adv-x="536" 
d="M141 226l-90 42q29 70 72 108.5t93 38.5q42 0 86 -31q35 -26 54 -26q36 0 70 59l90 -42q-29 -70 -72.5 -108.5t-93.5 -38.5q-39 0 -86 32q-37 26 -54 26q-35 0 -69 -60z" />
    <glyph glyph-name="uni00A0" unicode="&#xa0;" horiz-adv-x="303" 
 />
    <glyph glyph-name="exclamdown" unicode="&#xa1;" horiz-adv-x="346" 
d="M392 728l-47 -175h-198l47 175h198zM279 489l-52 -414l-21 -75h-217l21 75l169 414h100z" />
    <glyph glyph-name="cent" unicode="&#xa2;" horiz-adv-x="619" 
d="M232 341q0 -55 36 -88l103 263h-1q-49 -6 -85 -42q-53 -53 -53 -133zM451 734h113l-37 -95q86 -37 121 -124l-138 -76q-17 38 -45 57l-106 -271h1q60 4 113 56l105 -101q-89 -102 -231 -102q-27 0 -39 1l-34 -85h-113l44 112q-67 30 -104 88.5t-37 138.5q0 137 95 234
q97 97 242 97q15 0 22 -1z" />
    <glyph glyph-name="sterling" unicode="&#xa3;" horiz-adv-x="669" 
d="M-16 0l31 117l86 29l36 130h-79l37 138h79l17 68q30 116 94 180q78 78 209 78q76 0 133.5 -30.5t89.5 -80.5l-134 -116q-39 55 -98 55q-39 0 -67 -28q-24 -23 -39 -74l-14 -52h222l-37 -138h-222l-32 -121h301l-42 -155h-571z" />
    <glyph glyph-name="yen" unicode="&#xa5;" horiz-adv-x="755" 
d="M207 0l26 97h-192l33 121h191l14 55h-191l33 122h146l-128 333h205l78 -246l204 246h228l-305 -333h144l-32 -122h-191l-15 -55h191l-32 -121h-192l-26 -97h-189z" />
    <glyph glyph-name="section" unicode="&#xa7;" horiz-adv-x="662" 
d="M227 386q0 -17 20 -29t70 -29q80 -26 107 -26q23 0 39.5 11.5t16.5 29.5t-20 30t-70 29q-76 25 -107 25q-23 0 -39.5 -11.5t-16.5 -29.5zM635 376q0 -59 -39 -91.5t-93 -43.5q34 -37 34 -85q0 -72 -66 -120t-174 -48q-81 0 -151 26.5t-111 71.5l101 104q33 -30 78.5 -50
t87.5 -20q58 0 58 32q0 15 -20.5 25.5t-81.5 28.5q-90 26 -138 59t-48 89q0 59 39 91t93 44q-34 34 -34 85q0 72 66 120t174 48q81 0 151 -26.5t111 -71.5l-101 -104q-33 30 -78.5 50t-87.5 20q-58 0 -58 -33q0 -15 20.5 -25t81.5 -28q91 -28 138.5 -60t47.5 -88z" />
    <glyph glyph-name="dieresis" unicode="&#xa8;" horiz-adv-x="530" 
d="M383 613l40 146h168l-40 -146h-168zM156 613l40 146h168l-40 -146h-168z" />
    <glyph glyph-name="copyright" unicode="&#xa9;" horiz-adv-x="873" 
d="M832 411q0 -85 -32.5 -165t-92.5 -140q-120 -120 -289 -120q-150 0 -242 94.5t-92 236.5q0 85 32.5 165t92.5 140q120 120 289 120q150 0 242 -94.5t92 -236.5zM128 320q0 -126 78.5 -209t212.5 -83q149 0 254 103q115 115 115 278q0 125 -78.5 208t-212.5 83
q-149 0 -254 -103q-115 -115 -115 -277zM437 162q-83 0 -134 47.5t-51 127.5q0 98 69 167q72 72 174 72q124 0 166 -98l-92 -52q-28 52 -84 52q-47 0 -84 -35q-39 -41 -39 -99q0 -40 23 -62t60 -22q45 0 88 40l72 -66q-67 -72 -168 -72z" />
    <glyph glyph-name="ordfeminine" unicode="&#xaa;" 
d="M243 479q22 0 41.5 16.5t25.5 40.5l2 10q-23 9 -45 9q-25 0 -40.5 -12.5t-15.5 -33.5q0 -13 9 -21.5t23 -8.5zM196 414q-39 0 -63 23t-24 61q0 51 37 80.5t98 29.5q38 0 80 -14l2 7q3 7 3 17q0 35 -54 35q-41 0 -82 -15l-15 76q52 19 119 19q134 0 134 -97q0 -22 -6 -45
l-46 -170h-103l10 34q-43 -41 -90 -41zM53 283l22 77h294l-21 -77h-295z" />
    <glyph glyph-name="guillemotleft" unicode="&#xab;" horiz-adv-x="668" 
d="M165 33l-125 230l11 42l242 222l91 -90l-162 -173l73 -174zM440 30l-129 238l3 10l262 243l92 -91l-167 -177l69 -165z" />
    <glyph glyph-name="registered" unicode="&#xae;" horiz-adv-x="393" 
d="M290 738q72 0 116.5 -45.5t44.5 -113.5q0 -87 -60 -145q-58 -60 -140 -60q-72 0 -116.5 46t-44.5 114q0 86 59 145t141 59zM253 394q71 0 122 51q55 57 55 132q0 61 -38.5 101.5t-104.5 40.5q-70 0 -121 -51q-55 -55 -55 -132q0 -61 38.5 -101.5t103.5 -40.5zM249 565h28
q22 0 31 9q6 6 6 15q0 18 -25 18h-28zM238 520l-15 -56h-58l51 192h76q80 0 80 -60q0 -50 -55 -68l27 -64h-61l-23 56h-22z" />
    <glyph glyph-name="macron" unicode="&#xaf;" horiz-adv-x="530" 
d="M162 618l31 117h387l-31 -117h-387z" />
    <glyph glyph-name="degree" unicode="&#xb0;" horiz-adv-x="479" 
d="M303 735q79 0 126 -46.5t47 -117.5q0 -87 -61 -146q-59 -59 -142 -59q-78 0 -125 47t-47 118q0 87 61 146q58 58 141 58zM278 459q36 0 64 26q33 35 33 81q0 34 -21.5 55.5t-55.5 21.5q-37 0 -63 -26q-33 -35 -33 -81q0 -34 21 -55.5t55 -21.5z" />
    <glyph glyph-name="plusminus" unicode="&#xb1;" horiz-adv-x="676" 
d="M240 219l48 173l-188 -1l41 153l188 -1l45 174h161l-47 -174l187 1l-41 -153l-187 1l-45 -173h-162zM-3 0l37 143h534l-39 -143h-532z" />
    <glyph glyph-name="two.sup" unicode="&#xb2;" 
d="M91 434l23 88l205 138q49 34 49 61q0 34 -43 34q-42 0 -97 -50l-60 70q75 77 173 77q65 0 103 -31t38 -82q0 -43 -25.5 -76.5t-88.5 -71.5l-104 -65h170l-25 -92h-318z" />
    <glyph glyph-name="three.sup" unicode="&#xb3;" 
d="M263 423q-109 0 -165 71l71 67q46 -46 97 -46q30 0 50 15t20 36q0 41 -70 41h-38l-3 58l127 86h-161l24 91h295l-22 -80l-136 -90q44 -8 69 -32.5t25 -65.5q0 -67 -53.5 -109t-129.5 -42z" />
    <glyph glyph-name="acute" unicode="&#xb4;" horiz-adv-x="530" 
d="M215 613l162 190l171 -59l-185 -131h-148z" />
    <glyph glyph-name="mu" unicode="&#xb5;" horiz-adv-x="732" 
d="M127 -166h-184l194 728h190l-78 -291q-8 -32 -8 -53q0 -31 18.5 -48.5t52.5 -17.5q78 0 104 94l84 316h190l-94 -349q-6 -23 -6 -38q0 -33 49 -33q11 0 33 2l-38 -139q-46 -13 -91 -13q-100 0 -126 75q-48 -72 -127 -72q-87 0 -118 82h-3q0 -87 -18 -154z" />
    <glyph glyph-name="paragraph" unicode="&#xb6;" horiz-adv-x="631" 
d="M290 0l59 220q-148 7 -215 73q-53 54 -53 146q0 116 76 192q97 97 291 97h230l-195 -728h-193z" />
    <glyph glyph-name="periodcentered" unicode="&#xb7;" horiz-adv-x="328" 
d="M47 227l53 195h198l-53 -195h-198z" />
    <glyph glyph-name="cedilla" unicode="&#xb8;" horiz-adv-x="530" 
d="M170 -180l-138 64l129 131h131z" />
    <glyph glyph-name="one.sup" unicode="&#xb9;" horiz-adv-x="342" 
d="M183 434l82 304l-85 -25l-5 88l148 47h80l-110 -414h-110z" />
    <glyph glyph-name="ordmasculine" unicode="&#xba;" horiz-adv-x="428" 
d="M444 590q0 -72 -54 -126q-52 -52 -127 -52q-69 0 -110 40.5t-41 103.5q0 73 54 125q51 53 127 53q69 0 110 -40.5t41 -103.5zM212 559q0 -27 15.5 -44t40.5 -17q28 0 49 21q27 29 27 68q0 26 -15.5 43t-40.5 17q-30 0 -49 -21q-27 -25 -27 -67zM56 283l21 77h293l-21 -77
h-293z" />
    <glyph glyph-name="guillemotright" unicode="&#xbb;" horiz-adv-x="668" 
d="M227 527l129 -237l-3 -10l-262 -243l-92 91l167 177l-68 165zM502 525l126 -230l-12 -42l-242 -223l-91 91l162 173l-72 174z" />
    <glyph glyph-name="onequarter" unicode="&#xbc;" horiz-adv-x="867" 
d="M131 320l81 304l-84 -26l-5 89l147 47h81l-110 -414h-110zM31 0l366 381l321 347h93l-366 -381l-321 -347h-93zM581 -1l21 78h-187l13 93l246 244h122l-68 -255h51l-22 -82h-52l-20 -78h-104zM519 156h106l39 145h-1z" />
    <glyph glyph-name="onehalf" unicode="&#xbd;" horiz-adv-x="867" 
d="M131 320l81 304l-84 -26l-5 89l147 47h81l-110 -414h-110zM21 0l366 381l321 347h93l-366 -381l-321 -347h-93zM407 0l23 88l205 138q49 34 49 61q0 34 -43 34q-42 0 -97 -50l-60 70q75 77 173 77q65 0 103 -31t38 -82q0 -43 -25.5 -76.5t-88.5 -71.5l-104 -65h170
l-25 -92h-318z" />
    <glyph glyph-name="threequarters" unicode="&#xbe;" horiz-adv-x="945" 
d="M104 0l366 381l321 347h93l-366 -381l-321 -347h-93zM212 309q-108 0 -166 71l72 67q43 -46 97 -46q30 0 50 15t20 36q0 41 -70 41h-38l-3 58l127 86h-161l24 91h295l-22 -80l-136 -90q94 -16 94 -99q0 -66 -53.5 -108t-129.5 -42zM659 -1l21 78h-187l13 93l246 244h122
l-68 -255h51l-22 -82h-52l-20 -78h-104zM597 156h106l39 145h-1z" />
    <glyph glyph-name="questiondown" unicode="&#xbf;" horiz-adv-x="573" 
d="M539 728l-47 -175h-198l48 175h197zM436 489l-19 -174l-9 -7q-193 -17 -193 -94q0 -54 73 -54q72 0 142 57l82 -134q-104 -93 -256 -93q-107 0 -171 54.5t-64 135.5q0 90 66 151t197 81l31 77h121z" />
    <glyph glyph-name="Agrave" unicode="&#xc0;" horiz-adv-x="814" 
d="M475 789l-122 110l181 57l70 -167h-129zM334 291h169l-28 215zM-68 0l506 733h189l114 -733h-202l-19 137h-287l-91 -137h-210z" />
    <glyph glyph-name="Aacute" unicode="&#xc1;" horiz-adv-x="814" 
d="M471 789l161 167l175 -57l-181 -110h-155zM334 291h169l-28 215zM-68 0l506 733h189l114 -733h-202l-19 137h-287l-91 -137h-210z" />
    <glyph glyph-name="Acircumflex" unicode="&#xc2;" horiz-adv-x="814" 
d="M324 786l171 155h170l88 -155h-123l-67 56l-97 -56h-142zM334 291h169l-28 215zM-68 0l506 733h189l114 -733h-202l-19 137h-287l-91 -137h-210z" />
    <glyph glyph-name="Atilde" unicode="&#xc3;" horiz-adv-x="814" 
d="M422 781l-93 28q31 78 66 114t86 36q36 0 101 -23q48 -18 62 -18q21 0 35 11.5t29 37.5l93 -28q-30 -78 -64.5 -114t-86.5 -36q-36 0 -101 23q-48 18 -62 18q-21 0 -35 -11t-30 -38zM334 291h169l-28 215zM-68 0l506 733h189l114 -733h-202l-19 137h-287l-91 -137h-210z
" />
    <glyph glyph-name="Adieresis" unicode="&#xc4;" horiz-adv-x="814" 
d="M580 789l39 142h168l-39 -142h-168zM351 789l39 142h167l-39 -142h-167zM334 291h169l-28 215zM-68 0l506 733h189l114 -733h-202l-19 137h-287l-91 -137h-210z" />
    <glyph glyph-name="Aring" unicode="&#xc5;" horiz-adv-x="814" 
d="M533 704q37 0 60 23.5t23 51.5q0 26 -18 42t-47 16q-37 0 -60 -23.5t-23 -52.5q0 -26 18 -41.5t47 -15.5zM334 291h169l-28 215zM-68 0l482 697q-17 26 -17 57q0 59 45 101.5t115 42.5q56 0 93 -32.5t37 -78.5q0 -64 -52 -108l106 -679h-202l-19 137h-287l-91 -137h-210z
" />
    <glyph glyph-name="AE" unicode="&#xc6;" horiz-adv-x="1128" 
d="M365 291h158l74 280h-15zM-71 0l576 728h686l-44 -165h-363l-32 -119h325l-42 -155h-324l-34 -124h368l-44 -165h-557l37 137h-235l-107 -137h-210z" />
    <glyph glyph-name="Ccedilla" unicode="&#xc7;" horiz-adv-x="765" 
d="M305 -180l-138 64l117 119q-103 31 -163 109.5t-60 191.5q0 177 131 308q130 130 322 130q107 0 182.5 -47t111.5 -131l-166 -94q-51 96 -153 96q-85 0 -150 -65q-76 -76 -76 -184q0 -71 42.5 -113.5t110.5 -42.5q80 0 159 74l129 -118q-121 -130 -294 -131h-1z" />
    <glyph glyph-name="Egrave" unicode="&#xc8;" horiz-adv-x="705" 
d="M419 779l-122 110l181 57l70 -167h-129zM-2 0l195 728h575l-45 -165h-383l-32 -119h345l-41 -155h-346l-33 -124h389l-44 -165h-580z" />
    <glyph glyph-name="Eacute" unicode="&#xc9;" horiz-adv-x="705" 
d="M414 779l161 167l175 -57l-181 -110h-155zM-2 0l195 728h575l-45 -165h-383l-32 -119h345l-41 -155h-346l-33 -124h389l-44 -165h-580z" />
    <glyph glyph-name="Ecircumflex" unicode="&#xca;" horiz-adv-x="705" 
d="M269 779l171 155h170l88 -155h-123l-67 56l-97 -56h-142zM-2 0l195 728h575l-45 -165h-383l-32 -119h345l-41 -155h-346l-33 -124h389l-44 -165h-580z" />
    <glyph glyph-name="Edieresis" unicode="&#xcb;" horiz-adv-x="705" 
d="M524 779l39 142h168l-39 -142h-168zM295 779l39 142h167l-39 -142h-167zM-2 0l195 728h575l-45 -165h-383l-32 -119h345l-41 -155h-346l-33 -124h389l-44 -165h-580z" />
    <glyph glyph-name="Igrave" unicode="&#xcc;" horiz-adv-x="350" 
d="M234 779l-122 110l181 57l70 -167h-129zM3 0l196 728h193l-195 -728h-194z" />
    <glyph glyph-name="Iacute" unicode="&#xcd;" horiz-adv-x="350" 
d="M229 779l161 167l175 -57l-181 -110h-155zM3 0l196 728h193l-195 -728h-194z" />
    <glyph glyph-name="Icircumflex" unicode="&#xce;" horiz-adv-x="350" 
d="M84 779l171 155h170l88 -155h-123l-67 56l-97 -56h-142zM3 0l196 728h193l-195 -728h-194z" />
    <glyph glyph-name="Idieresis" unicode="&#xcf;" horiz-adv-x="350" 
d="M339 779l39 142h168l-39 -142h-168zM110 779l39 142h167l-39 -142h-167zM3 0l196 728h193l-195 -728h-194z" />
    <glyph glyph-name="Eth" unicode="&#xd0;" horiz-adv-x="843" 
d="M40 0l80 301h-87l35 131h87l80 296h226q193 0 285 -94q79 -79 79 -213q0 -168 -119 -287q-136 -134 -382 -134h-284zM443 302h-134l-36 -135h73q140 0 221 79q66 68 66 163q0 64 -38 104q-50 48 -151 48h-65l-35 -131h134z" />
    <glyph glyph-name="Ntilde" unicode="&#xd1;" horiz-adv-x="823" 
d="M418 771l-93 28q31 78 66 114t86 36q36 0 101 -23q48 -18 62 -18q21 0 35 11.5t29 37.5l93 -28q-30 -78 -64.5 -114t-86.5 -36q-36 0 -101 23q-48 18 -62 18q-21 0 -35 -11t-30 -38zM-2 0l195 728h180l194 -417l112 417h191l-195 -728h-169l-201 431l-116 -431h-191z" />
    <glyph glyph-name="Ograve" unicode="&#xd2;" horiz-adv-x="860" 
d="M484 789l-122 110l181 57l70 -167h-129zM497 741q153 0 248.5 -92.5t95.5 -232.5q0 -84 -33.5 -163.5t-93.5 -139.5q-126 -126 -307 -126q-153 0 -248.5 92.5t-95.5 232.5q0 84 33.5 163.5t93.5 139.5q126 126 307 126zM425 161q81 0 144 61q35 35 55 83t20 96
q0 74 -43.5 120t-121.5 46q-82 0 -145 -61q-34 -35 -54 -83.5t-20 -95.5q0 -74 43.5 -120t121.5 -46z" />
    <glyph glyph-name="Oacute" unicode="&#xd3;" horiz-adv-x="860" 
d="M470 789l161 167l175 -57l-181 -110h-155zM497 741q153 0 248.5 -92.5t95.5 -232.5q0 -84 -33.5 -163.5t-93.5 -139.5q-126 -126 -307 -126q-153 0 -248.5 92.5t-95.5 232.5q0 84 33.5 163.5t93.5 139.5q126 126 307 126zM425 161q81 0 144 61q35 35 55 83t20 96
q0 74 -43.5 120t-121.5 46q-82 0 -145 -61q-34 -35 -54 -83.5t-20 -95.5q0 -74 43.5 -120t121.5 -46z" />
    <glyph glyph-name="Ocircumflex" unicode="&#xd4;" horiz-adv-x="860" 
d="M334 789l171 155h170l88 -155h-123l-67 56l-97 -56h-142zM497 741q153 0 248.5 -92.5t95.5 -232.5q0 -84 -33.5 -163.5t-93.5 -139.5q-126 -126 -307 -126q-153 0 -248.5 92.5t-95.5 232.5q0 84 33.5 163.5t93.5 139.5q126 126 307 126zM425 161q81 0 144 61q35 35 55 83
t20 96q0 74 -43.5 120t-121.5 46q-82 0 -145 -61q-34 -35 -54 -83.5t-20 -95.5q0 -74 43.5 -120t121.5 -46z" />
    <glyph glyph-name="Otilde" unicode="&#xd5;" horiz-adv-x="860" 
d="M431 781l-93 28q31 78 66 114t86 36q36 0 101 -23q48 -18 62 -18q21 0 35 11.5t29 37.5l93 -28q-30 -78 -65 -114t-86 -36q-36 0 -101 23q-48 18 -62 18q-21 0 -35 -11t-30 -38zM497 741q153 0 248.5 -92.5t95.5 -232.5q0 -84 -33.5 -163.5t-93.5 -139.5
q-126 -126 -307 -126q-153 0 -248.5 92.5t-95.5 232.5q0 84 33.5 163.5t93.5 139.5q126 126 307 126zM425 161q81 0 144 61q35 35 55 83t20 96q0 74 -43.5 120t-121.5 46q-82 0 -145 -61q-34 -35 -54 -83.5t-20 -95.5q0 -74 43.5 -120t121.5 -46z" />
    <glyph glyph-name="Odieresis" unicode="&#xd6;" horiz-adv-x="860" 
d="M588 789l39 142h168l-39 -142h-168zM359 789l39 142h167l-39 -142h-167zM497 741q153 0 248.5 -92.5t95.5 -232.5q0 -84 -33.5 -163.5t-93.5 -139.5q-126 -126 -307 -126q-153 0 -248.5 92.5t-95.5 232.5q0 84 33.5 163.5t93.5 139.5q126 126 307 126zM425 161
q81 0 144 61q35 35 55 83t20 96q0 74 -43.5 120t-121.5 46q-82 0 -145 -61q-34 -35 -54 -83.5t-20 -95.5q0 -74 43.5 -120t121.5 -46z" />
    <glyph glyph-name="multiply" unicode="&#xd7;" horiz-adv-x="676" 
d="M146 95l-95 126l199 154l-115 154l139 108l110 -158l198 159l95 -127l-200 -154l116 -153l-139 -108l-111 157z" />
    <glyph glyph-name="Oslash" unicode="&#xd8;" horiz-adv-x="860" 
d="M497 741q128 0 222 -71l69 63h153l-152 -138q52 -80 52 -179q0 -84 -33.5 -163.5t-93.5 -139.5q-126 -126 -307 -126q-130 0 -222 70l-69 -62h-153l152 137q-52 78 -52 180q0 84 33.5 163.5t93.5 139.5q126 126 307 126zM254 326q0 -36 10 -65l314 286q-42 26 -99 26
q-85 0 -148 -63q-36 -36 -56.5 -85.5t-20.5 -98.5zM424 155q87 0 148 64q36 35 56.5 84t20.5 99q0 35 -10 64l-313 -285q40 -26 98 -26z" />
    <glyph glyph-name="Ugrave" unicode="&#xd9;" horiz-adv-x="801" 
d="M457 779l-122 110l181 57l70 -167h-129zM361 -13q-137 0 -213.5 66.5t-76.5 185.5q0 55 17 117l100 372h195l-104 -387q-10 -38 -10 -70q0 -51 30 -80t86 -29q62 0 102 40q41 40 64 123l108 403h195l-116 -432q-40 -144 -113 -217q-92 -92 -264 -92z" />
    <glyph glyph-name="Uacute" unicode="&#xda;" horiz-adv-x="801" 
d="M452 779l161 167l175 -57l-181 -110h-155zM361 -13q-137 0 -213.5 66.5t-76.5 185.5q0 55 17 117l100 372h195l-104 -387q-10 -38 -10 -70q0 -51 30 -80t86 -29q62 0 102 40q41 40 64 123l108 403h195l-116 -432q-40 -144 -113 -217q-92 -92 -264 -92z" />
    <glyph glyph-name="Ucircumflex" unicode="&#xdb;" horiz-adv-x="801" 
d="M307 779l171 155h170l88 -155h-123l-67 56l-97 -56h-142zM361 -13q-137 0 -213.5 66.5t-76.5 185.5q0 55 17 117l100 372h195l-104 -387q-10 -38 -10 -70q0 -51 30 -80t86 -29q62 0 102 40q41 40 64 123l108 403h195l-116 -432q-40 -144 -113 -217q-92 -92 -264 -92z" />
    <glyph glyph-name="Udieresis" unicode="&#xdc;" horiz-adv-x="801" 
d="M562 779l39 142h168l-39 -142h-168zM333 779l39 142h167l-39 -142h-167zM361 -13q-137 0 -213.5 66.5t-76.5 185.5q0 55 17 117l100 372h195l-104 -387q-10 -38 -10 -70q0 -51 30 -80t86 -29q62 0 102 40q41 40 64 123l108 403h195l-116 -432q-40 -144 -113 -217
q-92 -92 -264 -92z" />
    <glyph glyph-name="Yacute" unicode="&#xdd;" horiz-adv-x="708" 
d="M394 779l161 167l175 -57l-181 -110h-155zM173 0l76 283l-148 445h209l75 -278l225 278h232l-405 -466l-71 -262h-193z" />
    <glyph glyph-name="Thorn" unicode="&#xde;" horiz-adv-x="721" 
d="M-2 0l195 728h194l-27 -104h45q167 0 243 -76q57 -57 57 -147q0 -115 -76 -191q-99 -99 -281 -99h-127l-30 -111h-193zM263 267h83q89 0 132 43q29 29 29 74q0 32 -21 53q-27 28 -89 28h-81z" />
    <glyph glyph-name="germandbls" unicode="&#xdf;" horiz-adv-x="673" 
d="M247 -2l37 138q77 -1 113.5 27.5t36.5 71.5q0 67 -103 77l28 105q130 27 130 122q0 33 -20 52t-50 19q-78 0 -109 -115l-132 -495h-189l135 503q34 125 97 188q76 76 205 76q110 0 175 -56t65 -146q0 -76 -42 -129t-121 -76q51 -19 80.5 -55t29.5 -86q0 -104 -93 -167.5
t-273 -53.5z" />
    <glyph glyph-name="agrave" unicode="&#xe0;" horiz-adv-x="629" 
d="M333 616l-112 131l177 59l59 -190h-124zM252 107q40 0 74.5 30.5t46.5 73.5l5 19q-40 14 -80 14q-56 0 -84 -28q-21 -23 -21 -55q0 -24 16 -39t43 -15zM165 -11q-70 0 -114 41.5t-44 110.5q0 80 52 132q69 67 194 67q70 0 146 -22l2 6q5 18 5 37q0 61 -98 61
q-81 0 -151 -28l-27 139q95 36 217 36t184 -46t62 -131q0 -40 -12 -82l-82 -310h-186l16 62q-75 -73 -164 -73z" />
    <glyph glyph-name="aacute" unicode="&#xe1;" horiz-adv-x="629" 
d="M326 616l162 190l171 -59l-185 -131h-148zM252 107q40 0 74.5 30.5t46.5 73.5l5 19q-40 14 -80 14q-56 0 -84 -28q-21 -23 -21 -55q0 -24 16 -39t43 -15zM165 -11q-70 0 -114 41.5t-44 110.5q0 80 52 132q69 67 194 67q70 0 146 -22l2 6q5 18 5 37q0 61 -98 61
q-81 0 -151 -28l-27 139q95 36 217 36t184 -46t62 -131q0 -40 -12 -82l-82 -310h-186l16 62q-75 -73 -164 -73z" />
    <glyph glyph-name="acircumflex" unicode="&#xe2;" horiz-adv-x="629" 
d="M182 616l177 169h158l87 -169h-117l-69 64l-104 -64h-132zM252 107q40 0 74.5 30.5t46.5 73.5l5 19q-40 14 -80 14q-56 0 -84 -28q-21 -23 -21 -55q0 -24 16 -39t43 -15zM165 -11q-70 0 -114 41.5t-44 110.5q0 80 52 132q69 67 194 67q70 0 146 -22l2 6q5 18 5 37
q0 61 -98 61q-81 0 -151 -28l-27 139q95 36 217 36t184 -46t62 -131q0 -40 -12 -82l-82 -310h-186l16 62q-75 -73 -164 -73z" />
    <glyph glyph-name="atilde" unicode="&#xe3;" horiz-adv-x="629" 
d="M554 794l93 -29q-31 -79 -65 -114t-86 -35q-35 0 -93 22q-45 18 -60 18q-21 0 -34.5 -11t-28.5 -38l-93 29q31 78 64.5 113.5t85.5 35.5q36 0 94 -22q43 -18 60 -18q21 0 34 11t29 38zM252 107q40 0 74.5 30.5t46.5 73.5l5 19q-40 14 -80 14q-56 0 -84 -28
q-21 -23 -21 -55q0 -24 16 -39t43 -15zM165 -11q-70 0 -114 41.5t-44 110.5q0 80 52 132q69 67 194 67q70 0 146 -22l2 6q5 18 5 37q0 61 -98 61q-81 0 -151 -28l-27 139q95 36 217 36t184 -46t62 -131q0 -40 -12 -82l-82 -310h-186l16 62q-75 -73 -164 -73z" />
    <glyph glyph-name="adieresis" unicode="&#xe4;" horiz-adv-x="629" 
d="M430 616l40 146h168l-40 -146h-168zM203 616l40 146h168l-40 -146h-168zM252 107q40 0 74.5 30.5t46.5 73.5l5 19q-40 14 -80 14q-56 0 -84 -28q-21 -23 -21 -55q0 -24 16 -39t43 -15zM165 -11q-70 0 -114 41.5t-44 110.5q0 80 52 132q69 67 194 67q70 0 146 -22l2 6
q5 18 5 37q0 61 -98 61q-81 0 -151 -28l-27 139q95 36 217 36t184 -46t62 -131q0 -40 -12 -82l-82 -310h-186l16 62q-75 -73 -164 -73z" />
    <glyph glyph-name="aring" unicode="&#xe5;" horiz-adv-x="629" 
d="M571 763q0 -60 -42.5 -103.5t-104.5 -43.5q-55 0 -89 32.5t-34 81.5q0 59 42.5 102.5t104.5 43.5q55 0 89 -32t34 -81zM369 735q0 -27 16.5 -43.5t41.5 -16.5q32 0 54 25t22 58q0 27 -16.5 43.5t-41.5 16.5q-32 0 -54 -25t-22 -58zM252 107q40 0 74.5 30.5t46.5 73.5
l5 19q-40 14 -80 14q-56 0 -84 -28q-21 -23 -21 -55q0 -24 16 -39t43 -15zM165 -11q-70 0 -114 41.5t-44 110.5q0 80 52 132q69 67 194 67q70 0 146 -22l2 6q5 18 5 37q0 61 -98 61q-81 0 -151 -28l-27 139q95 36 217 36t184 -46t62 -131q0 -40 -12 -82l-82 -310h-186l16 62
q-75 -73 -164 -73z" />
    <glyph glyph-name="ae" unicode="&#xe6;" horiz-adv-x="981" 
d="M610 392q-26 -26 -41 -65h210q5 15 5 31q0 32 -20.5 53t-59.5 21q-54 0 -94 -40zM644 -13q-145 0 -213 103q-102 -101 -244 -101q-84 0 -132 41t-48 111q0 80 52 132q69 67 194 67q70 0 146 -22l2 6q5 18 5 37q0 61 -98 61q-81 0 -151 -28l-27 139q95 36 217 36
q132 0 183 -70q87 74 195 74q110 0 169.5 -65.5t59.5 -163.5q0 -56 -23 -118h-376v-1q3 -44 31.5 -70t79.5 -25q58 0 120 45l87 -107q-91 -81 -229 -81zM263 107q31 0 68 15.5t66 43.5q-8 27 -8 59q-49 19 -91 19q-56 0 -84 -28q-21 -23 -21 -55q0 -25 18 -39.5t52 -14.5z
" />
    <glyph glyph-name="ccedilla" unicode="&#xe7;" horiz-adv-x="594" 
d="M206 -180l-138 64l120 122q-70 28 -110.5 87.5t-40.5 141.5q0 140 99 239t238 99q91 0 150.5 -40.5t85.5 -107.5l-147 -81q-34 71 -102 71q-48 0 -87 -39q-54 -54 -54 -133q0 -45 26 -72t66 -27q55 0 110 52l112 -104q-90 -101 -223 -105h-1z" />
    <glyph glyph-name="egrave" unicode="&#xe8;" horiz-adv-x="637" 
d="M346 616l-112 131l177 59l59 -190h-124zM587 226h-376v-1q3 -44 31.5 -70t79.5 -25q58 0 120 45l87 -107q-95 -81 -226 -81q-123 0 -194.5 67t-71.5 181q0 67 26.5 131t74.5 111q96 96 236 96q115 0 175.5 -65.5t60.5 -163.5q0 -60 -23 -118zM266 392q-26 -26 -41 -65
h210q5 15 5 31q0 32 -20.5 53t-59.5 21q-54 0 -94 -40z" />
    <glyph glyph-name="eacute" unicode="&#xe9;" horiz-adv-x="637" 
d="M338 616l162 190l171 -59l-185 -131h-148zM587 226h-376v-1q3 -44 31.5 -70t79.5 -25q58 0 120 45l87 -107q-95 -81 -226 -81q-123 0 -194.5 67t-71.5 181q0 67 26.5 131t74.5 111q96 96 236 96q115 0 175.5 -65.5t60.5 -163.5q0 -60 -23 -118zM266 392q-26 -26 -41 -65
h210q5 15 5 31q0 32 -20.5 53t-59.5 21q-54 0 -94 -40z" />
    <glyph glyph-name="ecircumflex" unicode="&#xea;" horiz-adv-x="637" 
d="M195 616l177 169h158l87 -169h-117l-69 64l-104 -64h-132zM587 226h-376v-1q3 -44 31.5 -70t79.5 -25q58 0 120 45l87 -107q-95 -81 -226 -81q-123 0 -194.5 67t-71.5 181q0 67 26.5 131t74.5 111q96 96 236 96q115 0 175.5 -65.5t60.5 -163.5q0 -60 -23 -118zM266 392
q-26 -26 -41 -65h210q5 15 5 31q0 32 -20.5 53t-59.5 21q-54 0 -94 -40z" />
    <glyph glyph-name="edieresis" unicode="&#xeb;" horiz-adv-x="637" 
d="M443 616l40 146h168l-40 -146h-168zM216 616l40 146h168l-40 -146h-168zM587 226h-376v-1q3 -44 31.5 -70t79.5 -25q58 0 120 45l87 -107q-95 -81 -226 -81q-123 0 -194.5 67t-71.5 181q0 67 26.5 131t74.5 111q96 96 236 96q115 0 175.5 -65.5t60.5 -163.5
q0 -60 -23 -118zM266 392q-26 -26 -41 -65h210q5 15 5 31q0 32 -20.5 53t-59.5 21q-54 0 -94 -40z" />
    <glyph glyph-name="igrave" unicode="&#xec;" horiz-adv-x="324" 
d="M183 613l-112 131l177 59l59 -190h-124zM-8 0l150 562h190l-151 -562h-189z" />
    <glyph glyph-name="iacute" unicode="&#xed;" horiz-adv-x="324" 
d="M175 613l162 190l171 -59l-185 -131h-148zM-8 0l150 562h190l-151 -562h-189z" />
    <glyph glyph-name="icircumflex" unicode="&#xee;" horiz-adv-x="324" 
d="M33 613l177 169h158l87 -169h-117l-69 64l-104 -64h-132zM-8 0l150 562h190l-151 -562h-189z" />
    <glyph glyph-name="idieresis" unicode="&#xef;" horiz-adv-x="324" 
d="M280 613l40 146h168l-40 -146h-168zM53 613l40 146h168l-40 -146h-168zM-8 0l150 562h190l-151 -562h-189z" />
    <glyph glyph-name="eth" unicode="&#xf0;" horiz-adv-x="687" 
d="M268 589l-25 83l93 23q-42 44 -64 64h220l18 -21l117 29l26 -82l-87 -22q85 -133 85 -278q0 -186 -115 -303q-95 -95 -229 -95q-124 0 -196 70.5t-72 186.5q0 66 25 127.5t70 105.5q81 83 192 83q84 0 141 -60q-21 53 -70 121zM318 144q51 0 90 39q51 51 51 125
q0 49 -27.5 78t-72.5 29q-53 0 -90 -39q-50 -48 -50 -124q0 -49 26.5 -78.5t72.5 -29.5z" />
    <glyph glyph-name="ntilde" unicode="&#xf1;" horiz-adv-x="664" 
d="M572 794l93 -29q-31 -79 -65 -114t-86 -35q-35 0 -93 22q-45 18 -60 18q-21 0 -34.5 -11t-28.5 -38l-93 29q31 78 64.5 113.5t85.5 35.5q36 0 94 -22q43 -18 60 -18q21 0 34 11t29 38zM-13 0l150 562h190l-17 -64q71 75 158 75q76 0 119.5 -44.5t43.5 -122.5
q0 -41 -16 -101l-81 -305h-190l80 297q7 26 7 47q0 61 -66 61q-80 0 -108 -104l-81 -301h-189z" />
    <glyph glyph-name="ograve" unicode="&#xf2;" horiz-adv-x="681" 
d="M361 616l-112 131l177 59l59 -190h-124zM368 573q126 0 200.5 -73.5t74.5 -186.5q0 -130 -97 -229q-97 -97 -233 -97q-126 0 -200 73.5t-74 187.5q0 133 97 228q97 97 232 97zM323 145q49 0 87 38q51 51 51 123q0 51 -28 80t-75 29q-49 0 -86 -37q-51 -49 -51 -124
q0 -50 28 -79.5t74 -29.5z" />
    <glyph glyph-name="oacute" unicode="&#xf3;" horiz-adv-x="681" 
d="M344 616l162 190l171 -59l-185 -131h-148zM368 573q126 0 200.5 -73.5t74.5 -186.5q0 -130 -97 -229q-97 -97 -233 -97q-126 0 -200 73.5t-74 187.5q0 133 97 228q97 97 232 97zM323 145q49 0 87 38q51 51 51 123q0 51 -28 80t-75 29q-49 0 -86 -37q-51 -49 -51 -124
q0 -50 28 -79.5t74 -29.5z" />
    <glyph glyph-name="ocircumflex" unicode="&#xf4;" horiz-adv-x="681" 
d="M210 616l177 169h158l87 -169h-117l-69 64l-104 -64h-132zM368 573q126 0 200.5 -73.5t74.5 -186.5q0 -130 -97 -229q-97 -97 -233 -97q-126 0 -200 73.5t-74 187.5q0 133 97 228q97 97 232 97zM323 145q49 0 87 38q51 51 51 123q0 51 -28 80t-75 29q-49 0 -86 -37
q-51 -49 -51 -124q0 -50 28 -79.5t74 -29.5z" />
    <glyph glyph-name="otilde" unicode="&#xf5;" horiz-adv-x="681" 
d="M582 794l93 -29q-31 -79 -65 -114t-86 -35q-35 0 -93 22q-45 18 -60 18q-21 0 -34.5 -11t-28.5 -38l-93 29q31 78 64.5 113.5t85.5 35.5q36 0 94 -22q43 -18 60 -18q21 0 34 11t29 38zM368 573q126 0 200.5 -73.5t74.5 -186.5q0 -130 -97 -229q-97 -97 -233 -97
q-126 0 -200 73.5t-74 187.5q0 133 97 228q97 97 232 97zM323 145q49 0 87 38q51 51 51 123q0 51 -28 80t-75 29q-49 0 -86 -37q-51 -49 -51 -124q0 -50 28 -79.5t74 -29.5z" />
    <glyph glyph-name="odieresis" unicode="&#xf6;" horiz-adv-x="681" 
d="M458 616l40 146h168l-40 -146h-168zM231 616l40 146h168l-40 -146h-168zM368 573q126 0 200.5 -73.5t74.5 -186.5q0 -130 -97 -229q-97 -97 -233 -97q-126 0 -200 73.5t-74 187.5q0 133 97 228q97 97 232 97zM323 145q49 0 87 38q51 51 51 123q0 51 -28 80t-75 29
q-49 0 -86 -37q-51 -49 -51 -124q0 -50 28 -79.5t74 -29.5z" />
    <glyph glyph-name="divide" unicode="&#xf7;" horiz-adv-x="676" 
d="M310 512l43 164h181l-44 -164h-180zM69 290l41 153h543l-42 -153h-542zM188 56l43 164h181l-44 -164h-180z" />
    <glyph glyph-name="oslash" unicode="&#xf8;" horiz-adv-x="681" 
d="M368 573q102 0 176 -53l52 47h138l-128 -115q37 -62 37 -139q0 -130 -97 -229q-97 -97 -233 -97q-104 0 -176 53l-51 -46h-139l128 115q-36 59 -36 139q0 133 97 228q97 97 232 97zM361 422q-54 0 -95 -41q-53 -53 -53 -127q0 -11 2 -29l204 183q-25 14 -58 14zM468 307
q0 15 -3 29l-203 -184q26 -14 59 -14q51 0 94 41q53 53 53 128z" />
    <glyph glyph-name="ugrave" unicode="&#xf9;" horiz-adv-x="664" 
d="M350 613l-112 131l177 59l59 -190h-124zM196 -12q-76 0 -119.5 45t-43.5 122q0 40 16 102l82 305h189l-80 -297q-7 -26 -7 -47q0 -61 67 -61q80 0 107 104l81 301h189l-150 -562h-189l16 63q-73 -75 -158 -75z" />
    <glyph glyph-name="uacute" unicode="&#xfa;" horiz-adv-x="664" 
d="M343 613l162 190l171 -59l-185 -131h-148zM196 -12q-76 0 -119.5 45t-43.5 122q0 40 16 102l82 305h189l-80 -297q-7 -26 -7 -47q0 -61 67 -61q80 0 107 104l81 301h189l-150 -562h-189l16 63q-73 -75 -158 -75z" />
    <glyph glyph-name="ucircumflex" unicode="&#xfb;" horiz-adv-x="664" 
d="M199 613l177 169h158l87 -169h-117l-69 64l-104 -64h-132zM196 -12q-76 0 -119.5 45t-43.5 122q0 40 16 102l82 305h189l-80 -297q-7 -26 -7 -47q0 -61 67 -61q80 0 107 104l81 301h189l-150 -562h-189l16 63q-73 -75 -158 -75z" />
    <glyph glyph-name="udieresis" unicode="&#xfc;" horiz-adv-x="664" 
d="M447 613l40 146h168l-40 -146h-168zM220 613l40 146h168l-40 -146h-168zM196 -12q-76 0 -119.5 45t-43.5 122q0 40 16 102l82 305h189l-80 -297q-7 -26 -7 -47q0 -61 67 -61q80 0 107 104l81 301h189l-150 -562h-189l16 63q-73 -75 -158 -75z" />
    <glyph glyph-name="yacute" unicode="&#xfd;" horiz-adv-x="651" 
d="M334 613l162 190l171 -59l-185 -131h-148zM169 5l-72 557h192l24 -347l193 347h200l-347 -562q-60 -93 -118.5 -131.5t-139.5 -38.5q-86 0 -146 41l88 138q37 -27 74 -27q29 0 52 23z" />
    <glyph glyph-name="thorn" unicode="&#xfe;" horiz-adv-x="710" 
d="M337 146q53 0 93 40q50 52 50 128q0 47 -27.5 74.5t-72.5 27.5q-53 0 -94 -41q-51 -51 -51 -126q0 -46 28.5 -74.5t73.5 -28.5zM379 759l-69 -257q73 71 159 71q88 0 145.5 -62.5t57.5 -169.5q0 -160 -104 -266q-87 -87 -200 -87q-112 0 -171 90l-65 -244h-189l247 925
h189z" />
    <glyph glyph-name="ydieresis" unicode="&#xff;" horiz-adv-x="651" 
d="M439 613l40 146h168l-40 -146h-168zM212 613l40 146h168l-40 -146h-168zM169 5l-72 557h192l24 -347l193 347h200l-347 -562q-60 -93 -118.5 -131.5t-139.5 -38.5q-86 0 -146 41l88 138q37 -27 74 -27q29 0 52 23z" />
    <glyph glyph-name="Amacron" unicode="&#x100;" horiz-adv-x="814" 
d="M346 796l33 120h410l-33 -120h-410zM334 291h169l-28 215zM-68 0l506 733h189l114 -733h-202l-19 137h-287l-91 -137h-210z" />
    <glyph glyph-name="amacron" unicode="&#x101;" horiz-adv-x="629" 
d="M208 621l31 117h387l-31 -117h-387zM252 107q40 0 74.5 30.5t46.5 73.5l5 19q-40 14 -80 14q-56 0 -84 -28q-21 -23 -21 -55q0 -24 16 -39t43 -15zM165 -11q-70 0 -114 41.5t-44 110.5q0 80 52 132q69 67 194 67q70 0 146 -22l2 6q5 18 5 37q0 61 -98 61q-81 0 -151 -28
l-27 139q95 36 217 36t184 -46t62 -131q0 -40 -12 -82l-82 -310h-186l16 62q-75 -73 -164 -73z" />
    <glyph glyph-name="Abreve" unicode="&#x102;" horiz-adv-x="814" 
d="M550 787q-87 0 -130.5 40.5t-33.5 116.5h111q6 -48 76 -48q64 0 97 48h123q-30 -76 -93 -116.5t-150 -40.5zM334 291h169l-28 215zM-68 0l506 733h189l114 -733h-202l-19 137h-287l-91 -137h-210z" />
    <glyph glyph-name="abreve" unicode="&#x103;" horiz-adv-x="629" 
d="M416 614q-89 0 -135.5 46t-45.5 125h116q2 -26 20.5 -43.5t51.5 -17.5q67 0 105 61h116q-24 -78 -84.5 -124.5t-143.5 -46.5zM252 107q40 0 74.5 30.5t46.5 73.5l5 19q-40 14 -80 14q-56 0 -84 -28q-21 -23 -21 -55q0 -24 16 -39t43 -15zM165 -11q-70 0 -114 41.5
t-44 110.5q0 80 52 132q69 67 194 67q70 0 146 -22l2 6q5 18 5 37q0 61 -98 61q-81 0 -151 -28l-27 139q95 36 217 36t184 -46t62 -131q0 -40 -12 -82l-82 -310h-186l16 62q-75 -73 -164 -73z" />
    <glyph glyph-name="Aogonek" unicode="&#x104;" horiz-adv-x="814" 
d="M736 -89l-22 -81q-29 -5 -65 -5q-61 0 -94 19t-33 53q0 49 69 103h-52l-19 137h-287l-91 -137h-210l506 733h189l114 -733h-30q-40 -37 -40 -62q0 -27 65 -27zM334 291h169l-28 215z" />
    <glyph glyph-name="aogonek" unicode="&#x105;" horiz-adv-x="629" 
d="M495 -89l-22 -81q-29 -5 -65 -5q-61 0 -94 19t-33 53q0 49 69 103h-37l16 62q-75 -73 -164 -73q-70 0 -114 41.5t-44 110.5q0 80 52 132q69 67 194 67q70 0 146 -22l2 6q5 18 5 37q0 61 -98 61q-81 0 -151 -28l-27 139q95 36 217 36t184 -46t62 -131q0 -40 -12 -82
l-82 -310h-29q-40 -37 -40 -62q0 -27 65 -27zM252 107q40 0 74.5 30.5t46.5 73.5l5 19q-40 14 -80 14q-56 0 -84 -28q-21 -23 -21 -55q0 -24 16 -39t43 -15z" />
    <glyph glyph-name="Cacute" unicode="&#x106;" horiz-adv-x="765" 
d="M466 789l161 167l175 -57l-181 -110h-155zM405 -14q-152 0 -248 87t-96 231q0 177 131 308q130 130 322 130q107 0 182.5 -47t111.5 -131l-166 -94q-51 96 -153 96q-85 0 -150 -65q-76 -76 -76 -184q0 -71 42.5 -113.5t110.5 -42.5q80 0 159 74l129 -118
q-121 -131 -299 -131z" />
    <glyph glyph-name="cacute" unicode="&#x107;" horiz-adv-x="594" 
d="M323 616l162 190l171 -59l-185 -131h-148zM300 -13q-116 0 -189.5 67.5t-73.5 180.5q0 140 99 239t238 99q91 0 150.5 -40.5t85.5 -107.5l-147 -81q-34 71 -102 71q-48 0 -87 -39q-54 -54 -54 -133q0 -45 26 -72t66 -27q55 0 110 52l112 -104q-94 -105 -234 -105z" />
    <glyph glyph-name="Cdotaccent" unicode="&#x10a;" horiz-adv-x="765" 
d="M458 789l39 142h173l-39 -142h-173zM405 -14q-152 0 -248 87t-96 231q0 177 131 308q130 130 322 130q107 0 182.5 -47t111.5 -131l-166 -94q-51 96 -153 96q-85 0 -150 -65q-76 -76 -76 -184q0 -71 42.5 -113.5t110.5 -42.5q80 0 159 74l129 -118q-121 -131 -299 -131z
" />
    <glyph glyph-name="cdotaccent" unicode="&#x10b;" horiz-adv-x="594" 
d="M312 616l40 146h172l-40 -146h-172zM300 -13q-116 0 -189.5 67.5t-73.5 180.5q0 140 99 239t238 99q91 0 150.5 -40.5t85.5 -107.5l-147 -81q-34 71 -102 71q-48 0 -87 -39q-54 -54 -54 -133q0 -45 26 -72t66 -27q55 0 110 52l112 -104q-94 -105 -234 -105z" />
    <glyph glyph-name="Ccaron" unicode="&#x10c;" horiz-adv-x="765" 
d="M807 944l-170 -155h-171l-88 155h123l67 -56l97 56h142zM405 -14q-152 0 -248 87t-96 231q0 177 131 308q130 130 322 130q107 0 182.5 -47t111.5 -131l-166 -94q-51 96 -153 96q-85 0 -150 -65q-76 -76 -76 -184q0 -71 42.5 -113.5t110.5 -42.5q80 0 159 74l129 -118
q-121 -131 -299 -131z" />
    <glyph glyph-name="ccaron" unicode="&#x10d;" horiz-adv-x="594" 
d="M296 616l-86 169h117l69 -64l104 64h132l-177 -169h-159zM300 -13q-116 0 -189.5 67.5t-73.5 180.5q0 140 99 239t238 99q91 0 150.5 -40.5t85.5 -107.5l-147 -81q-34 71 -102 71q-48 0 -87 -39q-54 -54 -54 -133q0 -45 26 -72t66 -27q55 0 110 52l112 -104
q-94 -105 -234 -105z" />
    <glyph glyph-name="Dcaron" unicode="&#x10e;" horiz-adv-x="805" 
d="M761 934l-170 -155h-171l-88 155h123l67 -56l97 56h142zM-2 0l195 728h231q193 0 285 -94q79 -79 79 -213q0 -167 -120 -287q-134 -134 -381 -134h-289zM552 509q-45 47 -148 47h-63l-104 -384h72q138 0 215 77q65 65 65 158q0 65 -37 102z" />
    <glyph glyph-name="dcaron" unicode="&#x10f;" horiz-adv-x="710" 
d="M787 610l59 222h142l-1 -4l-125 -218h-75zM329 145q53 0 94 41q52 50 52 126q0 46 -28.5 75t-73.5 29q-52 0 -93 -41q-51 -49 -51 -127q0 -47 27.5 -75t72.5 -28zM383 0l16 59q-74 -71 -159 -71q-87 0 -145 62.5t-58 169.5q0 162 105 267q88 86 199 86q113 0 172 -89
l74 275h189l-204 -759h-189z" />
    <glyph glyph-name="Dcroat" unicode="&#x110;" horiz-adv-x="843" 
d="M40 0l80 301h-87l35 131h87l80 296h226q193 0 285 -94q79 -79 79 -213q0 -168 -119 -287q-136 -134 -382 -134h-284zM443 302h-134l-36 -135h73q140 0 221 79q66 68 66 163q0 64 -38 104q-50 48 -151 48h-65l-35 -131h134z" />
    <glyph glyph-name="dcroat" unicode="&#x111;" horiz-adv-x="710" 
d="M329 145q53 0 94 41q52 50 52 126q0 46 -28.5 75t-73.5 29q-52 0 -93 -41q-51 -49 -51 -127q0 -47 27.5 -75t72.5 -28zM391 618l25 92h158l13 49h189l-13 -49h65l-24 -92h-66l-166 -618h-189l16 59q-74 -71 -159 -71q-87 0 -145 62.5t-58 169.5q0 162 105 267
q88 86 199 86q113 0 172 -89l36 134h-158z" />
    <glyph glyph-name="Emacron" unicode="&#x112;" horiz-adv-x="705" 
d="M291 786l33 120h410l-33 -120h-410zM-2 0l195 728h575l-45 -165h-383l-32 -119h345l-41 -155h-346l-33 -124h389l-44 -165h-580z" />
    <glyph glyph-name="emacron" unicode="&#x113;" horiz-adv-x="637" 
d="M221 621l31 117h387l-31 -117h-387zM587 226h-376v-1q3 -44 31.5 -70t79.5 -25q58 0 120 45l87 -107q-95 -81 -226 -81q-123 0 -194.5 67t-71.5 181q0 67 26.5 131t74.5 111q96 96 236 96q115 0 175.5 -65.5t60.5 -163.5q0 -60 -23 -118zM266 392q-26 -26 -41 -65h210
q5 15 5 31q0 32 -20.5 53t-59.5 21q-54 0 -94 -40z" />
    <glyph glyph-name="Ebreve" unicode="&#x114;" horiz-adv-x="705" 
d="M494 777q-87 0 -130.5 40.5t-33.5 116.5h111q6 -48 76 -48q64 0 97 48h123q-30 -76 -93 -116.5t-150 -40.5zM-2 0l195 728h575l-45 -165h-383l-32 -119h345l-41 -155h-346l-33 -124h389l-44 -165h-580z" />
    <glyph glyph-name="ebreve" unicode="&#x115;" horiz-adv-x="637" 
d="M429 614q-89 0 -135.5 46t-45.5 125h116q2 -26 20.5 -43.5t51.5 -17.5q67 0 105 61h116q-24 -78 -84.5 -124.5t-143.5 -46.5zM587 226h-376v-1q3 -44 31.5 -70t79.5 -25q58 0 120 45l87 -107q-95 -81 -226 -81q-123 0 -194.5 67t-71.5 181q0 67 26.5 131t74.5 111
q96 96 236 96q115 0 175.5 -65.5t60.5 -163.5q0 -60 -23 -118zM266 392q-26 -26 -41 -65h210q5 15 5 31q0 32 -20.5 53t-59.5 21q-54 0 -94 -40z" />
    <glyph glyph-name="Edotaccent" unicode="&#x116;" horiz-adv-x="705" 
d="M407 779l39 142h173l-39 -142h-173zM-2 0l195 728h575l-45 -165h-383l-32 -119h345l-41 -155h-346l-33 -124h389l-44 -165h-580z" />
    <glyph glyph-name="edotaccent" unicode="&#x117;" horiz-adv-x="637" 
d="M327 616l40 146h172l-40 -146h-172zM587 226h-376v-1q3 -44 31.5 -70t79.5 -25q58 0 120 45l87 -107q-95 -81 -226 -81q-123 0 -194.5 67t-71.5 181q0 67 26.5 131t74.5 111q96 96 236 96q115 0 175.5 -65.5t60.5 -163.5q0 -60 -23 -118zM266 392q-26 -26 -41 -65h210
q5 15 5 31q0 32 -20.5 53t-59.5 21q-54 0 -94 -40z" />
    <glyph glyph-name="Eogonek" unicode="&#x118;" horiz-adv-x="705" 
d="M-2 0l195 728h575l-45 -165h-383l-32 -119h345l-41 -155h-346l-33 -124h389l-44 -165h-37q-40 -37 -40 -62q0 -27 65 -27l-22 -81q-29 -5 -65 -5q-61 0 -94 19t-33 53q0 49 69 103h-423z" />
    <glyph glyph-name="eogonek" unicode="&#x119;" horiz-adv-x="637" 
d="M442 175l87 -106q-68 -51 -91 -74q-33 -33 -33 -57q0 -27 65 -27l-22 -81q-29 -5 -65 -5q-61 0 -94 19t-33 53q0 42 53 91h-9q-121 0 -192 67t-71 180q0 67 26.5 131t74.5 111q96 96 236 96q115 0 175.5 -65.5t60.5 -163.5q0 -60 -23 -118h-376v-1q3 -44 31.5 -70
t79.5 -25q58 0 120 45zM266 392q-26 -26 -41 -65h210q5 15 5 31q0 32 -20.5 53t-59.5 21q-54 0 -94 -40z" />
    <glyph glyph-name="Ecaron" unicode="&#x11a;" horiz-adv-x="705" 
d="M755 934l-170 -155h-171l-88 155h123l67 -56l97 56h142zM-2 0l195 728h575l-45 -165h-383l-32 -119h345l-41 -155h-346l-33 -124h389l-44 -165h-580z" />
    <glyph glyph-name="ecaron" unicode="&#x11b;" horiz-adv-x="637" 
d="M311 616l-86 169h117l69 -64l104 64h132l-177 -169h-159zM587 226h-376v-1q3 -44 31.5 -70t79.5 -25q58 0 120 45l87 -107q-95 -81 -226 -81q-123 0 -194.5 67t-71.5 181q0 67 26.5 131t74.5 111q96 96 236 96q115 0 175.5 -65.5t60.5 -163.5q0 -60 -23 -118zM266 392
q-26 -26 -41 -65h210q5 15 5 31q0 32 -20.5 53t-59.5 21q-54 0 -94 -40z" />
    <glyph glyph-name="Gbreve" unicode="&#x11e;" horiz-adv-x="806" 
d="M553 787q-87 0 -130.5 40.5t-33.5 116.5h111q6 -48 76 -48q64 0 97 48h123q-30 -76 -93 -116.5t-150 -40.5zM410 -14q-67 0 -128 19.5t-111.5 57t-80.5 100.5t-30 143q0 173 126 301q135 135 339 135q103 0 181 -35.5t120 -88.5l-132 -125q-76 76 -183 76t-179 -72
q-74 -74 -74 -184q0 -75 48 -116.5t120 -41.5q58 0 104 21l30 102h-145l38 146h330l-103 -367q-125 -71 -270 -71z" />
    <glyph glyph-name="gbreve" unicode="&#x11f;" horiz-adv-x="705" 
d="M460 614q-89 0 -135.5 46t-45.5 125h116q2 -26 20.5 -43.5t51.5 -17.5q67 0 105 61h116q-24 -78 -84.5 -124.5t-143.5 -46.5zM326 188q56 0 96 40q44 44 44 102q0 41 -26.5 66.5t-71.5 25.5q-53 0 -93 -40q-44 -44 -44 -105q0 -42 26 -65.5t69 -23.5zM255 -168
q-82 0 -161.5 21t-134.5 56l88 120q94 -59 199 -59q75 0 118 43q30 30 47 92l4 14q-77 -70 -172 -70q-82 0 -141.5 52t-59.5 143q0 145 99 244q83 85 198 85q112 0 170 -93l22 82h189l-120 -448q-20 -76 -42.5 -121t-57.5 -80q-80 -81 -245 -81z" />
    <glyph glyph-name="Gdotaccent" unicode="&#x120;" horiz-adv-x="806" 
d="M466 789l39 142h173l-39 -142h-173zM410 -14q-67 0 -128 19.5t-111.5 57t-80.5 100.5t-30 143q0 173 126 301q135 135 339 135q103 0 181 -35.5t120 -88.5l-132 -125q-76 76 -183 76t-179 -72q-74 -74 -74 -184q0 -75 48 -116.5t120 -41.5q58 0 104 21l30 102h-145
l38 146h330l-103 -367q-125 -71 -270 -71z" />
    <glyph glyph-name="gdotaccent" unicode="&#x121;" horiz-adv-x="705" 
d="M359 616l40 146h172l-40 -146h-172zM326 188q56 0 96 40q44 44 44 102q0 41 -26.5 66.5t-71.5 25.5q-53 0 -93 -40q-44 -44 -44 -105q0 -42 26 -65.5t69 -23.5zM255 -168q-82 0 -161.5 21t-134.5 56l88 120q94 -59 199 -59q75 0 118 43q30 30 47 92l4 14
q-77 -70 -172 -70q-82 0 -141.5 52t-59.5 143q0 145 99 244q83 85 198 85q112 0 170 -93l22 82h189l-120 -448q-20 -76 -42.5 -121t-57.5 -80q-80 -81 -245 -81z" />
    <glyph glyph-name="Gcommaaccent" unicode="&#x122;" horiz-adv-x="806" 
d="M410 -14q-67 0 -128 19.5t-111.5 57t-80.5 100.5t-30 143q0 173 126 301q135 135 339 135q103 0 181 -35.5t120 -88.5l-132 -125q-76 76 -183 76t-179 -72q-74 -74 -74 -184q0 -75 48 -116.5t120 -41.5q58 0 104 21l30 102h-145l38 146h330l-103 -367q-125 -71 -270 -71z
M209 -323l7 57q86 7 98 69h-70l37 137h163l-31 -117q-20 -76 -71 -110t-133 -36z" />
    <glyph glyph-name="gcommaaccent" unicode="&#x123;" horiz-adv-x="705" 
d="M595 879l-7 -57q-86 -7 -98 -69h70l-37 -137h-163l31 117q21 77 71.5 110.5t132.5 35.5zM326 188q56 0 96 40q44 44 44 102q0 41 -26.5 66.5t-71.5 25.5q-53 0 -93 -40q-44 -44 -44 -105q0 -42 26 -65.5t69 -23.5zM255 -168q-82 0 -161.5 21t-134.5 56l88 120
q94 -59 199 -59q75 0 118 43q30 30 47 92l4 14q-77 -70 -172 -70q-82 0 -141.5 52t-59.5 143q0 145 99 244q83 85 198 85q112 0 170 -93l22 82h189l-120 -448q-20 -76 -42.5 -121t-57.5 -80q-80 -81 -245 -81z" />
    <glyph glyph-name="Hbar" unicode="&#x126;" horiz-adv-x="797" 
d="M313 452h264l23 87h-264zM78 537l29 109h64l22 82h194l-22 -82h264l22 82h193l-22 -82h65l-30 -109h-64l-144 -537h-194l75 280h-263l-76 -280h-193l144 537h-64z" />
    <glyph glyph-name="hbar" unicode="&#x127;" horiz-adv-x="665" 
d="M86 618l24 92h69l13 49h189l-13 -49h155l-24 -92h-156l-32 -120q71 75 158 75q76 0 119.5 -44.5t43.5 -122.5q0 -41 -16 -101l-81 -305h-190l80 297q7 26 7 47q0 61 -66 61q-80 0 -108 -104l-81 -301h-189l166 618h-68z" />
    <glyph glyph-name="Imacron" unicode="&#x12a;" horiz-adv-x="350" 
d="M106 786l33 120h410l-33 -120h-410zM3 0l196 728h193l-195 -728h-194z" />
    <glyph glyph-name="imacron" unicode="&#x12b;" horiz-adv-x="324" 
d="M59 618l31 117h387l-31 -117h-387zM-8 0l150 562h190l-151 -562h-189z" />
    <glyph glyph-name="Ibreve" unicode="&#x12c;" horiz-adv-x="350" 
d="M309 777q-87 0 -130.5 40.5t-33.5 116.5h111q6 -48 76 -48q64 0 97 48h123q-30 -76 -93 -116.5t-150 -40.5zM3 0l196 728h193l-195 -728h-194z" />
    <glyph glyph-name="ibreve" unicode="&#x12d;" horiz-adv-x="324" 
d="M265 611q-89 0 -135.5 46t-45.5 125h116q2 -26 20.5 -43.5t51.5 -17.5q67 0 105 61h116q-24 -78 -84.5 -124.5t-143.5 -46.5zM-8 0l150 562h190l-151 -562h-189z" />
    <glyph glyph-name="Iogonek" unicode="&#x12e;" horiz-adv-x="350" 
d="M3 0l196 728h193l-195 -728h-33q-40 -37 -40 -62q0 -27 65 -27l-22 -81q-29 -5 -65 -5q-61 0 -94 19t-33 53q0 49 69 103h-41z" />
    <glyph glyph-name="iogonek" unicode="&#x12f;" horiz-adv-x="324" 
d="M153 615l39 144h198l-40 -144h-197zM-39 -103q0 47 69 103h-38l150 562h190l-151 -562h-31q-40 -37 -40 -62q0 -27 65 -27l-22 -81q-29 -5 -65 -5q-61 0 -94 19t-33 53z" />
    <glyph glyph-name="Idotaccent" unicode="&#x130;" horiz-adv-x="350" 
d="M222 779l39 142h173l-39 -142h-173zM3 0l196 728h193l-195 -728h-194z" />
    <glyph glyph-name="dotlessi" unicode="&#x131;" horiz-adv-x="324" 
d="M-8 0l150 562h190l-151 -562h-189z" />
    <glyph glyph-name="Kcommaaccent" unicode="&#x136;" horiz-adv-x="762" 
d="M-2 0l195 728h194l-80 -298l313 298h248l-345 -316l163 -412h-209l-108 290l-132 -118l-46 -172h-193zM167 -313l7 57q86 7 98 69h-70l37 137h163l-31 -117q-20 -76 -71 -110t-133 -36z" />
    <glyph glyph-name="kcommaaccent" unicode="&#x137;" horiz-adv-x="631" 
d="M-13 0l204 759h189l-102 -376l196 179h232l-261 -228l113 -334h-205l-64 207l-75 -65l-38 -142h-189zM81 -316l7 57q86 7 98 69h-70l37 137h163l-31 -117q-20 -76 -71 -110t-133 -36z" />
    <glyph glyph-name="Lacute" unicode="&#x139;" horiz-adv-x="654" 
d="M240 779l161 167l175 -57l-181 -110h-155zM-2 0l195 728h194l-149 -557h350l-46 -171h-544z" />
    <glyph glyph-name="lacute" unicode="&#x13a;" horiz-adv-x="324" 
d="M225 799l161 167l175 -57l-181 -110h-155zM-8 0l204 759h189l-204 -759h-189z" />
    <glyph glyph-name="Lcommaaccent" unicode="&#x13b;" horiz-adv-x="654" 
d="M-2 0l195 728h194l-149 -557h350l-46 -171h-544zM98 -316l7 57q86 7 98 69h-70l37 137h163l-31 -117q-20 -76 -71 -110t-133 -36z" />
    <glyph glyph-name="lcommaaccent" unicode="&#x13c;" horiz-adv-x="324" 
d="M-8 0l204 759h189l-204 -759h-189zM-77 -316l7 57q86 7 98 69h-70l37 137h163l-31 -117q-20 -76 -71 -110t-133 -36z" />
    <glyph glyph-name="Lcaron" unicode="&#x13d;" horiz-adv-x="654" 
d="M391 506l59 222h142l-1 -4l-125 -218h-75zM-2 0l195 728h194l-149 -557h350l-46 -171h-544z" />
    <glyph glyph-name="lcaron" unicode="&#x13e;" horiz-adv-x="324" 
d="M397 610l59 222h142l-1 -4l-125 -218h-75zM-8 0l204 759h189l-204 -759h-189z" />
    <glyph glyph-name="Ldot" unicode="&#x13f;" horiz-adv-x="654" 
d="M-2 0l195 728h194l-149 -557h350l-46 -171h-544zM434 337l43 157h162l-42 -157h-163z" />
    <glyph glyph-name="ldot" unicode="&#x140;" horiz-adv-x="440" 
d="M-8 0l204 759h189l-204 -759h-189zM319 317l41 153h136l-41 -153h-136z" />
    <glyph glyph-name="Lslash" unicode="&#x141;" horiz-adv-x="700" 
d="M27 235l48 174l85 23l79 296h194l-64 -238l200 55l-47 -174l-199 -55l-39 -145h350l-46 -171h-544l69 258z" />
    <glyph glyph-name="lslash" unicode="&#x142;" horiz-adv-x="415" 
d="M24 253l45 171l90 24l84 311h189l-69 -256l90 24l-46 -171l-90 -24l-89 -332h-189l74 277z" />
    <glyph glyph-name="Nacute" unicode="&#x143;" horiz-adv-x="823" 
d="M466 779l161 167l175 -57l-181 -110h-155zM-2 0l195 728h180l194 -417l112 417h191l-195 -728h-169l-201 431l-116 -431h-191z" />
    <glyph glyph-name="nacute" unicode="&#x144;" horiz-adv-x="664" 
d="M344 616l162 190l171 -59l-185 -131h-148zM-13 0l150 562h190l-17 -64q71 75 158 75q76 0 119.5 -44.5t43.5 -122.5q0 -41 -16 -101l-81 -305h-190l80 297q7 26 7 47q0 61 -66 61q-80 0 -108 -104l-81 -301h-189z" />
    <glyph glyph-name="Ncommaaccent" unicode="&#x145;" horiz-adv-x="823" 
d="M-2 0l195 728h180l194 -417l112 417h191l-195 -728h-169l-201 431l-116 -431h-191zM174 -313l7 57q86 7 98 69h-70l37 137h163l-31 -117q-20 -76 -71 -110t-133 -36z" />
    <glyph glyph-name="ncommaaccent" unicode="&#x146;" horiz-adv-x="664" 
d="M-13 0l150 562h190l-17 -64q71 75 158 75q76 0 119.5 -44.5t43.5 -122.5q0 -41 -16 -101l-81 -305h-190l80 297q7 26 7 47q0 61 -66 61q-80 0 -108 -104l-81 -301h-189zM90 -316l7 57q86 7 98 69h-70l37 137h163l-31 -117q-20 -76 -71 -110t-133 -36z" />
    <glyph glyph-name="Ncaron" unicode="&#x147;" horiz-adv-x="823" 
d="M807 934l-170 -155h-171l-88 155h123l67 -56l97 56h142zM-2 0l195 728h180l194 -417l112 417h191l-195 -728h-169l-201 431l-116 -431h-191z" />
    <glyph glyph-name="ncaron" unicode="&#x148;" horiz-adv-x="664" 
d="M316 616l-86 169h117l69 -64l104 64h132l-177 -169h-159zM-13 0l150 562h190l-17 -64q71 75 158 75q76 0 119.5 -44.5t43.5 -122.5q0 -41 -16 -101l-81 -305h-190l80 297q7 26 7 47q0 61 -66 61q-80 0 -108 -104l-81 -301h-189z" />
    <glyph glyph-name="Omacron" unicode="&#x14c;" horiz-adv-x="860" 
d="M355 796l33 120h410l-33 -120h-410zM497 741q153 0 248.5 -92.5t95.5 -232.5q0 -84 -33.5 -163.5t-93.5 -139.5q-126 -126 -307 -126q-153 0 -248.5 92.5t-95.5 232.5q0 84 33.5 163.5t93.5 139.5q126 126 307 126zM425 161q81 0 144 61q35 35 55 83t20 96
q0 74 -43.5 120t-121.5 46q-82 0 -145 -61q-34 -35 -54 -83.5t-20 -95.5q0 -74 43.5 -120t121.5 -46z" />
    <glyph glyph-name="omacron" unicode="&#x14d;" horiz-adv-x="681" 
d="M236 621l31 117h387l-31 -117h-387zM368 573q126 0 200.5 -73.5t74.5 -186.5q0 -130 -97 -229q-97 -97 -233 -97q-126 0 -200 73.5t-74 187.5q0 133 97 228q97 97 232 97zM323 145q49 0 87 38q51 51 51 123q0 51 -28 80t-75 29q-49 0 -86 -37q-51 -49 -51 -124
q0 -50 28 -79.5t74 -29.5z" />
    <glyph glyph-name="Obreve" unicode="&#x14e;" horiz-adv-x="860" 
d="M558 787q-87 0 -130.5 40.5t-33.5 116.5h111q6 -48 76 -48q64 0 97 48h123q-30 -76 -93 -116.5t-150 -40.5zM497 741q153 0 248.5 -92.5t95.5 -232.5q0 -84 -33.5 -163.5t-93.5 -139.5q-126 -126 -307 -126q-153 0 -248.5 92.5t-95.5 232.5q0 84 33.5 163.5t93.5 139.5
q126 126 307 126zM425 161q81 0 144 61q35 35 55 83t20 96q0 74 -43.5 120t-121.5 46q-82 0 -145 -61q-34 -35 -54 -83.5t-20 -95.5q0 -74 43.5 -120t121.5 -46z" />
    <glyph glyph-name="obreve" unicode="&#x14f;" horiz-adv-x="681" 
d="M443 614q-89 0 -135.5 46t-45.5 125h116q2 -26 20.5 -43.5t51.5 -17.5q67 0 105 61h116q-24 -78 -84.5 -124.5t-143.5 -46.5zM368 573q126 0 200.5 -73.5t74.5 -186.5q0 -130 -97 -229q-97 -97 -233 -97q-126 0 -200 73.5t-74 187.5q0 133 97 228q97 97 232 97zM323 145
q49 0 87 38q51 51 51 123q0 51 -28 80t-75 29q-49 0 -86 -37q-51 -49 -51 -124q0 -50 28 -79.5t74 -29.5z" />
    <glyph glyph-name="Ohungarumlaut" unicode="&#x150;" horiz-adv-x="860" 
d="M562 789l100 107l-168 -107h-140l156 167l157 -56l52 56l160 -57l-177 -110h-140zM497 741q153 0 248.5 -92.5t95.5 -232.5q0 -84 -33.5 -163.5t-93.5 -139.5q-126 -126 -307 -126q-153 0 -248.5 92.5t-95.5 232.5q0 84 33.5 163.5t93.5 139.5q126 126 307 126zM425 161
q81 0 144 61q35 35 55 83t20 96q0 74 -43.5 120t-121.5 46q-82 0 -145 -61q-34 -35 -54 -83.5t-20 -95.5q0 -74 43.5 -120t121.5 -46z" />
    <glyph glyph-name="ohungarumlaut" unicode="&#x151;" horiz-adv-x="681" 
d="M421 616l154 190l152 -59l-175 -131h-131zM209 616l157 190l150 -59l-176 -131h-131zM368 573q126 0 200.5 -73.5t74.5 -186.5q0 -130 -97 -229q-97 -97 -233 -97q-126 0 -200 73.5t-74 187.5q0 133 97 228q97 97 232 97zM323 145q49 0 87 38q51 51 51 123q0 51 -28 80
t-75 29q-49 0 -86 -37q-51 -49 -51 -124q0 -50 28 -79.5t74 -29.5z" />
    <glyph glyph-name="OE" unicode="&#x152;" horiz-adv-x="1131" 
d="M426 0q-193 0 -288 97q-76 74 -76 210q0 168 119 287q136 134 382 134h631l-45 -165h-362l-32 -119h324l-41 -155h-325l-33 -124h368l-44 -165h-578zM297 219q47 -47 148 -47h45l104 384h-53q-140 0 -215 -77q-65 -65 -65 -158q0 -66 36 -102z" />
    <glyph glyph-name="oe" unicode="&#x153;" horiz-adv-x="1057" 
d="M1008 226h-376v-1q3 -44 31.5 -70t79.5 -25q58 0 120 45l87 -107q-91 -81 -229 -81q-132 0 -196 91q-88 -91 -212 -91q-126 0 -200 73.5t-74 187.5q0 133 97 228q97 97 232 97q139 0 206 -96q91 96 223 96q113 0 173.5 -65.5t60.5 -163.5q0 -56 -23 -118zM687 392
q-26 -26 -41 -65h210q5 15 5 31q0 32 -20.5 53t-59.5 21q-54 0 -94 -40zM323 145q49 0 87 38q51 51 51 123q0 51 -28 80t-75 29q-49 0 -86 -37q-51 -49 -51 -124q0 -50 28 -79.5t74 -29.5z" />
    <glyph glyph-name="Racute" unicode="&#x154;" horiz-adv-x="760" 
d="M406 779l161 167l175 -57l-181 -110h-155zM293 377h121q87 0 129 42q26 26 26 64q0 31 -20 50q-25 27 -92 27h-115zM251 223l-60 -223h-193l195 728h273q171 0 246 -75q57 -57 57 -149q0 -108 -69 -175q-54 -56 -154 -83l115 -246h-214l-100 223h-96z" />
    <glyph glyph-name="racute" unicode="&#x155;" horiz-adv-x="455" 
d="M244 613l162 190l171 -59l-185 -131h-148zM-13 0l150 562h190l-31 -114q89 131 212 123l-54 -199h-15q-163 0 -216 -197l-47 -175h-189z" />
    <glyph glyph-name="Rcommaaccent" unicode="&#x156;" horiz-adv-x="760" 
d="M293 377h121q87 0 129 42q26 26 26 64q0 31 -20 50q-25 27 -92 27h-115zM251 223l-60 -223h-193l195 728h273q171 0 246 -75q57 -57 57 -149q0 -108 -69 -175q-54 -56 -154 -83l115 -246h-214l-100 223h-96zM141 -313l7 57q86 7 98 69h-70l37 137h163l-31 -117
q-20 -76 -71 -110t-133 -36z" />
    <glyph glyph-name="rcommaaccent" unicode="&#x157;" horiz-adv-x="455" 
d="M-13 0l150 562h190l-31 -114q89 131 212 123l-54 -199h-15q-163 0 -216 -197l-47 -175h-189zM-74 -316l7 57q86 7 98 69h-70l37 137h163l-31 -117q-20 -76 -71 -110t-133 -36z" />
    <glyph glyph-name="Rcaron" unicode="&#x158;" horiz-adv-x="760" 
d="M747 934l-170 -155h-171l-88 155h123l67 -56l97 56h142zM293 377h121q87 0 129 42q26 26 26 64q0 31 -20 50q-25 27 -92 27h-115zM251 223l-60 -223h-193l195 728h273q171 0 246 -75q57 -57 57 -149q0 -108 -69 -175q-54 -56 -154 -83l115 -246h-214l-100 223h-96z" />
    <glyph glyph-name="rcaron" unicode="&#x159;" horiz-adv-x="455" 
d="M216 613l-86 169h117l69 -64l104 64h132l-177 -169h-159zM-13 0l150 562h190l-31 -114q89 131 212 123l-54 -199h-15q-163 0 -216 -197l-47 -175h-189z" />
    <glyph glyph-name="Sacute" unicode="&#x15a;" horiz-adv-x="679" 
d="M379 789l161 167l175 -57l-181 -110h-155zM318 -12q-215 0 -334 133l128 128q104 -99 220 -99q39 0 63.5 16t24.5 43q0 23 -23.5 39.5t-98.5 45.5q-93 36 -140 80.5t-47 119.5q0 94 67 159q87 87 238 87q182 0 293 -109l-122 -132q-91 79 -188 79q-39 0 -62 -16t-23 -40
q0 -23 22 -37t101 -46q92 -35 139 -80.5t47 -120.5q0 -97 -67 -164q-86 -86 -238 -86z" />
    <glyph glyph-name="sacute" unicode="&#x15b;" horiz-adv-x="539" 
d="M275 616l162 190l171 -59l-185 -131h-148zM241 -13q-77 0 -149.5 26t-122.5 72l97 111q39 -36 89 -55.5t95 -19.5q53 0 53 37q0 14 -16 25t-58 28q-79 31 -119.5 66.5t-40.5 96.5q0 87 65 143t176 56q71 0 135 -22.5t104 -56.5l-93 -114q-79 60 -156 60q-52 0 -52 -36
q0 -14 16.5 -25t60.5 -29q75 -30 116 -65.5t41 -97.5q0 -87 -64 -143.5t-177 -56.5z" />
    <glyph glyph-name="Scedilla" unicode="&#x15e;" horiz-adv-x="679" 
d="M211 -180l-138 64l116 118q-127 30 -205 119l128 128q104 -99 220 -99q39 0 63.5 16t24.5 43q0 23 -23.5 39.5t-98.5 45.5q-93 36 -140 80.5t-47 119.5q0 94 67 159q87 87 238 87q182 0 293 -109l-122 -132q-91 79 -188 79q-39 0 -62 -16t-23 -40q0 -23 22 -37t101 -46
q92 -35 139 -80.5t47 -120.5q0 -97 -67 -164q-86 -86 -238 -86h-2z" />
    <glyph glyph-name="scedilla" unicode="&#x15f;" horiz-adv-x="539" 
d="M147 -180l-138 64l116 118q-93 25 -156 83l97 111q39 -36 89 -55.5t95 -19.5q53 0 53 37q0 14 -16 25t-58 28q-79 31 -119.5 66.5t-40.5 96.5q0 87 65 143t176 56q71 0 135 -22.5t104 -56.5l-93 -114q-79 60 -156 60q-52 0 -52 -36q0 -14 16.5 -25t60.5 -29
q75 -30 116 -65.5t41 -97.5q0 -85 -60.5 -141t-169.5 -59h-1z" />
    <glyph glyph-name="Scaron" unicode="&#x160;" horiz-adv-x="679" 
d="M720 944l-170 -155h-171l-88 155h123l67 -56l97 56h142zM318 -12q-215 0 -334 133l128 128q104 -99 220 -99q39 0 63.5 16t24.5 43q0 23 -23.5 39.5t-98.5 45.5q-93 36 -140 80.5t-47 119.5q0 94 67 159q87 87 238 87q182 0 293 -109l-122 -132q-91 79 -188 79
q-39 0 -62 -16t-23 -40q0 -23 22 -37t101 -46q92 -35 139 -80.5t47 -120.5q0 -97 -67 -164q-86 -86 -238 -86z" />
    <glyph glyph-name="scaron" unicode="&#x161;" horiz-adv-x="539" 
d="M248 616l-86 169h117l69 -64l104 64h132l-177 -169h-159zM241 -13q-77 0 -149.5 26t-122.5 72l97 111q39 -36 89 -55.5t95 -19.5q53 0 53 37q0 14 -16 25t-58 28q-79 31 -119.5 66.5t-40.5 96.5q0 87 65 143t176 56q71 0 135 -22.5t104 -56.5l-93 -114q-79 60 -156 60
q-52 0 -52 -36q0 -14 16.5 -25t60.5 -29q75 -30 116 -65.5t41 -97.5q0 -87 -64 -143.5t-177 -56.5z" />
    <glyph glyph-name="Tcommaaccent" unicode="&#x162;" horiz-adv-x="676" 
d="M164 0l150 557h-219l46 171h631l-46 -171h-219l-149 -557h-194zM98 -316l7 57q86 7 98 69h-70l37 137h163l-31 -117q-20 -76 -71 -110t-133 -36z" />
    <glyph glyph-name="tcommaaccent" unicode="&#x163;" horiz-adv-x="454" 
d="M223 -11q-82 0 -123.5 33.5t-41.5 94.5q0 32 11 73l58 218h-67l42 154h66l39 142h189l-38 -142h131l-42 -154h-131l-50 -189q-6 -26 -6 -33q0 -34 45 -34q33 0 76 15l-42 -157q-57 -21 -116 -21zM18 -319l7 57q86 7 98 69h-70l37 137h163l-31 -117q-20 -76 -71 -110
t-133 -36z" />
    <glyph glyph-name="Tcaron" unicode="&#x164;" horiz-adv-x="676" 
d="M732 934l-170 -155h-171l-88 155h123l67 -56l97 56h142zM164 0l150 557h-219l46 171h631l-46 -171h-219l-149 -557h-194z" />
    <glyph glyph-name="tcaron" unicode="&#x165;" horiz-adv-x="454" 
d="M420 612l59 222h142l-1 -4l-125 -218h-75zM223 -11q-82 0 -123.5 33.5t-41.5 94.5q0 32 11 73l58 218h-67l42 154h66l39 142h189l-38 -142h131l-42 -154h-131l-50 -189q-6 -26 -6 -33q0 -34 45 -34q33 0 76 15l-42 -157q-57 -21 -116 -21z" />
    <glyph glyph-name="Umacron" unicode="&#x16a;" horiz-adv-x="801" 
d="M328 786l33 120h410l-33 -120h-410zM361 -13q-137 0 -213.5 66.5t-76.5 185.5q0 55 17 117l100 372h195l-104 -387q-10 -38 -10 -70q0 -51 30 -80t86 -29q62 0 102 40q41 40 64 123l108 403h195l-116 -432q-40 -144 -113 -217q-92 -92 -264 -92z" />
    <glyph glyph-name="umacron" unicode="&#x16b;" horiz-adv-x="664" 
d="M225 618l31 117h387l-31 -117h-387zM196 -12q-76 0 -119.5 45t-43.5 122q0 40 16 102l82 305h189l-80 -297q-7 -26 -7 -47q0 -61 67 -61q80 0 107 104l81 301h189l-150 -562h-189l16 63q-73 -75 -158 -75z" />
    <glyph glyph-name="Ubreve" unicode="&#x16c;" horiz-adv-x="801" 
d="M528 767q-87 0 -130.5 40.5t-33.5 116.5h111q6 -48 76 -48q64 0 97 48h123q-30 -76 -93 -116.5t-150 -40.5zM361 -13q-137 0 -213.5 66.5t-76.5 185.5q0 55 17 117l100 372h195l-104 -387q-10 -38 -10 -70q0 -51 30 -80t86 -29q62 0 102 40q41 40 64 123l108 403h195
l-116 -432q-40 -144 -113 -217q-92 -92 -264 -92z" />
    <glyph glyph-name="ubreve" unicode="&#x16d;" horiz-adv-x="664" 
d="M432 611q-89 0 -135.5 46t-45.5 125h116q2 -26 20.5 -43.5t51.5 -17.5q67 0 105 61h116q-24 -78 -84.5 -124.5t-143.5 -46.5zM196 -12q-76 0 -119.5 45t-43.5 122q0 40 16 102l82 305h189l-80 -297q-7 -26 -7 -47q0 -61 67 -61q80 0 107 104l81 301h189l-150 -562h-189
l16 63q-73 -75 -158 -75z" />
    <glyph glyph-name="Uring" unicode="&#x16e;" horiz-adv-x="801" 
d="M568 1010q56 0 93 -32.5t37 -78.5q0 -59 -45 -101.5t-115 -42.5q-56 0 -93 32.5t-37 78.5q0 59 45 101.5t115 42.5zM544 816q37 0 60 23.5t23 52.5q0 26 -18 41.5t-47 15.5q-37 0 -60 -23.5t-23 -51.5q0 -26 18 -42t47 -16zM361 -13q-137 0 -213.5 66.5t-76.5 185.5
q0 55 17 117l100 372h195l-104 -387q-10 -38 -10 -70q0 -51 30 -80t86 -29q62 0 102 40q41 40 64 123l108 403h195l-116 -432q-40 -144 -113 -217q-92 -92 -264 -92z" />
    <glyph glyph-name="uring" unicode="&#x16f;" horiz-adv-x="665" 
d="M579 747q0 -60 -42.5 -103.5t-104.5 -43.5q-55 0 -89 32.5t-34 81.5q0 59 42.5 102.5t104.5 43.5q55 0 89 -32t34 -81zM377 719q0 -27 16.5 -43.5t41.5 -16.5q32 0 54 25t22 58q0 27 -16.5 43.5t-41.5 16.5q-32 0 -54 -25t-22 -58zM196 -12q-76 0 -119.5 45t-43.5 122
q0 40 16 102l82 305h189l-80 -297q-7 -26 -7 -47q0 -61 67 -61q80 0 107 104l81 301h189l-150 -562h-189l16 63q-73 -75 -158 -75z" />
    <glyph glyph-name="Uhungarumlaut" unicode="&#x170;" horiz-adv-x="801" 
d="M535 779l100 107l-168 -107h-140l156 167l157 -56l52 56l160 -57l-177 -110h-140zM361 -13q-137 0 -213.5 66.5t-76.5 185.5q0 55 17 117l100 372h195l-104 -387q-10 -38 -10 -70q0 -51 30 -80t86 -29q62 0 102 40q41 40 64 123l108 403h195l-116 -432
q-40 -144 -113 -217q-92 -92 -264 -92z" />
    <glyph glyph-name="uhungarumlaut" unicode="&#x171;" horiz-adv-x="664" 
d="M411 613l154 190l152 -59l-175 -131h-131zM199 613l157 190l150 -59l-176 -131h-131zM196 -12q-76 0 -119.5 45t-43.5 122q0 40 16 102l82 305h189l-80 -297q-7 -26 -7 -47q0 -61 67 -61q80 0 107 104l81 301h189l-150 -562h-189l16 63q-73 -75 -158 -75z" />
    <glyph glyph-name="Uogonek" unicode="&#x172;" horiz-adv-x="801" 
d="M419 -89l-22 -81q-29 -5 -65 -5q-61 0 -94 19t-33 53q0 46 64 99q-95 20 -146.5 83t-51.5 160q0 55 17 117l100 372h195l-104 -387q-10 -38 -10 -70q0 -51 30 -80t86 -29q62 0 102 40q41 40 64 123l108 403h195l-116 -432q-40 -144 -113 -217q-86 -86 -243 -92h-1
q-27 -27 -27 -49q0 -27 65 -27z" />
    <glyph glyph-name="uogonek" unicode="&#x173;" horiz-adv-x="665" 
d="M196 -12q-76 0 -119.5 45t-43.5 122q0 40 16 102l82 305h189l-80 -297q-7 -26 -7 -47q0 -61 67 -61q80 0 107 104l81 301h189l-150 -562h-28q-40 -37 -40 -62q0 -27 65 -27l-22 -81q-29 -5 -65 -5q-61 0 -94 19t-33 53q0 49 69 103h-41l16 63q-73 -75 -158 -75z" />
    <glyph glyph-name="Wcircumflex" unicode="&#x174;" horiz-adv-x="1157" 
d="M479 779l171 155h170l88 -155h-123l-67 56l-97 -56h-142zM178 -5l-48 733h199l15 -436l261 438h166l30 -438l248 436h211l-441 -733h-174l-34 425l-261 -425h-172z" />
    <glyph glyph-name="wcircumflex" unicode="&#x175;" horiz-adv-x="903" 
d="M321 613l177 169h158l87 -169h-117l-69 64l-104 -64h-132zM113 -4l-20 566h185l-2 -295l170 297h157l11 -298l159 296h185l-325 -566h-164l-13 302l-178 -302h-165z" />
    <glyph glyph-name="Ycircumflex" unicode="&#x176;" horiz-adv-x="708" 
d="M249 779l171 155h170l88 -155h-123l-67 56l-97 -56h-142zM173 0l76 283l-148 445h209l75 -278l225 278h232l-405 -466l-71 -262h-193z" />
    <glyph glyph-name="ycircumflex" unicode="&#x177;" horiz-adv-x="651" 
d="M190 613l177 169h158l87 -169h-117l-69 64l-104 -64h-132zM169 5l-72 557h192l24 -347l193 347h200l-347 -562q-60 -93 -118.5 -131.5t-139.5 -38.5q-86 0 -146 41l88 138q37 -27 74 -27q29 0 52 23z" />
    <glyph glyph-name="Ydieresis" unicode="&#x178;" horiz-adv-x="708" 
d="M504 779l39 142h168l-39 -142h-168zM275 779l39 142h167l-39 -142h-167zM173 0l76 283l-148 445h209l75 -278l225 278h232l-405 -466l-71 -262h-193z" />
    <glyph glyph-name="Zacute" unicode="&#x179;" horiz-adv-x="720" 
d="M402 779l161 167l175 -57l-181 -110h-155zM-29 0l38 141l473 423h-348l45 164h613l-38 -141l-474 -423h362l-44 -164h-627z" />
    <glyph glyph-name="zacute" unicode="&#x17a;" horiz-adv-x="590" 
d="M298 613l162 190l171 -59l-185 -131h-148zM-33 0l33 126l338 285h-252l40 151h499l-34 -126l-338 -285h264l-41 -151h-509z" />
    <glyph glyph-name="Zdotaccent" unicode="&#x17b;" horiz-adv-x="720" 
d="M394 779l39 142h173l-39 -142h-173zM-29 0l38 141l473 423h-348l45 164h613l-38 -141l-474 -423h362l-44 -164h-627z" />
    <glyph glyph-name="zdotaccent" unicode="&#x17c;" horiz-adv-x="590" 
d="M287 613l40 146h172l-40 -146h-172zM-33 0l33 126l338 285h-252l40 151h499l-34 -126l-338 -285h264l-41 -151h-509z" />
    <glyph glyph-name="Zcaron" unicode="&#x17d;" horiz-adv-x="720" 
d="M743 934l-170 -155h-171l-88 155h123l67 -56l97 56h142zM-29 0l38 141l473 423h-348l45 164h613l-38 -141l-474 -423h362l-44 -164h-627z" />
    <glyph glyph-name="zcaron" unicode="&#x17e;" horiz-adv-x="590" 
d="M271 613l-86 169h117l69 -64l104 64h132l-177 -169h-159zM-33 0l33 126l338 285h-252l40 151h499l-34 -126l-338 -285h264l-41 -151h-509z" />
    <glyph glyph-name="florin" unicode="&#x192;" horiz-adv-x="588" 
d="M64 -12q-55 0 -101 11l33 140q27 -7 51 -7q52 0 84 71l64 143h-67l34 145h98l36 82q38 86 97.5 126.5t148.5 40.5q76 0 125 -18l-33 -141q-36 13 -74 13q-65 0 -95 -70l-16 -33h123l-34 -145h-153l-84 -190q-41 -91 -98 -129.5t-139 -38.5z" />
    <glyph glyph-name="Aringacute" unicode="&#x1fa;" horiz-adv-x="814" 
d="M499 924l166 155l168 -59l-186 -96h-148zM533 704q37 0 60 23.5t23 51.5q0 26 -18 42t-47 16q-37 0 -60 -23.5t-23 -52.5q0 -26 18 -41.5t47 -15.5zM334 291h169l-28 215zM-68 0l482 697q-17 26 -17 57q0 59 45 101.5t115 42.5q56 0 93 -32.5t37 -78.5q0 -64 -52 -108
l106 -679h-202l-19 137h-287l-91 -137h-210z" />
    <glyph glyph-name="aringacute" unicode="&#x1fb;" horiz-adv-x="629" 
d="M402 911l163 164l166 -59l-183 -105h-146zM570 763q0 -60 -42.5 -103.5t-104.5 -43.5q-55 0 -89 32.5t-34 81.5q0 59 42.5 102.5t104.5 43.5q55 0 89 -32t34 -81zM368 735q0 -27 16.5 -43.5t41.5 -16.5q32 0 54 25t22 58q0 27 -16.5 43.5t-41.5 16.5q-32 0 -54 -25
t-22 -58zM252 107q40 0 74.5 30.5t46.5 73.5l5 19q-40 14 -80 14q-56 0 -84 -28q-21 -23 -21 -55q0 -24 16 -39t43 -15zM165 -11q-70 0 -114 41.5t-44 110.5q0 80 52 132q69 67 194 67q70 0 146 -22l2 6q5 18 5 37q0 61 -98 61q-81 0 -151 -28l-27 139q95 36 217 36t184 -46
t62 -131q0 -40 -12 -82l-82 -310h-186l16 62q-75 -73 -164 -73z" />
    <glyph glyph-name="AEacute" unicode="&#x1fc;" horiz-adv-x="1128" 
d="M674 779l161 167l175 -57l-181 -110h-155zM365 291h158l74 280h-15zM-71 0l576 728h686l-44 -165h-363l-32 -119h325l-42 -155h-324l-34 -124h368l-44 -165h-557l37 137h-235l-107 -137h-210z" />
    <glyph glyph-name="aeacute" unicode="&#x1fd;" horiz-adv-x="981" 
d="M488 613l162 190l171 -59l-185 -131h-148zM610 392q-26 -26 -41 -65h210q5 15 5 31q0 32 -20.5 53t-59.5 21q-54 0 -94 -40zM644 -13q-145 0 -213 103q-102 -101 -244 -101q-84 0 -132 41t-48 111q0 80 52 132q69 67 194 67q70 0 146 -22l2 6q5 18 5 37q0 61 -98 61
q-81 0 -151 -28l-27 139q95 36 217 36q132 0 183 -70q87 74 195 74q110 0 169.5 -65.5t59.5 -163.5q0 -56 -23 -118h-376v-1q3 -44 31.5 -70t79.5 -25q58 0 120 45l87 -107q-91 -81 -229 -81zM263 107q31 0 68 15.5t66 43.5q-8 27 -8 59q-49 19 -91 19q-56 0 -84 -28
q-21 -23 -21 -55q0 -25 18 -39.5t52 -14.5z" />
    <glyph glyph-name="Oslashacute" unicode="&#x1fe;" horiz-adv-x="860" 
d="M470 789l161 167l175 -57l-181 -110h-155zM497 741q128 0 222 -71l69 63h153l-152 -138q52 -80 52 -179q0 -84 -33.5 -163.5t-93.5 -139.5q-126 -126 -307 -126q-130 0 -222 70l-69 -62h-153l152 137q-52 78 -52 180q0 84 33.5 163.5t93.5 139.5q126 126 307 126z
M254 326q0 -36 10 -65l314 286q-42 26 -99 26q-85 0 -148 -63q-36 -36 -56.5 -85.5t-20.5 -98.5zM424 155q87 0 148 64q36 35 56.5 84t20.5 99q0 35 -10 64l-313 -285q40 -26 98 -26z" />
    <glyph glyph-name="oslashacute" unicode="&#x1ff;" horiz-adv-x="681" 
d="M344 616l162 190l171 -59l-185 -131h-148zM368 573q102 0 176 -53l52 47h138l-128 -115q37 -62 37 -139q0 -130 -97 -229q-97 -97 -233 -97q-104 0 -176 53l-51 -46h-139l128 115q-36 59 -36 139q0 133 97 228q97 97 232 97zM361 422q-54 0 -95 -41q-53 -53 -53 -127
q0 -11 2 -29l204 183q-25 14 -58 14zM468 307q0 15 -3 29l-203 -184q26 -14 59 -14q51 0 94 41q53 53 53 128z" />
    <glyph glyph-name="Scommaaccent" unicode="&#x218;" horiz-adv-x="679" 
d="M318 -12q-215 0 -334 133l128 128q104 -99 220 -99q39 0 63.5 16t24.5 43q0 23 -23.5 39.5t-98.5 45.5q-93 36 -140 80.5t-47 119.5q0 94 67 159q87 87 238 87q182 0 293 -109l-122 -132q-91 79 -188 79q-39 0 -62 -16t-23 -40q0 -23 22 -37t101 -46q92 -35 139 -80.5
t47 -120.5q0 -97 -67 -164q-86 -86 -238 -86zM102 -323l7 57q86 7 98 69h-70l37 137h163l-31 -117q-20 -76 -71 -110t-133 -36z" />
    <glyph glyph-name="scommaaccent" unicode="&#x219;" horiz-adv-x="539" 
d="M241 -13q-77 0 -149.5 26t-122.5 72l97 111q39 -36 89 -55.5t95 -19.5q53 0 53 37q0 14 -16 25t-58 28q-79 31 -119.5 66.5t-40.5 96.5q0 87 65 143t176 56q71 0 135 -22.5t104 -56.5l-93 -114q-79 60 -156 60q-52 0 -52 -36q0 -14 16.5 -25t60.5 -29q75 -30 116 -65.5
t41 -97.5q0 -87 -64 -143.5t-177 -56.5zM30 -319l7 57q86 7 98 69h-70l37 137h163l-31 -117q-20 -76 -71 -110t-133 -36z" />
    <glyph glyph-name="schwa" unicode="&#x259;" horiz-adv-x="637" 
d="M26 217q0 57 24 119h375v1q-3 44 -31 70t-79 25q-58 0 -120 -45l-88 106q95 81 226 81q123 0 194.5 -67t71.5 -181q0 -66 -26.5 -130t-73.5 -112q-98 -96 -236 -96q-115 0 -176 65.5t-61 163.5zM371 170q27 28 40 65h-209q-5 -13 -5 -32q0 -32 20 -52.5t59 -20.5
q55 0 95 40z" />
    <glyph glyph-name="circumflex" unicode="&#x2c6;" horiz-adv-x="530" 
d="M143 613l177 169h158l87 -169h-117l-69 64l-104 -64h-132z" />
    <glyph glyph-name="caron" unicode="&#x2c7;" horiz-adv-x="530" 
d="M272 613l-86 169h117l69 -64l104 64h132l-177 -169h-159z" />
    <glyph glyph-name="breve" unicode="&#x2d8;" horiz-adv-x="530" 
d="M375 611q-89 0 -135.5 46t-45.5 125h116q2 -26 20.5 -43.5t51.5 -17.5q67 0 105 61h116q-24 -78 -84.5 -124.5t-143.5 -46.5z" />
    <glyph glyph-name="dotaccent" unicode="&#x2d9;" horiz-adv-x="530" 
d="M268 613l40 146h172l-40 -146h-172z" />
    <glyph glyph-name="ring" unicode="&#x2da;" horiz-adv-x="530" 
d="M523 760q0 -60 -42.5 -103.5t-104.5 -43.5q-55 0 -89 32.5t-34 81.5q0 59 42.5 102.5t104.5 43.5q55 0 89 -32t34 -81zM321 732q0 -27 16.5 -43.5t41.5 -16.5q32 0 54 25t22 58q0 27 -16.5 43.5t-41.5 16.5q-32 0 -54 -25t-22 -58z" />
    <glyph glyph-name="ogonek" unicode="&#x2db;" horiz-adv-x="530" 
d="M294 -89l-22 -81q-29 -5 -65 -5q-61 0 -94 19t-33 53q0 51 82 113h118q-51 -47 -51 -72q0 -27 65 -27z" />
    <glyph glyph-name="tilde" unicode="&#x2dc;" horiz-adv-x="530" 
d="M512 791l93 -29q-31 -79 -65 -114t-86 -35q-35 0 -93 22q-45 18 -60 18q-21 0 -34.5 -11t-28.5 -38l-93 29q31 78 64.5 113.5t85.5 35.5q36 0 94 -22q43 -18 60 -18q21 0 34 11t29 38z" />
    <glyph glyph-name="hungarumlaut" unicode="&#x2dd;" horiz-adv-x="530" 
d="M335 613l154 190l152 -59l-175 -131h-131zM123 613l157 190l150 -59l-176 -131h-131z" />
    <glyph glyph-name="commaaccent" unicode="&#x326;" horiz-adv-x="530" 
d="M26 -316l7 57q86 7 98 69h-70l37 137h163l-31 -117q-20 -76 -71 -110t-133 -36z" />
    <glyph glyph-name="baht" unicode="&#xe3f;" horiz-adv-x="687" 
d="M229 -119h-95l44 119h-195l196 728h270l31 83h96l-34 -90q89 -15 130 -60.5t41 -108.5q0 -72 -46 -121t-128 -67q96 -44 96 -142q0 -100 -83.5 -161t-243.5 -61h-35zM260 426h82l58 158h-99zM544 515q0 54 -61 66l-57 -155q57 1 87.5 24.5t30.5 64.5zM183 144h54l61 163
h-71zM472 236q0 68 -90 71l-61 -163h27q57 0 90.5 25t33.5 67z" />
    <glyph glyph-name="Wgrave" unicode="&#x1e80;" horiz-adv-x="1157" 
d="M630 779l-122 110l181 57l70 -167h-129zM178 -5l-48 733h199l15 -436l261 438h166l30 -438l248 436h211l-441 -733h-174l-34 425l-261 -425h-172z" />
    <glyph glyph-name="wgrave" unicode="&#x1e81;" horiz-adv-x="903" 
d="M471 613l-112 131l177 59l59 -190h-124zM113 -4l-20 566h185l-2 -295l170 297h157l11 -298l159 296h185l-325 -566h-164l-13 302l-178 -302h-165z" />
    <glyph glyph-name="Wacute" unicode="&#x1e82;" horiz-adv-x="1157" 
d="M625 779l161 167l175 -57l-181 -110h-155zM178 -5l-48 733h199l15 -436l261 438h166l30 -438l248 436h211l-441 -733h-174l-34 425l-261 -425h-172z" />
    <glyph glyph-name="wacute" unicode="&#x1e83;" horiz-adv-x="903" 
d="M464 613l162 190l171 -59l-185 -131h-148zM113 -4l-20 566h185l-2 -295l170 297h157l11 -298l159 296h185l-325 -566h-164l-13 302l-178 -302h-165z" />
    <glyph glyph-name="Wdieresis" unicode="&#x1e84;" horiz-adv-x="1157" 
d="M734 779l39 142h168l-39 -142h-168zM505 779l39 142h167l-39 -142h-167zM178 -5l-48 733h199l15 -436l261 438h166l30 -438l248 436h211l-441 -733h-174l-34 425l-261 -425h-172z" />
    <glyph glyph-name="wdieresis" unicode="&#x1e85;" horiz-adv-x="903" 
d="M569 613l40 146h168l-40 -146h-168zM342 613l40 146h168l-40 -146h-168zM113 -4l-20 566h185l-2 -295l170 297h157l11 -298l159 296h185l-325 -566h-164l-13 302l-178 -302h-165z" />
    <glyph glyph-name="Ygrave" unicode="&#x1ef2;" horiz-adv-x="708" 
d="M399 779l-122 110l181 57l70 -167h-129zM173 0l76 283l-148 445h209l75 -278l225 278h232l-405 -466l-71 -262h-193z" />
    <glyph glyph-name="ygrave" unicode="&#x1ef3;" horiz-adv-x="651" 
d="M342 613l-112 131l177 59l59 -190h-124zM169 5l-72 557h192l24 -347l193 347h200l-347 -562q-60 -93 -118.5 -131.5t-139.5 -38.5q-86 0 -146 41l88 138q37 -27 74 -27q29 0 52 23z" />
    <glyph glyph-name="enspace" unicode="&#x2002;" horiz-adv-x="500" 
 />
    <glyph glyph-name="emspace" unicode="&#x2003;" horiz-adv-x="1000" 
 />
    <glyph glyph-name="threeperemspace" unicode="&#x2004;" horiz-adv-x="333" 
 />
    <glyph glyph-name="fourperemspace" unicode="&#x2005;" horiz-adv-x="250" 
 />
    <glyph glyph-name="figurespace" unicode="&#x2007;" horiz-adv-x="630" 
 />
    <glyph glyph-name="thinspace" unicode="&#x2009;" horiz-adv-x="133" 
 />
    <glyph glyph-name="hairspace" unicode="&#x200a;" horiz-adv-x="75" 
 />
    <glyph glyph-name="endash" unicode="&#x2013;" horiz-adv-x="558" 
d="M42 242l44 165h454l-45 -165h-453z" />
    <glyph glyph-name="emdash" unicode="&#x2014;" horiz-adv-x="943" 
d="M42 242l44 165h838l-44 -165h-838z" />
    <glyph glyph-name="quoteleft" unicode="&#x2018;" horiz-adv-x="328" 
d="M77 366l45 169q26 101 85.5 148.5t169.5 51.5l9 -74q-116 -11 -136 -99h77l-53 -196h-197z" />
    <glyph glyph-name="quoteright" unicode="&#x2019;" horiz-adv-x="328" 
d="M78 360l-8 74q116 11 135 98h-76l52 196h198l-45 -168q-27 -102 -86.5 -149t-169.5 -51z" />
    <glyph glyph-name="quotesinglbase" unicode="&#x201a;" horiz-adv-x="328" 
d="M-61 -173l-8 74q117 11 135 99h-76l52 196h198l-45 -169q-27 -101 -86.5 -148.5t-169.5 -51.5z" />
    <glyph glyph-name="quotedblleft" unicode="&#x201c;" horiz-adv-x="600" 
d="M352 365l45 169q27 102 85 149t168 51l9 -74q-115 -11 -133 -99h74l-53 -196h-195zM78 365l45 169q27 102 85 149t168 51l9 -74q-114 -11 -134 -99h75l-53 -196h-195z" />
    <glyph glyph-name="quotedblright" unicode="&#x201d;" horiz-adv-x="600" 
d="M353 360l-9 74q115 11 134 98h-74l52 196h196l-45 -168q-27 -102 -85.5 -149t-168.5 -51zM79 360l-9 74q115 11 134 98h-75l53 196h196l-45 -168q-27 -102 -85.5 -149t-168.5 -51z" />
    <glyph glyph-name="quotedblbase" unicode="&#x201e;" horiz-adv-x="600" 
d="M214 -173l-9 74q115 11 133 99h-74l53 196h195l-45 -169q-27 -101 -85.5 -148.5t-167.5 -51.5zM-61 -173l-8 74q115 11 133 99h-74l52 196h196l-45 -169q-27 -101 -85.5 -148.5t-168.5 -51.5z" />
    <glyph glyph-name="dagger" unicode="&#x2020;" horiz-adv-x="438" 
d="M157 235l86 281l-133 -13l28 103l125 -12l20 134h112l-51 -134l131 12l-28 -103l-125 13l-65 -281h-100z" />
    <glyph glyph-name="daggerdbl" unicode="&#x2021;" horiz-adv-x="447" 
d="M92 0l51 134l-131 -12l28 103l125 -13l28 152l54 152l-133 -13l28 103l125 -12l20 134h112l-51 -134l131 12l-28 -103l-125 13l-29 -152l-54 -152l133 13l-27 -103l-125 12l-20 -134h-112z" />
    <glyph glyph-name="bullet" unicode="&#x2022;" horiz-adv-x="531" 
d="M315 542q63 0 99.5 -37.5t36.5 -98.5q0 -94 -66 -162q-55 -53 -124 -53q-63 0 -99.5 37.5t-36.5 98.5q0 95 67 162q53 53 123 53z" />
    <glyph glyph-name="ellipsis" unicode="&#x2026;" horiz-adv-x="906" 
d="M572 0l51 192h195l-52 -192h-194zM281 0l51 192h195l-52 -192h-194zM-10 0l51 192h195l-52 -192h-194z" />
    <glyph glyph-name="perthousand" unicode="&#x2030;" horiz-adv-x="1400" 
d="M260 347q-79 0 -125 46.5t-46 120.5q0 99 67 164q60 60 141 60q79 0 125 -47t46 -121q0 -97 -67 -164q-59 -59 -141 -59zM74 0l356 363l357 365h144l-356 -363l-357 -365h-144zM265 452q30 0 51 21q36 38 36 92q0 31 -16 49.5t-44 18.5q-29 0 -51 -22q-35 -35 -35 -92
q0 -30 16 -48.5t43 -18.5zM1146 -10q-79 0 -125 47t-46 121q0 96 68 164q57 59 141 59q79 0 125 -46.5t46 -120.5q0 -97 -67 -164q-60 -60 -142 -60zM707 -10q-79 0 -125 47t-46 121q0 96 68 164q59 59 141 59q79 0 125 -46.5t46 -120.5q0 -97 -67 -164q-60 -60 -142 -60z
M1152 95q27 0 51 22q35 35 35 92q0 30 -16 48.5t-43 18.5q-30 0 -51 -21q-36 -38 -36 -92q0 -31 16 -49.5t44 -18.5zM713 95q27 0 51 22q35 35 35 92q0 30 -16 48.5t-43 18.5q-30 0 -51 -21q-36 -38 -36 -92q0 -31 16 -49.5t44 -18.5z" />
    <glyph glyph-name="guilsinglleft" unicode="&#x2039;" horiz-adv-x="385" 
d="M161 30l-123 226l11 42l244 225l92 -91l-165 -175l71 -169z" />
    <glyph glyph-name="guilsinglright" unicode="&#x203a;" horiz-adv-x="385" 
d="M222 522l123 -227l-11 -41l-244 -225l-91 91l164 175l-70 169z" />
    <glyph glyph-name="fraction" unicode="&#x2044;" horiz-adv-x="114" 
d="M-333 0l366 381l321 347h93l-366 -381l-321 -347h-93z" />
    <glyph glyph-name="zero.sup" unicode="&#x2070;" 
d="M488 704q0 -62 -23 -122.5t-64 -101.5q-59 -57 -132 -57q-67 0 -107 40.5t-40 108.5q0 62 23 122.5t64 101.5q59 57 132 57q67 0 107 -40.5t40 -108.5zM231 575q0 -26 12.5 -41.5t34.5 -15.5q21 0 44 21q26 26 41.5 76t15.5 86q0 26 -12.5 41.5t-34.5 15.5q-23 0 -44 -21
q-26 -26 -41.5 -76t-15.5 -86z" />
    <glyph glyph-name="four.sup" unicode="&#x2074;" 
d="M275 433l21 78h-187l13 93l246 244h122l-68 -255h51l-22 -82h-52l-20 -78h-104zM213 590h106l39 145h-1z" />
    <glyph glyph-name="five.sup" unicode="&#x2075;" 
d="M264 424q-108 0 -171 71l71 69q49 -46 101 -46q33 0 54.5 15t21.5 40q0 19 -16 31.5t-44 12.5q-33 0 -62 -17l-61 39l72 203h268l-25 -93h-183l-24 -65q31 9 62 9q55 0 90 -30.5t35 -81.5q0 -69 -54 -113t-135 -44z" />
    <glyph glyph-name="six.sup" unicode="&#x2076;" 
d="M275 423q-71 0 -109.5 40.5t-38.5 109.5q0 55 23.5 112.5t65.5 100.5q67 67 159 67q70 0 122 -44l-57 -77q-30 28 -72 28q-48 0 -81 -35q-22 -22 -36 -58q41 31 97 31q46 0 76.5 -28.5t30.5 -78.5q0 -72 -53 -120t-127 -48zM280 508q29 0 48.5 20t19.5 48q0 21 -13 34
t-36 13q-30 0 -49 -19q-20 -22 -20 -48q0 -22 13.5 -35t36.5 -13z" />
    <glyph glyph-name="seven.sup" unicode="&#x2077;" 
d="M105 432l250 313h-182l27 97h305l-24 -87l-255 -323h-121z" />
    <glyph glyph-name="eight.sup" unicode="&#x2078;" 
d="M275 423q-70 0 -114.5 31.5t-44.5 83.5q0 88 103 115q-46 26 -46 79q0 49 44.5 85t120.5 36q66 0 107.5 -32t41.5 -80q0 -39 -24 -66t-66 -39q55 -28 55 -83q0 -54 -49 -92t-128 -38zM325 677q25 0 43 15t18 38q0 18 -14 30t-39 12q-27 0 -45 -14.5t-18 -36.5
q-1 -18 14 -31t41 -13zM282 503q28 0 48 15t20 39q0 22 -16.5 35t-44.5 13t-47.5 -15.5t-20.5 -38.5q0 -21 16.5 -34.5t44.5 -13.5z" />
    <glyph glyph-name="nine.sup" unicode="&#x2079;" 
d="M313 649q27 0 49 20q19 19 19 49q0 23 -13 36.5t-36 13.5q-30 -1 -49 -21.5t-19 -49.5q0 -22 13 -35t36 -13zM238 423q-76 0 -129 49l57 77q35 -33 79 -33q46 0 80 32q21 21 36 60q-41 -33 -97 -33q-46 0 -76.5 28.5t-30.5 79.5q0 71 53 120.5t126 49.5q71 0 110 -40.5
t39 -109.5q0 -56 -22.5 -113.5t-63.5 -98.5q-68 -68 -161 -68z" />
    <glyph glyph-name="zero.inf" unicode="&#x2080;" 
d="M335 134q0 -62 -23 -122.5t-64 -101.5q-59 -57 -132 -57q-67 0 -107 40.5t-40 108.5q0 62 23 122.5t64 101.5q59 57 132 57q67 0 107 -40.5t40 -108.5zM78 5q0 -26 12.5 -41.5t34.5 -15.5q21 0 44 21q26 26 41.5 76t15.5 86q0 26 -12.5 41.5t-34.5 15.5q-23 0 -44 -21
q-26 -26 -41.5 -76t-15.5 -86z" />
    <glyph glyph-name="one.inf" unicode="&#x2081;" horiz-adv-x="342" 
d="M30 -136l82 304l-85 -25l-5 88l148 47h80l-110 -414h-110z" />
    <glyph glyph-name="two.inf" unicode="&#x2082;" 
d="M-62 -136l23 88l205 138q49 34 49 61q0 34 -43 34q-42 0 -97 -50l-60 70q75 77 173 77q65 0 103 -31t38 -82q0 -43 -25.5 -76.5t-88.5 -71.5l-104 -65h170l-25 -92h-318z" />
    <glyph glyph-name="three.inf" unicode="&#x2083;" 
d="M109 -147q-109 0 -165 71l71 67q46 -46 97 -46q30 0 50 15t20 36q0 41 -70 41h-38l-3 58l127 86h-161l24 91h295l-22 -80l-136 -90q44 -8 69 -32.5t25 -65.5q0 -67 -53.5 -109t-129.5 -42z" />
    <glyph glyph-name="four.inf" unicode="&#x2084;" 
d="M122 -137l21 78h-187l13 93l246 244h122l-68 -255h51l-22 -82h-52l-20 -78h-104zM60 20h106l39 145h-1z" />
    <glyph glyph-name="five.inf" unicode="&#x2085;" 
d="M111 -146q-108 0 -171 71l71 69q49 -46 101 -46q33 0 54.5 15t21.5 40q0 19 -16 31.5t-44 12.5q-33 0 -62 -17l-61 39l72 203h268l-25 -93h-183l-24 -65q31 9 62 9q55 0 90 -30.5t35 -81.5q0 -69 -54 -113t-135 -44z" />
    <glyph glyph-name="six.inf" unicode="&#x2086;" 
d="M122 -147q-71 0 -109.5 40.5t-38.5 109.5q0 55 23.5 112.5t65.5 100.5q67 67 159 67q70 0 122 -44l-57 -77q-30 28 -72 28q-48 0 -81 -35q-22 -22 -36 -58q41 31 97 31q46 0 76.5 -28.5t30.5 -78.5q0 -72 -53 -120t-127 -48zM127 -62q29 0 48.5 20t19.5 48q0 21 -13 34
t-36 13q-30 0 -49 -19q-20 -22 -20 -48q0 -22 13.5 -35t36.5 -13z" />
    <glyph glyph-name="seven.inf" unicode="&#x2087;" 
d="M-37 -138l250 313h-182l27 97h305l-24 -87l-255 -323h-121z" />
    <glyph glyph-name="eight.inf" unicode="&#x2088;" 
d="M121 -147q-70 0 -114.5 31.5t-44.5 83.5q0 88 103 115q-46 26 -46 79q0 49 44.5 85t120.5 36q66 0 107.5 -32t41.5 -80q0 -39 -24 -66t-66 -39q55 -28 55 -83q0 -54 -49 -92t-128 -38zM171 107q25 0 43 15t18 38q0 18 -14 30t-39 12q-27 0 -45 -14.5t-18 -36.5
q-1 -18 14 -31t41 -13zM128 -67q28 0 48 15t20 39q0 22 -16.5 35t-44.5 13t-47.5 -15.5t-20.5 -38.5q0 -21 16.5 -34.5t44.5 -13.5z" />
    <glyph glyph-name="nine.inf" unicode="&#x2089;" 
d="M160 79q27 0 49 20q19 19 19 49q0 23 -13 36.5t-36 13.5q-30 -1 -49 -21.5t-19 -49.5q0 -22 13 -35t36 -13zM85 -147q-76 0 -129 49l57 77q35 -33 79 -33q46 0 80 32q21 21 36 60q-41 -33 -97 -33q-46 0 -76.5 28.5t-30.5 79.5q0 71 53 120.5t126 49.5q71 0 110 -40.5
t39 -109.5q0 -56 -22.5 -113.5t-63.5 -98.5q-68 -68 -161 -68z" />
    <glyph glyph-name="colonmonetary" unicode="&#x20a1;" horiz-adv-x="663" 
d="M294 165q30 -12 68 -12l159 407q-32 15 -67 16zM218 297q0 -58 25 -92l142 362q-45 -14 -81 -50q-42 -42 -64 -103.5t-22 -116.5zM615 811h76l-49 -126q45 -26 81 -72l-107 -133q-22 28 -43 47l-142 -365q42 14 96 58l73 -127q-98 -84 -228 -94l-46 -118h-76l47 119
q-40 6 -59 12l-51 -131h-76l63 160q-62 37 -96.5 102t-34.5 148q0 92 34 176.5t95 145.5q110 110 271 116l33 82h76l-34 -85q30 -4 58 -12z" />
    <glyph glyph-name="naira" unicode="&#x20a6;" horiz-adv-x="909" 
d="M356 475l-50 -184h111l-55 184h-6zM594 269h6l46 172h-104zM860 198h-108l-53 -198h-195l-62 198h-157l-53 -198h-175l53 198h-106l28 99h105l37 138h-106l27 100h106l52 193h206l60 -193h149l52 193h174l-52 -193h109l-27 -100h-109l-37 -138h110z" />
    <glyph glyph-name="rupee" unicode="&#x20a8;" horiz-adv-x="1150" 
d="M268 374h81q66 0 105 30t39 86q0 34 -24 57.5t-75 23.5h-73zM369 0l-72 228h-68l-62 -228h-177l195 728h225q74 0 129 -19.5t84.5 -52t43 -68t13.5 -74.5q0 -100 -56.5 -168t-148.5 -94l88 -252h-194zM927 157q0 16 -15 28.5t-56 29.5q-71 31 -107.5 65t-36.5 94
q0 86 63 142.5t165 56.5q129 0 218 -73l-85 -116q-74 58 -145 58q-24 0 -38.5 -10t-14.5 -27q0 -15 15 -26.5t55 -29.5q34 -15 55.5 -27t44 -31.5t33.5 -44.5t11 -58q0 -85 -61.5 -143t-165.5 -58q-146 0 -249 92l89 110q37 -35 83 -53t84 -18q27 0 42.5 10.5t15.5 28.5z
" />
    <glyph glyph-name="won" unicode="&#x20a9;" horiz-adv-x="1183" 
d="M648 507l-107 -206h108l5 206h-6zM794 214h6l97 214h-99zM338 214h6l108 214h-97zM1128 203h-162l-108 -206h-220l5 208h-147l-106 -208h-218l2 206h-162l28 105h136l1 111h-111l28 105h84l3 204h200l-15 -204h130l105 206h207l-4 -206h132l93 204h212l-107 -204h85
l-28 -105h-112l-58 -111h136z" />
    <glyph glyph-name="sheqel" unicode="&#x20aa;" horiz-adv-x="674" 
d="M-18 0l150 562h214q68 0 102 -29t34 -82q0 -25 -8 -57l-46 -167h-81l21 83q7 28 7 51q0 60 -76 60h-79l-113 -421h-125zM375 0q-97 0 -136 44.5t-28 133.5l22 157h82l-10 -100q-6 -55 15.5 -75t78.5 -20h54l112 422h126l-150 -562h-166z" />
    <glyph glyph-name="Euro" unicode="&#x20ac;" horiz-adv-x="723" 
d="M70 394l28 107h70q31 77 90 136q103 105 257 105q189 0 258 -156l-146 -92q-22 42 -51 61.5t-75 19.5q-65 0 -108 -45q-17 -17 -26 -30h182l-28 -105h-193q-8 -27 -13 -58h191l-28 -105h-166q18 -79 103 -79q71 0 134 64l115 -117q-104 -114 -256 -114
q-119 0 -196.5 66.5t-89.5 178.5h-96l29 107h71q2 15 11 56h-67z" />
    <glyph glyph-name="peso" unicode="&#x20b1;" horiz-adv-x="817" 
d="M834 406h-88q-23 -70 -73 -120q-104 -104 -296 -104h-79l-48 -182h-193l109 406h-103l25 96h104l61 226h230q149 0 223 -74q56 -56 56 -152h98zM401 578l-23 -83h194q-3 32 -23 53q-30 30 -87 30h-61zM333 326h63q87 0 133 46q17 19 27 41h-200z" />
    <glyph glyph-name="published" unicode="&#x2117;" horiz-adv-x="873" 
d="M498 742q150 0 242 -94.5t92 -236.5q0 -85 -32.5 -165t-92.5 -140q-120 -120 -289 -120q-150 0 -242 94.5t-92 236.5q0 85 32.5 165t92.5 140q120 120 289 120zM419 28q149 0 254 103q115 115 115 278q0 125 -78.5 208t-212.5 83q-149 0 -254 -103q-115 -115 -115 -277
q0 -126 78.5 -209t212.5 -83zM368 571h137q74 0 116.5 -32t42.5 -93q0 -75 -55 -117.5t-143 -42.5h-66l-31 -115h-108zM556 435q0 46 -57 46h-48l-29 -110h46q38 0 63 16t25 48z" />
    <glyph glyph-name="servicemark" unicode="&#x2120;" horiz-adv-x="740" 
d="M384 408l86 320h86l44 -126l112 126h94l-85 -320h-85l52 193l-117 -130h-4l-48 130l-52 -193h-83zM218 401q-90 0 -147 59l55 55q47 -45 101 -45q18 0 30 8t12 21q0 11 -10.5 18.5t-46.5 21.5q-45 17 -64 36.5t-19 50.5q0 42 28 70q38 38 106 38q81 0 129 -48l-51 -56
q-39 36 -87 36q-19 0 -30 -7.5t-11 -19.5q0 -11 10.5 -18.5t47.5 -21.5q43 -17 62.5 -36t19.5 -52q0 -44 -29 -71q-37 -39 -106 -39z" />
    <glyph glyph-name="trademark" unicode="&#x2122;" horiz-adv-x="734" 
d="M142 408l66 245h-95l20 75h277l-21 -75h-95l-66 -245h-86zM378 408l86 320h86l44 -126l112 126h94l-86 -320h-84l52 193l-117 -130h-4l-48 130l-52 -193h-83z" />
    <glyph glyph-name="Omega" unicode="&#x2126;" horiz-adv-x="892" 
d="M288 337q0 -99 70 -182l-41 -155h-330l42 157l158 -1q-94 106 -94 220q0 154 118.5 260t308.5 106q162 0 253.5 -79.5t91.5 -201.5q0 -97 -51.5 -170.5t-144.5 -134.5l153 1l-42 -157h-351l42 154q84 50 138 117t54 148q0 68 -41.5 108t-116.5 40q-99 0 -158 -65
t-59 -165z" />
    <glyph glyph-name="onethird" unicode="&#x2153;" horiz-adv-x="867" 
d="M131 320l81 304l-84 -26l-5 89l147 47h81l-110 -414h-110zM10 0l366 381l321 347h93l-366 -381l-321 -347h-93zM579 -11q-109 0 -165 71l71 67q46 -46 97 -46q30 0 50 15t20 36q0 41 -70 41h-38l-3 58l127 86h-161l24 91h295l-22 -80l-136 -90q44 -8 69 -32.5t25 -65.5
q0 -67 -53.5 -109t-129.5 -42z" />
    <glyph glyph-name="twothirds" unicode="&#x2154;" horiz-adv-x="945" 
d="M31 320l23 87l205 139q48 33 48 61q0 34 -42 34q-44 0 -97 -50l-60 70q75 77 173 77q65 0 102.5 -31t37.5 -82q0 -43 -25.5 -76t-87.5 -72l-105 -66h170l-24 -91h-318zM83 0l366 381l321 347h93l-366 -381l-321 -347h-93zM657 -11q-109 0 -165 71l71 67q46 -46 97 -46
q30 0 50 15t20 36q0 41 -70 41h-38l-3 58l127 86h-161l24 91h295l-22 -80l-136 -90q44 -8 69 -32.5t25 -65.5q0 -67 -53.5 -109t-129.5 -42z" />
    <glyph glyph-name="onefifth" unicode="&#x2155;" horiz-adv-x="867" 
d="M131 320l81 304l-84 -26l-5 89l147 47h81l-110 -414h-110zM15 0l366 381l321 347h93l-366 -381l-321 -347h-93zM580 -10q-108 0 -171 71l71 69q49 -46 101 -46q33 0 54.5 15t21.5 40q0 19 -16 31.5t-44 12.5q-33 0 -62 -17l-61 39l72 203h268l-25 -93h-183l-24 -65
q31 9 62 9q55 0 90 -30.5t35 -81.5q0 -69 -54 -113t-135 -44z" />
    <glyph glyph-name="twofifths" unicode="&#x2156;" horiz-adv-x="945" 
d="M31 320l23 87l205 139q48 33 48 61q0 34 -42 34q-44 0 -97 -50l-60 70q75 77 173 77q65 0 102.5 -31t37.5 -82q0 -43 -25.5 -76t-87.5 -72l-105 -66h170l-24 -91h-318zM93 0l366 381l321 347h93l-366 -381l-321 -347h-93zM658 -10q-108 0 -171 71l71 69q49 -46 101 -46
q33 0 54.5 15t21.5 40q0 19 -16 31.5t-44 12.5q-33 0 -62 -17l-61 39l72 203h268l-25 -93h-183l-24 -65q31 9 62 9q55 0 90 -30.5t35 -81.5q0 -69 -54 -113t-135 -44z" />
    <glyph glyph-name="threefifths" unicode="&#x2157;" horiz-adv-x="945" 
d="M78 0l366 381l321 347h93l-366 -381l-321 -347h-93zM202 309q-108 0 -166 71l72 67q43 -46 97 -46q30 0 50 15t20 36q0 41 -70 41h-38l-3 58l127 86h-161l24 91h295l-22 -80l-136 -90q94 -16 94 -99q0 -66 -53.5 -108t-129.5 -42zM658 -10q-108 0 -171 71l71 69
q49 -46 101 -46q33 0 54.5 15t21.5 40q0 19 -16 31.5t-44 12.5q-33 0 -62 -17l-61 39l72 203h268l-25 -93h-183l-24 -65q31 9 62 9q55 0 90 -30.5t35 -81.5q0 -69 -54 -113t-135 -44z" />
    <glyph glyph-name="fourfifths" unicode="&#x2158;" horiz-adv-x="945" 
d="M214 318l21 78h-187l13 92l247 244h121l-68 -255h51l-22 -81h-51l-21 -78h-104zM93 0l366 381l321 347h93l-366 -381l-321 -347h-93zM153 475h106l38 145h-1zM658 -10q-108 0 -171 71l71 69q49 -46 101 -46q33 0 54.5 15t21.5 40q0 19 -16 31.5t-44 12.5q-33 0 -62 -17
l-61 39l72 203h268l-25 -93h-183l-24 -65q31 9 62 9q55 0 90 -30.5t35 -81.5q0 -69 -54 -113t-135 -44z" />
    <glyph glyph-name="onesixth" unicode="&#x2159;" horiz-adv-x="867" 
d="M131 320l81 304l-84 -26l-5 89l147 47h81l-110 -414h-110zM21 0l366 381l321 347h93l-366 -381l-321 -347h-93zM591 -11q-71 0 -109.5 40.5t-38.5 109.5q0 55 23.5 112.5t65.5 100.5q67 67 159 67q70 0 122 -44l-57 -77q-30 28 -72 28q-48 0 -81 -35q-22 -22 -36 -58
q41 31 97 31q46 0 76.5 -28.5t30.5 -78.5q0 -72 -53 -120t-127 -48zM596 74q29 0 48.5 20t19.5 48q0 21 -13 34t-36 13q-30 0 -49 -19q-20 -22 -20 -48q0 -22 13.5 -35t36.5 -13z" />
    <glyph glyph-name="fivesixths" unicode="&#x215a;" horiz-adv-x="945" 
d="M83 0l366 381l321 347h93l-366 -381l-321 -347h-93zM203 310q-107 0 -170 71l70 68q50 -45 101 -45q34 0 55 15t21 40q0 19 -16 31.5t-44 12.5t-62 -17l-60 39l71 203h268l-24 -93h-183l-24 -65q29 9 61 9q55 0 90 -30.5t35 -81.5q0 -69 -54 -113t-135 -44zM669 -11
q-71 0 -109.5 40.5t-38.5 109.5q0 55 23.5 112.5t65.5 100.5q67 67 159 67q70 0 122 -44l-57 -77q-30 28 -72 28q-48 0 -81 -35q-22 -22 -36 -58q41 31 97 31q46 0 76.5 -28.5t30.5 -78.5q0 -72 -53 -120t-127 -48zM674 74q29 0 48.5 20t19.5 48q0 21 -13 34t-36 13
q-30 0 -49 -19q-20 -22 -20 -48q0 -22 13.5 -35t36.5 -13z" />
    <glyph glyph-name="oneeighth" unicode="&#x215b;" horiz-adv-x="867" 
d="M131 320l81 304l-84 -26l-5 89l147 47h81l-110 -414h-110zM17 0l366 381l321 347h93l-366 -381l-321 -347h-93zM591 -11q-70 0 -114.5 31.5t-44.5 83.5q0 88 103 115q-46 26 -46 79q0 49 44.5 85t120.5 36q66 0 107.5 -32t41.5 -80q0 -39 -24 -66t-66 -39q55 -28 55 -83
q0 -54 -49 -92t-128 -38zM641 243q25 0 43 15t18 38q0 18 -14 30t-39 12q-27 0 -45 -14.5t-18 -36.5q-1 -18 14 -31t41 -13zM598 69q28 0 48 15t20 39q0 22 -16.5 35t-44.5 13t-47.5 -15.5t-20.5 -38.5q0 -21 16.5 -34.5t44.5 -13.5z" />
    <glyph glyph-name="threeeighths" unicode="&#x215c;" horiz-adv-x="945" 
d="M83 0l366 381l321 347h93l-366 -381l-321 -347h-93zM202 309q-108 0 -166 71l72 67q43 -46 97 -46q30 0 50 15t20 36q0 41 -70 41h-38l-3 58l127 86h-161l24 91h295l-22 -80l-136 -90q94 -16 94 -99q0 -66 -53.5 -108t-129.5 -42zM669 -11q-70 0 -114.5 31.5t-44.5 83.5
q0 88 103 115q-46 26 -46 79q0 49 44.5 85t120.5 36q66 0 107.5 -32t41.5 -80q0 -39 -24 -66t-66 -39q55 -28 55 -83q0 -54 -49 -92t-128 -38zM719 243q25 0 43 15t18 38q0 18 -14 30t-39 12q-27 0 -45 -14.5t-18 -36.5q-1 -18 14 -31t41 -13zM676 69q28 0 48 15t20 39
q0 22 -16.5 35t-44.5 13t-47.5 -15.5t-20.5 -38.5q0 -21 16.5 -34.5t44.5 -13.5z" />
    <glyph glyph-name="fiveeighths" unicode="&#x215d;" horiz-adv-x="945" 
d="M83 0l366 381l321 347h93l-366 -381l-321 -347h-93zM203 310q-107 0 -170 71l70 68q50 -45 101 -45q34 0 55 15t21 40q0 19 -16 31.5t-44 12.5t-62 -17l-60 39l71 203h268l-24 -93h-183l-24 -65q29 9 61 9q55 0 90 -30.5t35 -81.5q0 -69 -54 -113t-135 -44zM669 -11
q-70 0 -114.5 31.5t-44.5 83.5q0 88 103 115q-46 26 -46 79q0 49 44.5 85t120.5 36q66 0 107.5 -32t41.5 -80q0 -39 -24 -66t-66 -39q55 -28 55 -83q0 -54 -49 -92t-128 -38zM719 243q25 0 43 15t18 38q0 18 -14 30t-39 12q-27 0 -45 -14.5t-18 -36.5q-1 -18 14 -31t41 -13z
M676 69q28 0 48 15t20 39q0 22 -16.5 35t-44.5 13t-47.5 -15.5t-20.5 -38.5q0 -21 16.5 -34.5t44.5 -13.5z" />
    <glyph glyph-name="seveneighths" unicode="&#x215e;" horiz-adv-x="945" 
d="M52 0l366 381l321 347h93l-366 -381l-321 -347h-93zM65 317l250 313h-182l26 98h305l-23 -87l-256 -324h-120zM669 -11q-70 0 -114.5 31.5t-44.5 83.5q0 88 103 115q-46 26 -46 79q0 49 44.5 85t120.5 36q66 0 107.5 -32t41.5 -80q0 -39 -24 -66t-66 -39q55 -28 55 -83
q0 -54 -49 -92t-128 -38zM719 243q25 0 43 15t18 38q0 18 -14 30t-39 12q-27 0 -45 -14.5t-18 -36.5q-1 -18 14 -31t41 -13zM676 69q28 0 48 15t20 39q0 22 -16.5 35t-44.5 13t-47.5 -15.5t-20.5 -38.5q0 -21 16.5 -34.5t44.5 -13.5z" />
    <glyph glyph-name="Delta" unicode="&#x2206;" horiz-adv-x="827" 
d="M639 733l114 -588l-60 -145h-709l18 145l429 588h208zM488 528l-250 -360h309z" />
    <glyph glyph-name="minus" unicode="&#x2212;" horiz-adv-x="676" 
d="M67 282l45 169h542l-45 -169h-542z" />
    <glyph glyph-name="f_f" unicode="&#xfb00;" horiz-adv-x="876" 
d="M454 0l109 408h-66l42 154h65l4 13q21 86 67 132q60 59 171 59q67 0 123 -17l-37 -137q-36 12 -67 12q-57 0 -72 -54l-3 -11h128l-40 -151h-126l-109 -408h-189zM21 0l109 408h-66l42 154h65l4 13q21 86 67 132q60 59 171 59q67 0 123 -17l-37 -137q-36 12 -67 12
q-57 0 -72 -54l-3 -11h128l-40 -151h-126l-109 -408h-189z" />
    <glyph glyph-name="fi" unicode="&#xfb01;" horiz-adv-x="757" 
d="M586 615l39 144h198l-40 -144h-197zM21 0l109 408h-66l42 154h65l4 13q21 86 67 132q60 59 171 59q67 0 123 -17l-37 -137q-36 12 -67 12q-57 0 -72 -54l-3 -11h128l-40 -151h-126l-109 -408h-189zM425 0l150 562h190l-151 -562h-189z" />
    <glyph glyph-name="fl" unicode="&#xfb02;" horiz-adv-x="757" 
d="M425 0l204 759h189l-204 -759h-189zM21 0l109 408h-66l42 154h65l4 13q21 86 67 132q60 59 171 59q67 0 123 -17l-37 -137q-36 12 -67 12q-57 0 -72 -54l-3 -11h128l-40 -151h-126l-109 -408h-189z" />
    <glyph glyph-name="f_f_i" unicode="&#xfb03;" horiz-adv-x="1189" 
d="M1019 615l39 144h198l-40 -144h-197zM454 0l109 408h-66l42 154h65l4 13q21 86 67 132q60 59 171 59q67 0 123 -17l-37 -137q-36 12 -67 12q-57 0 -72 -54l-3 -11h128l-40 -151h-126l-109 -408h-189zM21 0l109 408h-66l42 154h65l4 13q21 86 67 132q60 59 171 59
q67 0 123 -17l-37 -137q-36 12 -67 12q-57 0 -72 -54l-3 -11h128l-40 -151h-126l-109 -408h-189zM858 0l150 562h190l-151 -562h-189z" />
    <glyph glyph-name="f_f_l" unicode="&#xfb04;" horiz-adv-x="1189" 
d="M858 0l204 759h189l-204 -759h-189zM454 0l109 408h-66l42 154h65l4 13q21 86 67 132q60 59 171 59q67 0 123 -17l-37 -137q-36 12 -67 12q-57 0 -72 -54l-3 -11h128l-40 -151h-126l-109 -408h-189zM21 0l109 408h-66l42 154h65l4 13q21 86 67 132q60 59 171 59
q67 0 123 -17l-37 -137q-36 12 -67 12q-57 0 -72 -54l-3 -11h128l-40 -151h-126l-109 -408h-189z" />
    <glyph glyph-name="Q.alt" horiz-adv-x="860" 
d="M497 741q153 0 248.5 -92.5t95.5 -232.5q0 -171 -121 -295l57 -74l-142 -94l-47 73q-84 -39 -181 -39q-153 0 -248.5 92.5t-95.5 232.5q0 84 33.5 163.5t93.5 139.5q126 126 307 126zM425 158q31 0 60 9l-84 114l142 94l66 -103q35 61 35 127q0 76 -43.5 122t-121.5 46
q-82 0 -145 -61q-75 -77 -75 -181q0 -74 43 -120.5t123 -46.5z" />
    <glyph glyph-name="a.alt" horiz-adv-x="710" 
d="M329 145q53 0 94 41q52 50 52 126q0 46 -28.5 75t-73.5 29q-52 0 -93 -41q-51 -49 -51 -127q0 -47 27.5 -75t72.5 -28zM240 -12q-87 0 -145 62.5t-58 169.5q0 162 105 267q88 86 199 86q113 0 172 -89l21 78h189l-151 -562h-189l16 59q-74 -71 -159 -71z" />
    <glyph glyph-name="uni0439.bgr" horiz-adv-x="665" 
d="M436 611q-89 0 -135.5 46t-45.5 125h116q2 -26 20.5 -43.5t51.5 -17.5q67 0 105 61h116q-24 -78 -84.5 -124.5t-143.5 -46.5zM196 -12q-76 0 -119.5 45t-43.5 122q0 40 16 102l82 305h189l-80 -297q-7 -26 -7 -47q0 -61 67 -61q80 0 107 104l81 301h189l-150 -562h-189
l16 63q-73 -75 -158 -75z" />
    <glyph glyph-name="aacute.alt" horiz-adv-x="710" 
d="M373 616l162 190l171 -59l-185 -131h-148zM329 145q53 0 94 41q52 50 52 126q0 46 -28.5 75t-73.5 29q-52 0 -93 -41q-51 -49 -51 -127q0 -47 27.5 -75t72.5 -28zM240 -12q-87 0 -145 62.5t-58 169.5q0 162 105 267q88 86 199 86q113 0 172 -89l21 78h189l-151 -562h-189
l16 59q-74 -71 -159 -71z" />
    <glyph glyph-name="abreve.alt" horiz-adv-x="710" 
d="M463 614q-89 0 -135.5 46t-45.5 125h116q2 -26 20.5 -43.5t51.5 -17.5q67 0 105 61h116q-24 -78 -84.5 -124.5t-143.5 -46.5zM329 145q53 0 94 41q52 50 52 126q0 46 -28.5 75t-73.5 29q-52 0 -93 -41q-51 -49 -51 -127q0 -47 27.5 -75t72.5 -28zM240 -12
q-87 0 -145 62.5t-58 169.5q0 162 105 267q88 86 199 86q113 0 172 -89l21 78h189l-151 -562h-189l16 59q-74 -71 -159 -71z" />
    <glyph glyph-name="acircumflex.alt" horiz-adv-x="710" 
d="M230 616l177 169h158l87 -169h-117l-69 64l-104 -64h-132zM329 145q53 0 94 41q52 50 52 126q0 46 -28.5 75t-73.5 29q-52 0 -93 -41q-51 -49 -51 -127q0 -47 27.5 -75t72.5 -28zM240 -12q-87 0 -145 62.5t-58 169.5q0 162 105 267q88 86 199 86q113 0 172 -89l21 78h189
l-151 -562h-189l16 59q-74 -71 -159 -71z" />
    <glyph glyph-name="adieresis.alt" horiz-adv-x="710" 
d="M478 616l40 146h168l-40 -146h-168zM251 616l40 146h168l-40 -146h-168zM329 145q53 0 94 41q52 50 52 126q0 46 -28.5 75t-73.5 29q-52 0 -93 -41q-51 -49 -51 -127q0 -47 27.5 -75t72.5 -28zM240 -12q-87 0 -145 62.5t-58 169.5q0 162 105 267q88 86 199 86
q113 0 172 -89l21 78h189l-151 -562h-189l16 59q-74 -71 -159 -71z" />
    <glyph glyph-name="agrave.alt" horiz-adv-x="710" 
d="M381 616l-112 131l177 59l59 -190h-124zM329 145q53 0 94 41q52 50 52 126q0 46 -28.5 75t-73.5 29q-52 0 -93 -41q-51 -49 -51 -127q0 -47 27.5 -75t72.5 -28zM240 -12q-87 0 -145 62.5t-58 169.5q0 162 105 267q88 86 199 86q113 0 172 -89l21 78h189l-151 -562h-189
l16 59q-74 -71 -159 -71z" />
    <glyph glyph-name="amacron.alt" horiz-adv-x="710" 
d="M256 621l31 117h387l-31 -117h-387zM329 145q53 0 94 41q52 50 52 126q0 46 -28.5 75t-73.5 29q-52 0 -93 -41q-51 -49 -51 -127q0 -47 27.5 -75t72.5 -28zM240 -12q-87 0 -145 62.5t-58 169.5q0 162 105 267q88 86 199 86q113 0 172 -89l21 78h189l-151 -562h-189l16 59
q-74 -71 -159 -71z" />
    <glyph glyph-name="aogonek.alt" horiz-adv-x="710" 
d="M569 -89l-22 -81q-29 -5 -65 -5q-61 0 -94 19t-33 53q0 49 69 103h-41l16 59q-74 -71 -159 -71q-87 0 -145 62.5t-58 169.5q0 162 105 267q88 86 199 86q113 0 172 -89l21 78h189l-151 -562h-28q-40 -37 -40 -62q0 -27 65 -27zM329 145q53 0 94 41q52 50 52 126
q0 46 -28.5 75t-73.5 29q-52 0 -93 -41q-51 -49 -51 -127q0 -47 27.5 -75t72.5 -28z" />
    <glyph glyph-name="aring.alt" horiz-adv-x="710" 
d="M618 763q0 -60 -42.5 -103.5t-104.5 -43.5q-55 0 -89 32.5t-34 81.5q0 59 42.5 102.5t104.5 43.5q55 0 89 -32t34 -81zM416 735q0 -27 16.5 -43.5t41.5 -16.5q32 0 54 25t22 58q0 27 -16.5 43.5t-41.5 16.5q-32 0 -54 -25t-22 -58zM329 145q53 0 94 41q52 50 52 126
q0 46 -28.5 75t-73.5 29q-52 0 -93 -41q-51 -49 -51 -127q0 -47 27.5 -75t72.5 -28zM240 -12q-87 0 -145 62.5t-58 169.5q0 162 105 267q88 86 199 86q113 0 172 -89l21 78h189l-151 -562h-189l16 59q-74 -71 -159 -71z" />
    <glyph glyph-name="aring.alt2" horiz-adv-x="629" 
d="M404 569q32 0 53.5 25t21.5 58q0 27 -16 43.5t-42 16.5q-32 0 -53.5 -25t-21.5 -58q0 -27 16 -43.5t42 -16.5zM252 107q40 0 74.5 30.5t46.5 73.5l5 19q-40 14 -80 14q-56 0 -84 -28q-21 -23 -21 -55q0 -24 16 -39t43 -15zM313 0l16 62q-75 -73 -164 -73q-70 0 -114 41.5
t-44 110.5q0 80 52 132q69 67 194 67q70 0 146 -22l2 6q5 18 5 37q0 61 -98 61q-81 0 -151 -28l-27 139q71 26 166 34q-18 25 -18 61q0 57 42.5 99.5t103.5 42.5q55 0 89 -32t34 -81q0 -72 -58 -112q104 -42 104 -153q0 -40 -12 -82l-82 -310h-186z" />
    <glyph glyph-name="aringacute.alt" horiz-adv-x="710" 
d="M449 911l163 164l166 -59l-183 -105h-146zM618 763q0 -60 -42.5 -103.5t-104.5 -43.5q-55 0 -89 32.5t-34 81.5q0 59 42.5 102.5t104.5 43.5q55 0 89 -32t34 -81zM416 735q0 -27 16.5 -43.5t41.5 -16.5q32 0 54 25t22 58q0 27 -16.5 43.5t-41.5 16.5q-32 0 -54 -25
t-22 -58zM329 145q53 0 94 41q52 50 52 126q0 46 -28.5 75t-73.5 29q-52 0 -93 -41q-51 -49 -51 -127q0 -47 27.5 -75t72.5 -28zM240 -12q-87 0 -145 62.5t-58 169.5q0 162 105 267q88 86 199 86q113 0 172 -89l21 78h189l-151 -562h-189l16 59q-74 -71 -159 -71z" />
    <glyph glyph-name="aringacute.alt2" horiz-adv-x="629" 
d="M380 805l163 164l166 -59l-183 -105h-146zM404 569q32 0 53.5 25t21.5 58q0 27 -16 43.5t-42 16.5q-32 0 -53.5 -25t-21.5 -58q0 -27 16 -43.5t42 -16.5zM252 107q40 0 74.5 30.5t46.5 73.5l5 19q-40 14 -80 14q-56 0 -84 -28q-21 -23 -21 -55q0 -24 16 -39t43 -15z
M313 0l16 62q-75 -73 -164 -73q-70 0 -114 41.5t-44 110.5q0 80 52 132q69 67 194 67q70 0 146 -22l2 6q5 18 5 37q0 61 -98 61q-81 0 -151 -28l-27 139q71 26 166 34q-18 25 -18 61q0 57 42.5 99.5t103.5 42.5q55 0 89 -32t34 -81q0 -72 -58 -112q104 -42 104 -153
q0 -40 -12 -82l-82 -310h-186z" />
    <glyph glyph-name="atilde.alt" horiz-adv-x="710" 
d="M601 794l93 -29q-31 -79 -65 -114t-86 -35q-35 0 -93 22q-45 18 -60 18q-21 0 -34.5 -11t-28.5 -38l-93 29q31 78 64.5 113.5t85.5 35.5q36 0 94 -22q43 -18 60 -18q21 0 34 11t29 38zM329 145q53 0 94 41q52 50 52 126q0 46 -28.5 75t-73.5 29q-52 0 -93 -41
q-51 -49 -51 -127q0 -47 27.5 -75t72.5 -28zM240 -12q-87 0 -145 62.5t-58 169.5q0 162 105 267q88 86 199 86q113 0 172 -89l21 78h189l-151 -562h-189l16 59q-74 -71 -159 -71z" />
    <glyph glyph-name="i.dot" horiz-adv-x="324" 
d="M153 615l39 144h198l-40 -144h-197zM-8 0l150 562h190l-151 -562h-189z" />
    <glyph glyph-name="three.alt" horiz-adv-x="658" 
d="M279 -14q-203 0 -295 139l131 110q70 -84 168 -84q53 0 84.5 24.5t31.5 56.5q0 62 -97 62h-76l40 147h73q53 0 86 20t33 57q0 26 -22.5 42.5t-55.5 16.5q-77 0 -160 -71l-100 121q118 115 284 115q115 0 182 -54.5t67 -133.5q0 -144 -168 -190q48 -18 77 -55.5t29 -90.5
q0 -101 -88 -166.5t-224 -65.5z" />
    <glyph glyph-name="registered.alt" horiz-adv-x="873" 
d="M498 742q150 0 242 -94.5t92 -236.5q0 -85 -32.5 -165t-92.5 -140q-120 -120 -289 -120q-150 0 -242 94.5t-92 236.5q0 85 32.5 165t92.5 140q120 120 289 120zM419 28q149 0 254 103q115 115 115 278q0 125 -78.5 208t-212.5 83q-149 0 -254 -103q-115 -115 -115 -277
q0 -126 78.5 -209t212.5 -83zM407 382h64q50 0 72 22q15 15 15 36q0 18 -11 29q-14 14 -52 14h-61zM384 298l-32 -123h-107l107 400h147q95 0 135 -40q31 -32 31 -83q0 -57 -37 -96q-33 -31 -82 -44l58 -137h-113l-49 123h-58z" />
    <glyph glyph-name="one.sup_alt" 
d="M110 434l23 91h104l58 213l-100 -30l-5 88l163 52h80l-86 -323h93l-24 -91h-306z" />
    <glyph glyph-name="one.inf_alt" 
d="M-43 -136l23 91h104l58 213l-100 -30l-5 88l163 52h80l-86 -323h93l-24 -91h-306z" />
    <glyph glyph-name="zero.num" 
d="M435 590q0 -62 -23.5 -122.5t-64.5 -101.5q-57 -57 -132 -57q-67 0 -106.5 40.5t-39.5 108.5q0 62 23 122.5t64 101.5q57 57 132 57q67 0 107 -40.5t40 -108.5zM178 461q0 -26 12 -41.5t35 -15.5q24 0 43 21q26 25 42 75t16 87q0 26 -12.5 41.5t-34.5 15.5q-21 0 -44 -21
q-26 -26 -41.5 -76t-15.5 -86z" />
    <glyph glyph-name="one.num" horiz-adv-x="342" 
d="M130 320l81 304l-84 -26l-5 89l147 47h81l-110 -414h-110z" />
    <glyph glyph-name="one.num_alt" 
d="M56 320l24 91h104l57 213l-99 -30l-6 88l163 52h81l-87 -323h93l-24 -91h-306z" />
    <glyph glyph-name="two.num" 
d="M38 320l23 87l205 139q48 33 48 61q0 34 -42 34q-44 0 -97 -50l-60 70q75 77 173 77q65 0 102.5 -31t37.5 -82q0 -43 -25.5 -76t-87.5 -72l-105 -66h170l-24 -91h-318z" />
    <glyph glyph-name="three.num" 
d="M209 309q-108 0 -166 71l72 67q43 -46 97 -46q30 0 50 15t20 36q0 41 -70 41h-38l-3 58l127 86h-161l24 91h295l-22 -80l-136 -90q94 -16 94 -99q0 -66 -53.5 -108t-129.5 -42z" />
    <glyph glyph-name="four.num" 
d="M221 318l21 78h-187l13 92l247 244h121l-68 -255h51l-22 -81h-51l-21 -78h-104zM160 475h106l38 145h-1z" />
    <glyph glyph-name="five.num" 
d="M210 310q-107 0 -170 71l70 68q50 -45 101 -45q34 0 55 15t21 40q0 19 -16 31.5t-44 12.5t-62 -17l-60 39l71 203h268l-24 -93h-183l-24 -65q29 9 61 9q55 0 90 -30.5t35 -81.5q0 -69 -54 -113t-135 -44z" />
    <glyph glyph-name="six.num" 
d="M222 309q-71 0 -109.5 40.5t-38.5 109.5q0 55 23.5 112.5t65.5 99.5q68 68 159 68q70 0 122 -44l-57 -77q-30 28 -72 28q-48 0 -81 -35q-23 -25 -36 -58q43 31 97 31q46 0 76.5 -28.5t30.5 -78.5q0 -72 -53 -120t-127 -48zM227 394q29 0 48.5 20t19.5 48q0 21 -12.5 34
t-35.5 13q-30 0 -50 -20q-19 -19 -19 -47q0 -22 13 -35t36 -13z" />
    <glyph glyph-name="seven.num" 
d="M62 317l250 313h-182l26 98h305l-23 -87l-256 -324h-120z" />
    <glyph glyph-name="eight.num" 
d="M221 309q-70 0 -114.5 31.5t-44.5 83.5q0 86 103 115q-46 27 -46 79q0 49 44.5 85t120.5 36q67 0 108.5 -32t41.5 -80q0 -40 -24 -67t-66 -38q55 -28 55 -84q0 -54 -49.5 -91.5t-128.5 -37.5zM271 563q26 0 43.5 14.5t17.5 37.5q0 18 -13.5 30.5t-39.5 12.5
q-27 0 -45 -14.5t-18 -36.5q-1 -19 14 -31.5t41 -12.5zM228 389q29 0 48.5 15t19.5 39q1 21 -16 34t-44 13q-29 0 -48.5 -15t-19.5 -38q0 -21 16 -34.5t44 -13.5z" />
    <glyph glyph-name="nine.num" 
d="M258 535q28 0 50 20q19 21 19 49q0 23 -13.5 36.5t-35.5 13.5q-30 -1 -49 -21.5t-19 -49.5q0 -22 12.5 -35t35.5 -13zM184 309q-76 0 -129 49l57 77q35 -33 79 -33q46 0 80 32q21 21 36 60q-41 -33 -97 -33q-46 0 -77 28.5t-31 78.5q0 72 53.5 121.5t126.5 49.5
q71 0 110 -40.5t39 -110.5q0 -55 -23 -113t-64 -99q-67 -67 -160 -67z" />
    <glyph glyph-name="zero.den" 
d="M350 270q0 -62 -23 -122.5t-64 -101.5q-59 -57 -132 -57q-67 0 -107 40.5t-40 108.5q0 62 23 122.5t64 101.5q59 57 132 57q67 0 107 -40.5t40 -108.5zM93 141q0 -26 12.5 -41.5t34.5 -15.5q21 0 44 21q26 26 41.5 76t15.5 86q0 26 -12.5 41.5t-34.5 15.5q-23 0 -44 -21
q-26 -26 -41.5 -76t-15.5 -86z" />
    <glyph glyph-name="one.den" horiz-adv-x="342" 
d="M44 0l82 304l-85 -25l-5 88l148 47h80l-110 -414h-110z" />
    <glyph glyph-name="one.den_alt" 
d="M-29 0l23 91h104l58 213l-100 -30l-5 88l163 52h80l-86 -323h93l-24 -91h-306z" />
    <glyph glyph-name="two.den" 
d="M-48 0l23 88l205 138q49 34 49 61q0 34 -43 34q-42 0 -97 -50l-60 70q75 77 173 77q65 0 103 -31t38 -82q0 -43 -25.5 -76.5t-88.5 -71.5l-104 -65h170l-25 -92h-318z" />
    <glyph glyph-name="three.den" 
d="M124 -11q-109 0 -165 71l71 67q46 -46 97 -46q30 0 50 15t20 36q0 41 -70 41h-38l-3 58l127 86h-161l24 91h295l-22 -80l-136 -90q44 -8 69 -32.5t25 -65.5q0 -67 -53.5 -109t-129.5 -42z" />
    <glyph glyph-name="four.den" 
d="M136 -1l21 78h-187l13 93l246 244h122l-68 -255h51l-22 -82h-52l-20 -78h-104zM74 156h106l39 145h-1z" />
    <glyph glyph-name="five.den" 
d="M125 -10q-108 0 -171 71l71 69q49 -46 101 -46q33 0 54.5 15t21.5 40q0 19 -16 31.5t-44 12.5q-33 0 -62 -17l-61 39l72 203h268l-25 -93h-183l-24 -65q31 9 62 9q55 0 90 -30.5t35 -81.5q0 -69 -54 -113t-135 -44z" />
    <glyph glyph-name="six.den" 
d="M136 -11q-71 0 -109.5 40.5t-38.5 109.5q0 55 23.5 112.5t65.5 100.5q67 67 159 67q70 0 122 -44l-57 -77q-30 28 -72 28q-48 0 -81 -35q-22 -22 -36 -58q41 31 97 31q46 0 76.5 -28.5t30.5 -78.5q0 -72 -53 -120t-127 -48zM141 74q29 0 48.5 20t19.5 48q0 21 -13 34
t-36 13q-30 0 -49 -19q-20 -22 -20 -48q0 -22 13.5 -35t36.5 -13z" />
    <glyph glyph-name="seven.den" 
d="M-24 -2l250 313h-182l27 97h305l-24 -87l-255 -323h-121z" />
    <glyph glyph-name="eight.den" 
d="M136 -11q-70 0 -114.5 31.5t-44.5 83.5q0 88 103 115q-46 26 -46 79q0 49 44.5 85t120.5 36q66 0 107.5 -32t41.5 -80q0 -39 -24 -66t-66 -39q55 -28 55 -83q0 -54 -49 -92t-128 -38zM186 243q25 0 43 15t18 38q0 18 -14 30t-39 12q-27 0 -45 -14.5t-18 -36.5
q-1 -18 14 -31t41 -13zM143 69q28 0 48 15t20 39q0 22 -16.5 35t-44.5 13t-47.5 -15.5t-20.5 -38.5q0 -21 16.5 -34.5t44.5 -13.5z" />
    <glyph glyph-name="nine.den" 
d="M174 215q27 0 49 20q19 19 19 49q0 23 -13 36.5t-36 13.5q-30 -1 -49 -21.5t-19 -49.5q0 -22 13 -35t36 -13zM99 -11q-76 0 -129 49l57 77q35 -33 79 -33q46 0 80 32q21 21 36 60q-41 -33 -97 -33q-46 0 -76.5 28.5t-30.5 79.5q0 71 53 120.5t126 49.5q71 0 110 -40.5
t39 -109.5q0 -56 -22.5 -113.5t-63.5 -98.5q-68 -68 -161 -68z" />
    <glyph glyph-name="onehalf.alt" horiz-adv-x="945" 
d="M54 320l24 91h104l57 213l-99 -30l-6 88l163 52h81l-87 -323h93l-24 -91h-306zM104 0l366 381l321 347h93l-366 -381l-321 -347h-93zM485 0l23 88l205 138q49 34 49 61q0 34 -43 34q-42 0 -97 -50l-60 70q75 77 173 77q65 0 103 -31t38 -82q0 -43 -25.5 -76.5
t-88.5 -71.5l-104 -65h170l-25 -92h-318z" />
    <glyph glyph-name="onethird.alt" horiz-adv-x="945" 
d="M54 320l24 91h104l57 213l-99 -30l-6 88l163 52h81l-87 -323h93l-24 -91h-306zM93 0l366 381l321 347h93l-366 -381l-321 -347h-93zM657 -11q-109 0 -165 71l71 67q46 -46 97 -46q30 0 50 15t20 36q0 41 -70 41h-38l-3 58l127 86h-161l24 91h295l-22 -80l-136 -90
q44 -8 69 -32.5t25 -65.5q0 -67 -53.5 -109t-129.5 -42z" />
    <glyph glyph-name="onequarter.alt" horiz-adv-x="945" 
d="M54 320l24 91h104l57 213l-99 -30l-6 88l163 52h81l-87 -323h93l-24 -91h-306zM109 0l366 381l321 347h93l-366 -381l-321 -347h-93zM659 -1l21 78h-187l13 93l246 244h122l-68 -255h51l-22 -82h-52l-20 -78h-104zM597 156h106l39 145h-1z" />
    <glyph glyph-name="onefifth.alt" horiz-adv-x="945" 
d="M54 320l24 91h104l57 213l-99 -30l-6 88l163 52h81l-87 -323h93l-24 -91h-306zM99 0l366 381l321 347h93l-366 -381l-321 -347h-93zM658 -10q-108 0 -171 71l71 69q49 -46 101 -46q33 0 54.5 15t21.5 40q0 19 -16 31.5t-44 12.5q-33 0 -62 -17l-61 39l72 203h268l-25 -93
h-183l-24 -65q31 9 62 9q55 0 90 -30.5t35 -81.5q0 -69 -54 -113t-135 -44z" />
    <glyph glyph-name="onesixth.alt" horiz-adv-x="945" 
d="M54 320l24 91h104l57 213l-99 -30l-6 88l163 52h81l-87 -323h93l-24 -91h-306zM99 0l366 381l321 347h93l-366 -381l-321 -347h-93zM669 -11q-71 0 -109.5 40.5t-38.5 109.5q0 55 23.5 112.5t65.5 100.5q67 67 159 67q70 0 122 -44l-57 -77q-30 28 -72 28q-48 0 -81 -35
q-22 -22 -36 -58q41 31 97 31q46 0 76.5 -28.5t30.5 -78.5q0 -72 -53 -120t-127 -48zM674 74q29 0 48.5 20t19.5 48q0 21 -13 34t-36 13q-30 0 -49 -19q-20 -22 -20 -48q0 -22 13.5 -35t36.5 -13z" />
    <glyph glyph-name="oneeighth.alt" horiz-adv-x="945" 
d="M54 320l24 91h104l57 213l-99 -30l-6 88l163 52h81l-87 -323h93l-24 -91h-306zM99 0l366 381l321 347h93l-366 -381l-321 -347h-93zM669 -11q-70 0 -114.5 31.5t-44.5 83.5q0 88 103 115q-46 26 -46 79q0 49 44.5 85t120.5 36q66 0 107.5 -32t41.5 -80q0 -39 -24 -66
t-66 -39q55 -28 55 -83q0 -54 -49 -92t-128 -38zM719 243q25 0 43 15t18 38q0 18 -14 30t-39 12q-27 0 -45 -14.5t-18 -36.5q-1 -18 14 -31t41 -13zM676 69q28 0 48 15t20 39q0 22 -16.5 35t-44.5 13t-47.5 -15.5t-20.5 -38.5q0 -21 16.5 -34.5t44.5 -13.5z" />
    <glyph glyph-name="zero.tab" horiz-adv-x="630" 
d="M611 494q0 -112 -40.5 -228.5t-114.5 -190.5q-88 -88 -205 -88q-112 0 -172 65t-60 182q0 113 40.5 229t114.5 190q86 88 205 88q111 0 171.5 -65.5t60.5 -181.5zM193 241q0 -96 72 -96q35 0 65 30q47 47 76.5 148.5t29.5 163.5q0 96 -72 96q-35 0 -65 -30
q-47 -47 -76.5 -149t-29.5 -163z" />
    <glyph glyph-name="one.tab" horiz-adv-x="630" 
d="M-22 0l40 152h176l104 391l-170 -52l-3 153l277 89h131l-156 -581h157l-41 -152h-515z" />
    <glyph glyph-name="two.tab" horiz-adv-x="630" 
d="M-56 0l40 147l350 247q86 59 86 116q0 30 -20.5 46.5t-55.5 16.5q-74 0 -168 -86l-99 121q126 131 290 131q114 0 181 -54.5t67 -140.5q0 -73 -40.5 -131t-146.5 -128l-188 -125h291l-43 -160h-544z" />
    <glyph glyph-name="three.tab" horiz-adv-x="630" 
d="M236 -14q-189 0 -281 126l131 115q36 -40 72.5 -58.5t86.5 -18.5q52 0 88 26.5t36 65.5q0 33 -30 51.5t-87 18.5h-68l-5 100l205 157h-277l44 159h513l-39 -144l-217 -157q150 -33 150 -172q0 -113 -92 -191t-230 -78z" />
    <glyph glyph-name="three.tab_alt" horiz-adv-x="630" 
d="M236 -14q-103 0 -176 37.5t-113 98.5l132 106q67 -81 169 -81q53 0 83 25t30 58q0 67 -101 67h-77l38 142h81q54 0 88.5 22t34.5 58q0 28 -23.5 45t-61.5 17q-81 0 -164 -67l-81 124q122 104 276 104q115 0 182.5 -53t67.5 -136q0 -71 -45.5 -121t-126.5 -70
q44 -18 71.5 -53t27.5 -85q0 -103 -88.5 -170.5t-223.5 -67.5z" />
    <glyph glyph-name="four.tab" horiz-adv-x="630" 
d="M256 0l37 139h-310l16 154l422 439h205l-122 -452h84l-38 -141h-83l-38 -139h-173zM160 277h173l67 252h-1z" />
    <glyph glyph-name="five.tab" horiz-adv-x="630" 
d="M227 -13q-85 0 -158.5 33.5t-118.5 88.5l124 119q77 -80 169 -80q56 0 94 28.5t38 74.5q0 36 -26.5 58t-75.5 22q-51 0 -113 -31l-99 66l123 362h463l-44 -161h-313l-41 -118q52 15 104 15q95 0 155 -52t60 -143q0 -115 -95 -198.5t-246 -83.5z" />
    <glyph glyph-name="six.tab" horiz-adv-x="630" 
d="M271 -14q-116 0 -184 66q-66 68 -66 191q0 101 40.5 206.5t114.5 180.5q111 111 260 111q133 0 213 -76l-98 -130q-52 48 -122 48q-78 0 -135 -57q-42 -42 -67 -109q67 52 156 52q75 0 131.5 -50.5t56.5 -139.5q0 -116 -87.5 -204.5t-212.5 -88.5zM277 133q48 0 80 36.5
t32 85.5q0 39 -22 61.5t-62 22.5q-44 0 -77 -31q-35 -37 -35 -89q0 -37 21.5 -61.5t62.5 -24.5z" />
    <glyph glyph-name="seven.tab" horiz-adv-x="630" 
d="M-8 0l423 561h-326l44 167h544l-41 -150l-429 -578h-215z" />
    <glyph glyph-name="eight.tab" horiz-adv-x="630" 
d="M264 -12q-119 0 -197 54.5t-78 143.5q0 77 48.5 130t128.5 74q-80 46 -80 135t77 152t199 63q116 0 187.5 -54.5t71.5 -138.5q0 -70 -40.5 -117.5t-112.5 -67.5q95 -48 95 -144q0 -100 -86 -165t-213 -65zM344 433q42 0 72 25t30 65q1 32 -23 54t-66 22q-43 0 -73 -25.5
t-30 -63.5q-1 -33 24 -54.5t66 -22.5zM271 128q46 0 79 27t34 69q0 37 -27.5 59t-71.5 22q-46 0 -78.5 -27.5t-33.5 -68.5q0 -35 27 -57.5t71 -23.5z" />
    <glyph glyph-name="nine.tab" horiz-adv-x="630" 
d="M321 382q45 0 77 32q36 36 36 91q0 40 -22 64.5t-63 24.5q-48 0 -80.5 -37t-32.5 -87q0 -41 22.5 -64.5t62.5 -23.5zM195 -13q-144 0 -224 82l97 131q58 -55 135 -55q78 0 131 53q36 35 64 106q-69 -52 -150 -52q-78 0 -135 51.5t-57 143.5q0 117 88 206t214 89
q116 0 181 -65q67 -67 67 -192q0 -103 -39.5 -209.5t-113.5 -180.5q-110 -108 -258 -108z" />
    <glyph glyph-name="dollar.tab" horiz-adv-x="630" 
d="M262 517q0 -33 43 -55l35 123h-1q-38 -4 -58 -23.5t-19 -44.5zM383 214q0 34 -43 55l-36 -125h1q36 4 57.5 22t20.5 48zM398 812h103l-27 -95q95 -22 168 -83l-97 -125q-53 47 -115 64l-40 -141q84 -33 126.5 -78t42.5 -114q0 -108 -81 -173.5t-208 -66.5h-1l-31 -106
h-103l33 115q-126 24 -209 110l101 122q70 -69 153 -89l41 145q-83 32 -127 76.5t-44 117.5q0 103 80.5 170.5t203.5 67.5h7z" />
    <glyph glyph-name="sterling.tab" horiz-adv-x="630" 
d="M-51 0l31 115l82 29l36 130h-74l37 141h74l23 85q28 104 86 162q78 78 206 78q72 0 127 -29.5t88 -75.5l-124 -115q-39 51 -96 51q-44 0 -72 -28q-25 -25 -38 -73l-15 -55h211l-37 -141h-211l-33 -121h286l-41 -153h-546z" />
    <glyph glyph-name="Euro.tab" horiz-adv-x="630" 
d="M39 396l29 108h71q36 86 94 144q93 93 225 93q72 0 127.5 -31.5t88.5 -85.5l-117 -115q-46 71 -111 71q-50 0 -87 -37q-18 -18 -32 -43h157l-28 -104h-170q-9 -36 -13 -60h167l-27 -103h-147q12 -85 91 -85q56 0 114 50l72 -126q-99 -85 -216 -85q-104 0 -171 62t-73 179
h-89l29 108h70q1 4 5.5 26t7.5 34h-67z" />
    <glyph glyph-name="yen.tab" horiz-adv-x="630" 
d="M43 264l28 106h132l-102 358h186l52 -251l184 251h202l-296 -358h133l-28 -106h-156l-19 -70h156l-28 -105h-156l-24 -89h-178l24 89h-156l27 105h157l18 70h-156z" />
    <glyph glyph-name="cent.tab" horiz-adv-x="630" 
d="M217 343q0 -62 40 -94l105 269h-1q-54 -5 -92 -44q-52 -52 -52 -131zM554 734l-39 -100q87 -39 119 -124l-129 -73q-19 41 -49 61l-107 -274h1q62 4 115 57l101 -96q-39 -45 -98.5 -73t-132.5 -28q-24 0 -35 1l-36 -91h-113l46 117q-66 30 -103 88t-37 134q0 136 94 230
q98 96 241 96q13 0 19 -1l30 76h113z" />
    <glyph glyph-name="numbersign.tab" horiz-adv-x="630" 
d="M233 297h118l47 139h-118zM6 0l49 147h-72l36 152h88l45 134h-83l37 152h98l48 143h128l-48 -143h115l49 143h128l-49 -143h74l-36 -152h-90l-45 -134h84l-37 -152h-99l-49 -147h-128l50 147h-116l-49 -147h-128z" />
    <glyph glyph-name="paragraph.tab" horiz-adv-x="630" 
d="M265 0l58 220h-1q-147 6 -213 73q-54 54 -54 146q0 116 76 192q97 97 292 97h230l-195 -728h-193z" />
    <glyph glyph-name="section.tab" horiz-adv-x="630" 
d="M389 301q22 0 37 11t15 28q0 18 -20.5 30.5t-70.5 30.5q-84 28 -109 28q-22 0 -37 -11t-15 -28q0 -18 21 -31t70 -30q86 -28 109 -28zM256 -12q-159 0 -255 89l96 109q33 -29 78.5 -48t84.5 -19q54 0 54 33q0 15 -19 26t-75 29q-92 30 -137.5 60.5t-45.5 85.5
q0 105 142 136q-37 35 -37 85q0 71 64 119.5t168 48.5q159 0 256 -89l-96 -109q-34 29 -79.5 47.5t-84.5 18.5q-54 0 -54 -33q0 -15 19 -25.5t75 -29.5q92 -29 137.5 -59.5t45.5 -85.5q0 -105 -141 -136q36 -38 36 -85q0 -71 -64 -119.5t-168 -48.5z" />
    <glyph glyph-name="degree.tab" horiz-adv-x="630" 
d="M375 739q93 0 150 -56.5t57 -142.5q0 -99 -72 -171q-70 -72 -169 -72q-93 0 -150 56.5t-57 142.5q0 101 71 172t170 71zM346 398q48 0 85 35q41 41 41 103q0 45 -28.5 73.5t-74.5 28.5q-50 0 -85 -35q-41 -41 -41 -103q0 -45 28.5 -73.5t74.5 -28.5z" />
    <glyph glyph-name="percent.tab" horiz-adv-x="630" 
d="M234 735q48 0 73.5 -33.5t25.5 -87.5q0 -58 -24 -129.5t-66 -113.5q-41 -41 -92 -41q-47 0 -73 33.5t-26 87.5q0 58 24 129.5t66 112.5q40 42 92 42zM547 728h86l-295 -377l-252 -351h-86l295 377zM222 648q-10 0 -20 -10q-23 -23 -41.5 -87.5t-18.5 -101.5q0 -32 21 -32
q10 0 20 10q23 23 42 87.5t19 101.5q0 32 -22 32zM399 -7q-48 0 -74 33.5t-26 87.5q0 57 24.5 129t65.5 114q43 41 92 41q48 0 73.5 -33t25.5 -88q0 -58 -24 -129.5t-65 -112.5q-42 -42 -92 -42zM410 80q10 0 20 10q23 23 42 87.5t19 101.5q0 32 -21 32q-11 0 -21 -10
q-23 -23 -41.5 -87t-18.5 -102q0 -32 21 -32z" />
    <glyph glyph-name="quotedbl.tab" horiz-adv-x="630" 
d="M354 363l109 365h205l-1 -5l-213 -360h-100zM81 363l110 365h204l-1 -5l-213 -360h-100z" />
    <glyph glyph-name="quotesingle.tab" horiz-adv-x="315" 
d="M66 363l109 365h207l-1 -5l-213 -360h-102z" />
    <glyph glyph-name="period.tab" horiz-adv-x="315" 
d="M-40 0l54 198h200l-54 -198h-200z" />
    <glyph glyph-name="comma.tab" horiz-adv-x="315" 
d="M-88 -171l-9 74q117 11 135 99h-77l53 198h200l-46 -171q-27 -101 -86.5 -148.5t-169.5 -51.5z" />
    <glyph glyph-name="colon.tab" horiz-adv-x="315" 
d="M59 366l52 196h198l-53 -196h-197zM-39 0l52 196h198l-53 -196h-197z" />
    <glyph glyph-name="semicolon.tab" horiz-adv-x="315" 
d="M59 366l53 196h198l-53 -196h-198zM-89 -173l-9 74q118 11 136 99h-77l53 196h198l-45 -169q-27 -101 -86.5 -148.5t-169.5 -51.5z" />
    <glyph glyph-name="twodotleader.tab" horiz-adv-x="630" 
d="M277 0l51 189h192l-50 -189h-193zM-35 0l51 189h192l-50 -189h-193z" />
    <glyph glyph-name="periodcentered.tab" horiz-adv-x="315" 
d="M21 225l53 198h200l-53 -198h-200z" />
    <glyph glyph-name="slash.tab" horiz-adv-x="630" 
d="M-157 -133l752 963h168l-751 -963h-169z" />
    <glyph glyph-name="bar.tab" horiz-adv-x="315" 
d="M-48 -133l258 963h145l-259 -963h-144z" />
    <glyph glyph-name="underscore.tab" horiz-adv-x="630" 
d="M-142 -166l33 120h627l-32 -120h-628z" />
    <glyph glyph-name="plus.tab" horiz-adv-x="630" 
d="M164 108l48 178l-178 -1l43 162l178 -1l47 178h165l-48 -178l178 1l-43 -162l-176 1l-47 -178h-167z" />
    <glyph glyph-name="minus.tab" horiz-adv-x="630" 
d="M33 282l46 169h519l-45 -169h-520z" />
    <glyph glyph-name="divide.tab" horiz-adv-x="630" 
d="M264 512l44 164h181l-44 -164h-181zM35 290l42 153h519l-42 -153h-519zM142 56l44 164h181l-44 -164h-181z" />
    <glyph glyph-name="equal.tab" horiz-adv-x="630" 
d="M83 422l42 159h495l-42 -159h-495zM11 151l42 159h494l-42 -159h-494z" />
    <glyph glyph-name="multiply.tab" horiz-adv-x="630" 
d="M110 104l-93 125l188 145l-108 142l140 108l102 -145l187 149l93 -125l-188 -144l106 -141l-139 -110l-102 145z" />
    <glyph glyph-name="less.tab" horiz-adv-x="630" 
d="M477 74l-441 206l46 172l554 214l-49 -181l-359 -126l293 -121z" />
    <glyph glyph-name="greater.tab" horiz-adv-x="630" 
d="M154 657l441 -205l-46 -172l-554 -214l49 180l359 127l-292 121z" />
    <glyph glyph-name="plusminus.tab" horiz-adv-x="630" 
d="M196 222l47 170l-178 -1l41 153l177 -1l45 171h161l-46 -171l178 1l-41 -153l-178 1l-45 -170h-161zM-39 0l37 143h515l-38 -143h-514z" />
    <glyph glyph-name="R_p" horiz-adv-x="1259" 
d="M268 374h81q66 0 105 30t39 86q0 34 -24 57.5t-75 23.5h-73zM928 138q38 0 69 31q27 27 42.5 71t15.5 91q0 43 -18.5 68.5t-54.5 25.5q-38 0 -69 -31q-27 -27 -43 -71.5t-16 -88.5q0 -43 19 -69.5t55 -26.5zM-10 0l195 728h225q74 0 129 -19.5t84.5 -52t43 -68
t13.5 -74.5q0 -100 -56.5 -168t-148.5 -94l88 -252h-194l-72 228h-68l-62 -228h-177zM577 -166l195 728h174l-17 -61q67 72 147 72q72 0 115.5 -52.5t43.5 -150.5q0 -86 -31 -171t-86 -140q-71 -71 -159 -71q-101 0 -144 85l-64 -239h-174z" />
    <glyph glyph-name="space.tab" horiz-adv-x="315" 
 />
    <glyph glyph-name="NUL" horiz-adv-x="0" 
 />
    <glyph glyph-name="caron.alt" horiz-adv-x="530" 
d="M298 610l59 222h142l-1 -4l-125 -218h-75z" />
    <glyph glyph-name="acute.cap" horiz-adv-x="530" 
d="M270 779l161 167l175 -57l-181 -110h-155z" />
    <glyph glyph-name="hungarumlaut.cap" horiz-adv-x="530" 
d="M368 779l100 107l-168 -107h-140l156 167l157 -56l52 56l160 -57l-177 -110h-140z" />
    <glyph glyph-name="grave.cap" horiz-adv-x="530" 
d="M390 779l-122 110l181 57l70 -167h-129z" />
    <glyph glyph-name="circumflex.cap" horiz-adv-x="530" 
d="M187 779l171 155h170l88 -155h-123l-67 56l-97 -56h-142z" />
    <glyph glyph-name="caron.cap" horiz-adv-x="530" 
d="M658 934l-170 -155h-171l-88 155h123l67 -56l97 56h142z" />
    <glyph glyph-name="breve.cap" horiz-adv-x="530" 
d="M404 777q-87 0 -130.5 40.5t-33.5 116.5h111q6 -48 76 -48q64 0 97 48h123q-30 -76 -93 -116.5t-150 -40.5z" />
    <glyph glyph-name="tilde.cap" horiz-adv-x="530" 
d="M275 771l-93 28q31 78 66 114t86 36q36 0 101 -23q48 -18 62 -18q21 0 35 11.5t29 37.5l93 -28q-30 -78 -65 -114t-86 -36q-36 0 -101 23q-48 18 -62 18q-21 0 -35 -11t-30 -38z" />
    <glyph glyph-name="macron.cap" horiz-adv-x="530" 
d="M199 786l33 120h410l-33 -120h-410z" />
    <glyph glyph-name="dieresis.cap" horiz-adv-x="530" 
d="M433 779l39 142h168l-39 -142h-168zM204 779l39 142h167l-39 -142h-167z" />
    <glyph glyph-name="dotaccent.cap" horiz-adv-x="530" 
d="M315 779l39 142h173l-39 -142h-173z" />
    <glyph glyph-name="ring.cap" horiz-adv-x="530" 
d="M350 1034q56 0 93 -32.5t37 -78.5q0 -59 -45 -101.5t-115 -42.5q-56 0 -93 32.5t-37 78.5q0 59 45 101.5t115 42.5zM326 840q37 0 60 23.5t23 52.5q0 26 -18 41.5t-47 15.5q-37 0 -60 -23.5t-23 -51.5q0 -26 18 -42t47 -16z" />
    <glyph glyph-name="commaaccent.rot" horiz-adv-x="530" 
d="M491 879l-7 -57q-86 -7 -98 -69h70l-37 -137h-163l31 117q21 77 71.5 110.5t132.5 35.5z" />
    <glyph glyph-name="acute.altlc" horiz-adv-x="530" 
d="M342 911l163 164l166 -59l-183 -105h-146z" />
    <glyph glyph-name="acute.altuc" horiz-adv-x="530" 
d="M359 924l166 155l168 -59l-186 -96h-148z" />
    <glyph glyph-name="caron.alt.cap" horiz-adv-x="530" 
d="M298 610l59 222h142l-1 -4l-125 -218h-75z" />
    <glyph glyph-name="cedilla.cap" horiz-adv-x="530" 
d="M170 -180l-138 64l129 131h131z" />
    <glyph glyph-name="commaaccent.cap" horiz-adv-x="530" 
d="M26 -316l7 57q86 7 98 69h-70l37 137h163l-31 -117q-20 -76 -71 -110t-133 -36z" />
    <glyph glyph-name="hcoslug" horiz-adv-x="694" 
d="M644 700v-800h-594v800h594zM247 428q0 13 7.5 21t19.5 8q13 0 21 -10.5t8 -27.5q0 -22 -18 -50q-15 14 -21 20.5t-11.5 17t-5.5 21.5zM312 342q30 20 42 34q29 -29 -1 -80q-33 38 -41 46zM261 219q-22 0 -37 15.5t-15 38.5q0 24 16 40q34 -32 74 -82q-15 -12 -38 -12z
M382 264q20 26 46 42q15 -25 43 -25q21 0 35.5 15.5t14.5 38.5t-14.5 37.5t-35.5 14.5q-35 0 -60 -38q-3 39 -49 37q9 15 9 34q0 29 -25.5 51.5t-69.5 22.5q-48 0 -78.5 -25.5t-30.5 -59.5q0 -37 31 -69q-82 -28 -82 -91q0 -39 32 -66t77 -27q63 0 104 45q44 -45 85 -45
q33 0 56 25.5t24 68.5l-7 2q-17 -29 -43 -29q-27 0 -62 41zM286 124l-12 -2v-9h-7v-7h7v-20q0 -13 12 -13q11 0 14 13l-5 2q-1 -7 -5 -7t-4 5v20h13v7h-13v11zM174 94q0 -21 21 -21q9 0 15 6t6 15q0 20 -21 20t-21 -20zM203 94q0 -16 -8 -16t-8 16q0 15 8 15t8 -15zM219 81
v-7h22v7h-4v15q0 10 7 10q6 0 6 -7v-18h-4v-7h22v7h-6v19q0 14 -12 14q-9 0 -14 -11v10h-17v-7h6v-25h-6zM379 93q0 -13 -7 -13q-8 0 -8 13t8 13q7 0 7 -13zM125 81v-7h30v7h-10v16h4q5 0 6 -8h7v23h-7q-1 -8 -6 -8h-4v18h12q9 0 11 -13h8v20h-51v-7h7v-41h-7zM302 88v-14h7
l1 4q8 -5 13 -5q14 0 14 13q0 9 -12 12t-12 6q0 4 5 4t10 -7h7v13h-6l-2 -5q-3 5 -11 5q-14 0 -14 -12q0 -9 12 -12.5t12 -6.5q0 -4 -5 -4q-6 0 -12 9h-7zM352 125v-52h6l4 8q5 -8 14 -8q16 0 16 21q0 20 -15 20q-10 0 -13 -9v27h-18v-7h6zM405 65q3 2 1.5 6t-6.5 4
q-7 0 -7 -7q0 -9 11 -9q12 0 18 16l13 31h5v7h-17v-7h5l-8 -20l-9 20h6v7h-25v-7h5q12 -23 16 -33q-2 -8 -8 -8zM294 39v3q0 12 6 12l3 -1q-1 -1 -1 -3q0 -6 6 -6v-5h-14zM464 33h-18v-7h6q-2 -4 -6 -9q-2 2 -5.5 6t-6.5 7q11 5 11 12q0 12 -14 12q-17 0 -17 -14q0 -6 6 -12
q-13 -4 -13 -15q0 -14 18 -14q9 0 15 6q5 -6 12 -6q10 0 13 12l-5 1q-1 -5 -4 -5t-6 5q6 8 9 14h5v7zM469 27q0 -28 29 -28q22 0 24 23h-8q-2 -16 -14 -16q-16 0 -16 22t14 22q10 0 15 -16h8v22h-8l-1 -6q-7 7 -16 7q-11 0 -19 -8.5t-8 -21.5zM431 33q-6 6 -6 10q0 5 5 5
q6 0 6 -6t-5 -9zM340 18h26q2 22 -19 22q-8 0 -14 -6t-6 -15q0 -20 21 -20q14 0 18 14h-7q-1 -7 -9 -7q-10 0 -10 12zM525 20q0 -21 21 -21q9 0 15 6t6 15q0 20 -21 20t-21 -20zM189 20q0 -21 21 -21q9 0 15 6t6 15q0 20 -21 20t-21 -20zM247 18h26q2 22 -19 22q-8 0 -14 -6
t-6 -15q0 -20 21 -20q15 0 18 14h-7q-1 -7 -9 -7q-10 0 -10 12zM340 23q0 12 7 12t7 -12h-14zM554 20q0 -16 -8 -16t-8 16q0 15 8 15t8 -15zM218 20q0 -16 -8 -16t-8 16q0 15 8 15t8 -15zM247 23q0 12 7 12t7 -12h-14zM368 7v-7h26v7h-8v16q4 9 7 9v-1q0 -6 6 -6q7 0 7 7
q0 8 -8 8t-12 -11v10h-18v-7h6v-25h-6zM276 7v-7h23v7h-5v25h14v-25h-5v-7h23v7h-6v52l-10 -2q-4 2 -9 2q-19 0 -19 -19v-1h-7v-7h7v-25h-6zM124 7v-7h29v7h-8v18h22v-18h-8v-7h29v7h-8v41h8v7h-29v-7h8v-16h-22v16h8v7h-29v-7h8v-41h-8zM437 9q-5 -3 -8 -3q-10 0 -10 10
q0 5 4 9q4 -4 14 -16zM583 6q0 7 -7 7t-7 -7t7 -7t7 7z" />
    <glyph glyph-name="ogonek.cap" horiz-adv-x="530" 
d="M294 -89l-22 -81q-29 -5 -65 -5q-61 0 -94 19t-33 53q0 51 82 113h118q-51 -47 -51 -72q0 -27 65 -27z" />
    </font>
</defs>
</svg>
